<svg width="33" height="33" viewBox="0 0 33 33" fill="none" xmlns="http://www.w3.org/2000/svg">
<path d="M6.50003 26.5C6.49837 26.1056 6.57484 25.7147 6.72502 25.35C6.8752 24.9853 7.09611 24.6539 7.37502 24.375C7.65392 24.0961 7.9853 23.8752 8.35002 23.725C8.71475 23.5748 9.1056 23.4984 9.50003 23.5H26.5V4.50003H9.50003C9.1056 4.49837 8.71475 4.57484 8.35002 4.72502C7.9853 4.8752 7.65392 5.09611 7.37502 5.37502C7.09611 5.65392 6.8752 5.9853 6.72502 6.35002C6.57484 6.71475 6.49837 7.1056 6.50003 7.50003V26.5Z" stroke="#555555" stroke-width="2" stroke-linecap="round" stroke-linejoin="round"/>
<path d="M6.5 26.5V28.5H24.5" stroke="#555555" stroke-width="2" stroke-linecap="round" stroke-linejoin="round"/>
</svg>
