<svg width="359" height="185" viewBox="0 0 359 185" fill="none" xmlns="http://www.w3.org/2000/svg">
<path d="M5.35298 11.1392C4.76965 11.1392 4.24432 11.0232 3.77699 10.7912C3.30966 10.5592 2.93513 10.241 2.65341 9.83665C2.37169 9.43229 2.21757 8.97159 2.19105 8.45455H3.38423C3.43063 8.91525 3.63944 9.2964 4.01065 9.59801C4.38518 9.89631 4.83262 10.0455 5.35298 10.0455C5.7706 10.0455 6.14181 9.94768 6.46662 9.75213C6.79474 9.55658 7.05161 9.28812 7.23722 8.94673C7.42614 8.60204 7.5206 8.21259 7.5206 7.77841C7.5206 7.33428 7.42282 6.93821 7.22727 6.5902C7.03504 6.23887 6.76989 5.96212 6.43182 5.75994C6.09375 5.55776 5.70762 5.45502 5.27344 5.4517C4.96188 5.44839 4.64205 5.49645 4.31392 5.59588C3.9858 5.692 3.71567 5.81629 3.50355 5.96875L2.35014 5.82955L2.96662 0.818182H8.25639V1.91193H4.00071L3.64276 4.91477H3.70241C3.91122 4.74905 4.17306 4.61151 4.48793 4.50213C4.80279 4.39276 5.13092 4.33807 5.4723 4.33807C6.09541 4.33807 6.65057 4.48722 7.13778 4.78551C7.62831 5.08049 8.01278 5.48485 8.29119 5.99858C8.57292 6.51231 8.71378 7.09896 8.71378 7.75852C8.71378 8.40814 8.56794 8.98816 8.27628 9.49858C7.98793 10.0057 7.5902 10.4067 7.0831 10.7017C6.57599 10.9934 5.99929 11.1392 5.35298 11.1392ZM14.0098 11.1392C13.2607 11.1392 12.6227 10.9354 12.0957 10.5277C11.5687 10.1167 11.166 9.52178 10.8876 8.7429C10.6092 7.9607 10.47 7.0161 10.47 5.90909C10.47 4.80871 10.6092 3.86908 10.8876 3.0902C11.1693 2.308 11.5737 1.71141 12.1007 1.30043C12.631 0.886126 13.2673 0.678977 14.0098 0.678977C14.7522 0.678977 15.3869 0.886126 15.9139 1.30043C16.4442 1.71141 16.8485 2.308 17.127 3.0902C17.4087 3.86908 17.5495 4.80871 17.5495 5.90909C17.5495 7.0161 17.4103 7.9607 17.1319 8.7429C16.8535 9.52178 16.4508 10.1167 15.9238 10.5277C15.3968 10.9354 14.7588 11.1392 14.0098 11.1392ZM14.0098 10.0455C14.7522 10.0455 15.3289 9.6875 15.7399 8.97159C16.1509 8.25568 16.3564 7.23485 16.3564 5.90909C16.3564 5.02746 16.2619 4.27675 16.073 3.65696C15.8874 3.03717 15.6189 2.56487 15.2676 2.24006C14.9196 1.91525 14.5003 1.75284 14.0098 1.75284C13.274 1.75284 12.6989 2.11577 12.2846 2.84162C11.8703 3.56416 11.6632 4.58665 11.6632 5.90909C11.6632 6.79072 11.756 7.53977 11.9416 8.15625C12.1272 8.77273 12.394 9.24171 12.742 9.56321C13.0933 9.88471 13.5159 10.0455 14.0098 10.0455ZM20.5524 8.21591L20.5325 6.7642H20.7711L24.112 3.36364H25.5637L22.0041 6.96307H21.9047L20.5524 8.21591ZM19.4586 11V0.818182H20.6319V11H19.4586ZM24.3109 11L21.3279 7.22159L22.1632 6.40625L25.8024 11H24.3109Z" fill="#4B465C"/>
<path d="M5.35298 11.1392C4.76965 11.1392 4.24432 11.0232 3.77699 10.7912C3.30966 10.5592 2.93513 10.241 2.65341 9.83665C2.37169 9.43229 2.21757 8.97159 2.19105 8.45455H3.38423C3.43063 8.91525 3.63944 9.2964 4.01065 9.59801C4.38518 9.89631 4.83262 10.0455 5.35298 10.0455C5.7706 10.0455 6.14181 9.94768 6.46662 9.75213C6.79474 9.55658 7.05161 9.28812 7.23722 8.94673C7.42614 8.60204 7.5206 8.21259 7.5206 7.77841C7.5206 7.33428 7.42282 6.93821 7.22727 6.5902C7.03504 6.23887 6.76989 5.96212 6.43182 5.75994C6.09375 5.55776 5.70762 5.45502 5.27344 5.4517C4.96188 5.44839 4.64205 5.49645 4.31392 5.59588C3.9858 5.692 3.71567 5.81629 3.50355 5.96875L2.35014 5.82955L2.96662 0.818182H8.25639V1.91193H4.00071L3.64276 4.91477H3.70241C3.91122 4.74905 4.17306 4.61151 4.48793 4.50213C4.80279 4.39276 5.13092 4.33807 5.4723 4.33807C6.09541 4.33807 6.65057 4.48722 7.13778 4.78551C7.62831 5.08049 8.01278 5.48485 8.29119 5.99858C8.57292 6.51231 8.71378 7.09896 8.71378 7.75852C8.71378 8.40814 8.56794 8.98816 8.27628 9.49858C7.98793 10.0057 7.5902 10.4067 7.0831 10.7017C6.57599 10.9934 5.99929 11.1392 5.35298 11.1392ZM14.0098 11.1392C13.2607 11.1392 12.6227 10.9354 12.0957 10.5277C11.5687 10.1167 11.166 9.52178 10.8876 8.7429C10.6092 7.9607 10.47 7.0161 10.47 5.90909C10.47 4.80871 10.6092 3.86908 10.8876 3.0902C11.1693 2.308 11.5737 1.71141 12.1007 1.30043C12.631 0.886126 13.2673 0.678977 14.0098 0.678977C14.7522 0.678977 15.3869 0.886126 15.9139 1.30043C16.4442 1.71141 16.8485 2.308 17.127 3.0902C17.4087 3.86908 17.5495 4.80871 17.5495 5.90909C17.5495 7.0161 17.4103 7.9607 17.1319 8.7429C16.8535 9.52178 16.4508 10.1167 15.9238 10.5277C15.3968 10.9354 14.7588 11.1392 14.0098 11.1392ZM14.0098 10.0455C14.7522 10.0455 15.3289 9.6875 15.7399 8.97159C16.1509 8.25568 16.3564 7.23485 16.3564 5.90909C16.3564 5.02746 16.2619 4.27675 16.073 3.65696C15.8874 3.03717 15.6189 2.56487 15.2676 2.24006C14.9196 1.91525 14.5003 1.75284 14.0098 1.75284C13.274 1.75284 12.6989 2.11577 12.2846 2.84162C11.8703 3.56416 11.6632 4.58665 11.6632 5.90909C11.6632 6.79072 11.756 7.53977 11.9416 8.15625C12.1272 8.77273 12.394 9.24171 12.742 9.56321C13.0933 9.88471 13.5159 10.0455 14.0098 10.0455ZM20.5524 8.21591L20.5325 6.7642H20.7711L24.112 3.36364H25.5637L22.0041 6.96307H21.9047L20.5524 8.21591ZM19.4586 11V0.818182H20.6319V11H19.4586ZM24.3109 11L21.3279 7.22159L22.1632 6.40625L25.8024 11H24.3109Z" fill="white" fill-opacity="0.5"/>
<path d="M1.14151 43.5119V42.4977L5.61594 35.4182H6.35174V36.9892H5.85458L2.4739 42.3386V42.4182H8.49947V43.5119H1.14151ZM5.93413 45.6V43.2037V42.7314V35.4182H7.10742V45.6H5.93413ZM13.6836 45.7392C12.9345 45.7392 12.2965 45.5353 11.7695 45.1277C11.2425 44.7167 10.8398 44.1218 10.5614 43.3429C10.283 42.5607 10.1438 41.6161 10.1438 40.5091C10.1438 39.4087 10.283 38.4691 10.5614 37.6902C10.8432 36.908 11.2475 36.3114 11.7745 35.9004C12.3048 35.4861 12.9412 35.279 13.6836 35.279C14.426 35.279 15.0607 35.4861 15.5877 35.9004C16.118 36.3114 16.5224 36.908 16.8008 37.6902C17.0825 38.4691 17.2234 39.4087 17.2234 40.5091C17.2234 41.6161 17.0842 42.5607 16.8058 43.3429C16.5273 44.1218 16.1246 44.7167 15.5977 45.1277C15.0707 45.5353 14.4326 45.7392 13.6836 45.7392ZM13.6836 44.6454C14.426 44.6454 15.0027 44.2875 15.4137 43.5716C15.8247 42.8557 16.0302 41.8348 16.0302 40.5091C16.0302 39.6274 15.9357 38.8767 15.7468 38.2569C15.5612 37.6371 15.2927 37.1648 14.9414 36.84C14.5934 36.5152 14.1741 36.3528 13.6836 36.3528C12.9478 36.3528 12.3728 36.7157 11.9585 37.4416C11.5442 38.1641 11.337 39.1866 11.337 40.5091C11.337 41.3907 11.4298 42.1397 11.6154 42.7562C11.801 43.3727 12.0678 43.8417 12.4158 44.1632C12.7672 44.4847 13.1897 44.6454 13.6836 44.6454ZM20.2262 42.8159L20.2063 41.3642H20.445L23.7859 37.9636H25.2376L21.6779 41.563H21.5785L20.2262 42.8159ZM19.1325 45.6V35.4182H20.3058V45.6H19.1325ZM23.9847 45.6L21.0018 41.8216L21.837 41.0062L25.4762 45.6H23.9847Z" fill="#4B465C"/>
<path d="M1.14151 43.5119V42.4977L5.61594 35.4182H6.35174V36.9892H5.85458L2.4739 42.3386V42.4182H8.49947V43.5119H1.14151ZM5.93413 45.6V43.2037V42.7314V35.4182H7.10742V45.6H5.93413ZM13.6836 45.7392C12.9345 45.7392 12.2965 45.5353 11.7695 45.1277C11.2425 44.7167 10.8398 44.1218 10.5614 43.3429C10.283 42.5607 10.1438 41.6161 10.1438 40.5091C10.1438 39.4087 10.283 38.4691 10.5614 37.6902C10.8432 36.908 11.2475 36.3114 11.7745 35.9004C12.3048 35.4861 12.9412 35.279 13.6836 35.279C14.426 35.279 15.0607 35.4861 15.5877 35.9004C16.118 36.3114 16.5224 36.908 16.8008 37.6902C17.0825 38.4691 17.2234 39.4087 17.2234 40.5091C17.2234 41.6161 17.0842 42.5607 16.8058 43.3429C16.5273 44.1218 16.1246 44.7167 15.5977 45.1277C15.0707 45.5353 14.4326 45.7392 13.6836 45.7392ZM13.6836 44.6454C14.426 44.6454 15.0027 44.2875 15.4137 43.5716C15.8247 42.8557 16.0302 41.8348 16.0302 40.5091C16.0302 39.6274 15.9357 38.8767 15.7468 38.2569C15.5612 37.6371 15.2927 37.1648 14.9414 36.84C14.5934 36.5152 14.1741 36.3528 13.6836 36.3528C12.9478 36.3528 12.3728 36.7157 11.9585 37.4416C11.5442 38.1641 11.337 39.1866 11.337 40.5091C11.337 41.3907 11.4298 42.1397 11.6154 42.7562C11.801 43.3727 12.0678 43.8417 12.4158 44.1632C12.7672 44.4847 13.1897 44.6454 13.6836 44.6454ZM20.2262 42.8159L20.2063 41.3642H20.445L23.7859 37.9636H25.2376L21.6779 41.563H21.5785L20.2262 42.8159ZM19.1325 45.6V35.4182H20.3058V45.6H19.1325ZM23.9847 45.6L21.0018 41.8216L21.837 41.0062L25.4762 45.6H23.9847Z" fill="white" fill-opacity="0.5"/>
<path d="M4.85467 80.3392C4.19842 80.3392 3.61343 80.2265 3.0997 80.0011C2.58928 79.7758 2.18327 79.4626 1.88166 79.0615C1.58336 78.6572 1.42096 78.1882 1.39444 77.6546H2.64728C2.6738 77.9827 2.78649 78.2661 2.98535 78.5047C3.18422 78.74 3.4444 78.9223 3.76589 79.0516C4.08739 79.1808 4.44369 79.2455 4.83478 79.2455C5.27228 79.2455 5.66007 79.1692 5.99814 79.0168C6.3362 78.8643 6.60136 78.6522 6.79359 78.3804C6.98583 78.1086 7.08194 77.7938 7.08194 77.4358C7.08194 77.0613 6.98914 76.7315 6.80353 76.4465C6.61793 76.1581 6.34615 75.9327 5.98819 75.7703C5.63024 75.6079 5.19274 75.5267 4.67569 75.5267H3.86035V74.433H4.67569C5.08005 74.433 5.43469 74.36 5.73961 74.2142C6.04785 74.0684 6.28815 73.8629 6.46049 73.5977C6.63616 73.3326 6.72399 73.021 6.72399 72.6631C6.72399 72.3184 6.64776 72.0184 6.4953 71.7632C6.34283 71.508 6.1274 71.3092 5.84899 71.1666C5.57389 71.0241 5.24908 70.9529 4.87456 70.9529C4.52323 70.9529 4.19179 71.0175 3.88024 71.1467C3.572 71.2727 3.32011 71.4566 3.12456 71.6986C2.92901 71.9372 2.82295 72.2256 2.80637 72.5636H1.61319C1.63308 72.03 1.79383 71.5627 2.09544 71.1617C2.39705 70.7573 2.79146 70.4424 3.27868 70.2171C3.76921 69.9917 4.30779 69.879 4.89444 69.879C5.52418 69.879 6.06442 70.0066 6.51518 70.2618C6.96594 70.5137 7.31229 70.8468 7.55424 71.2611C7.79619 71.6754 7.91717 72.1228 7.91717 72.6034C7.91717 73.1768 7.76636 73.6657 7.46475 74.07C7.16646 74.4744 6.76045 74.7545 6.24672 74.9102V74.9898C6.88971 75.0958 7.39184 75.3693 7.75311 75.8101C8.11438 76.2476 8.29501 76.7895 8.29501 77.4358C8.29501 77.9893 8.14421 78.4865 7.8426 78.9273C7.5443 79.3648 7.13663 79.7095 6.61958 79.9614C6.10254 80.2133 5.51423 80.3392 4.85467 80.3392ZM13.6494 80.3392C12.9004 80.3392 12.2623 80.1354 11.7354 79.7277C11.2084 79.3167 10.8057 78.7218 10.5273 77.9429C10.2488 77.1607 10.1096 76.2161 10.1096 75.1091C10.1096 74.0087 10.2488 73.0691 10.5273 72.2902C10.809 71.508 11.2133 70.9114 11.7403 70.5004C12.2706 70.0861 12.907 69.879 13.6494 69.879C14.3918 69.879 15.0265 70.0861 15.5535 70.5004C16.0838 70.9114 16.4882 71.508 16.7666 72.2902C17.0483 73.0691 17.1892 74.0087 17.1892 75.1091C17.1892 76.2161 17.05 77.1607 16.7716 77.9429C16.4932 78.7218 16.0905 79.3167 15.5635 79.7277C15.0365 80.1354 14.3985 80.3392 13.6494 80.3392ZM13.6494 79.2455C14.3918 79.2455 14.9685 78.8875 15.3795 78.1716C15.7905 77.4557 15.996 76.4349 15.996 75.1091C15.996 74.2275 15.9015 73.4768 15.7126 72.857C15.527 72.2372 15.2586 71.7649 14.9072 71.4401C14.5592 71.1153 14.1399 70.9529 13.6494 70.9529C12.9136 70.9529 12.3386 71.3158 11.9243 72.0416C11.51 72.7642 11.3028 73.7867 11.3028 75.1091C11.3028 75.9907 11.3956 76.7398 11.5812 77.3563C11.7668 77.9727 12.0336 78.4417 12.3817 78.7632C12.733 79.0847 13.1556 79.2455 13.6494 79.2455ZM20.192 77.4159L20.1721 75.9642H20.4108L23.7517 72.5636H25.2034L21.6437 76.1631H21.5443L20.192 77.4159ZM19.0983 80.2V70.0182H20.2716V80.2H19.0983ZM23.9506 80.2L20.9676 76.4216L21.8028 75.6063L25.442 80.2H23.9506Z" fill="#4B465C"/>
<path d="M4.85467 80.3392C4.19842 80.3392 3.61343 80.2265 3.0997 80.0011C2.58928 79.7758 2.18327 79.4626 1.88166 79.0615C1.58336 78.6572 1.42096 78.1882 1.39444 77.6546H2.64728C2.6738 77.9827 2.78649 78.2661 2.98535 78.5047C3.18422 78.74 3.4444 78.9223 3.76589 79.0516C4.08739 79.1808 4.44369 79.2455 4.83478 79.2455C5.27228 79.2455 5.66007 79.1692 5.99814 79.0168C6.3362 78.8643 6.60136 78.6522 6.79359 78.3804C6.98583 78.1086 7.08194 77.7938 7.08194 77.4358C7.08194 77.0613 6.98914 76.7315 6.80353 76.4465C6.61793 76.1581 6.34615 75.9327 5.98819 75.7703C5.63024 75.6079 5.19274 75.5267 4.67569 75.5267H3.86035V74.433H4.67569C5.08005 74.433 5.43469 74.36 5.73961 74.2142C6.04785 74.0684 6.28815 73.8629 6.46049 73.5977C6.63616 73.3326 6.72399 73.021 6.72399 72.6631C6.72399 72.3184 6.64776 72.0184 6.4953 71.7632C6.34283 71.508 6.1274 71.3092 5.84899 71.1666C5.57389 71.0241 5.24908 70.9529 4.87456 70.9529C4.52323 70.9529 4.19179 71.0175 3.88024 71.1467C3.572 71.2727 3.32011 71.4566 3.12456 71.6986C2.92901 71.9372 2.82295 72.2256 2.80637 72.5636H1.61319C1.63308 72.03 1.79383 71.5627 2.09544 71.1617C2.39705 70.7573 2.79146 70.4424 3.27868 70.2171C3.76921 69.9917 4.30779 69.879 4.89444 69.879C5.52418 69.879 6.06442 70.0066 6.51518 70.2618C6.96594 70.5137 7.31229 70.8468 7.55424 71.2611C7.79619 71.6754 7.91717 72.1228 7.91717 72.6034C7.91717 73.1768 7.76636 73.6657 7.46475 74.07C7.16646 74.4744 6.76045 74.7545 6.24672 74.9102V74.9898C6.88971 75.0958 7.39184 75.3693 7.75311 75.8101C8.11438 76.2476 8.29501 76.7895 8.29501 77.4358C8.29501 77.9893 8.14421 78.4865 7.8426 78.9273C7.5443 79.3648 7.13663 79.7095 6.61958 79.9614C6.10254 80.2133 5.51423 80.3392 4.85467 80.3392ZM13.6494 80.3392C12.9004 80.3392 12.2623 80.1354 11.7354 79.7277C11.2084 79.3167 10.8057 78.7218 10.5273 77.9429C10.2488 77.1607 10.1096 76.2161 10.1096 75.1091C10.1096 74.0087 10.2488 73.0691 10.5273 72.2902C10.809 71.508 11.2133 70.9114 11.7403 70.5004C12.2706 70.0861 12.907 69.879 13.6494 69.879C14.3918 69.879 15.0265 70.0861 15.5535 70.5004C16.0838 70.9114 16.4882 71.508 16.7666 72.2902C17.0483 73.0691 17.1892 74.0087 17.1892 75.1091C17.1892 76.2161 17.05 77.1607 16.7716 77.9429C16.4932 78.7218 16.0905 79.3167 15.5635 79.7277C15.0365 80.1354 14.3985 80.3392 13.6494 80.3392ZM13.6494 79.2455C14.3918 79.2455 14.9685 78.8875 15.3795 78.1716C15.7905 77.4557 15.996 76.4349 15.996 75.1091C15.996 74.2275 15.9015 73.4768 15.7126 72.857C15.527 72.2372 15.2586 71.7649 14.9072 71.4401C14.5592 71.1153 14.1399 70.9529 13.6494 70.9529C12.9136 70.9529 12.3386 71.3158 11.9243 72.0416C11.51 72.7642 11.3028 73.7867 11.3028 75.1091C11.3028 75.9907 11.3956 76.7398 11.5812 77.3563C11.7668 77.9727 12.0336 78.4417 12.3817 78.7632C12.733 79.0847 13.1556 79.2455 13.6494 79.2455ZM20.192 77.4159L20.1721 75.9642H20.4108L23.7517 72.5636H25.2034L21.6437 76.1631H21.5443L20.192 77.4159ZM19.0983 80.2V70.0182H20.2716V80.2H19.0983ZM23.9506 80.2L20.9676 76.4216L21.8028 75.6063L25.442 80.2H23.9506Z" fill="white" fill-opacity="0.5"/>
<path d="M2.13308 114.8V113.905L5.49387 110.226C5.88829 109.795 6.2131 109.421 6.46831 109.103C6.72351 108.781 6.91244 108.479 7.03507 108.198C7.16101 107.913 7.22399 107.614 7.22399 107.303C7.22399 106.945 7.13781 106.635 6.96547 106.373C6.79643 106.111 6.56442 105.909 6.26944 105.767C5.97446 105.624 5.64302 105.553 5.27512 105.553C4.88403 105.553 4.54264 105.634 4.25098 105.796C3.96262 105.956 3.7389 106.179 3.57981 106.468C3.42404 106.756 3.34615 107.094 3.34615 107.482H2.17285C2.17285 106.885 2.3104 106.362 2.58549 105.911C2.86059 105.46 3.23511 105.109 3.70907 104.857C4.18635 104.605 4.72162 104.479 5.3149 104.479C5.91149 104.479 6.44013 104.605 6.90083 104.857C7.36154 105.109 7.7228 105.448 7.98464 105.876C8.24648 106.304 8.3774 106.779 8.3774 107.303C8.3774 107.677 8.30945 108.044 8.17356 108.402C8.04099 108.756 7.80898 109.152 7.47754 109.59C7.14941 110.024 6.69368 110.554 6.11035 111.181L3.82342 113.627V113.706H8.55637V114.8H2.13308ZM13.9307 114.939C13.1816 114.939 12.5436 114.735 12.0166 114.328C11.4896 113.917 11.0869 113.322 10.8085 112.543C10.5301 111.761 10.3909 110.816 10.3909 109.709C10.3909 108.609 10.5301 107.669 10.8085 106.89C11.0902 106.108 11.4946 105.511 12.0216 105.1C12.5519 104.686 13.1882 104.479 13.9307 104.479C14.6731 104.479 15.3078 104.686 15.8348 105.1C16.3651 105.511 16.7694 106.108 17.0479 106.89C17.3296 107.669 17.4704 108.609 17.4704 109.709C17.4704 110.816 17.3312 111.761 17.0528 112.543C16.7744 113.322 16.3717 113.917 15.8447 114.328C15.3177 114.735 14.6797 114.939 13.9307 114.939ZM13.9307 113.845C14.6731 113.845 15.2498 113.487 15.6608 112.772C16.0718 112.056 16.2773 111.035 16.2773 109.709C16.2773 108.827 16.1828 108.077 15.9939 107.457C15.8083 106.837 15.5398 106.365 15.1885 106.04C14.8405 105.715 14.4212 105.553 13.9307 105.553C13.1949 105.553 12.6198 105.916 12.2055 106.642C11.7912 107.364 11.5841 108.387 11.5841 109.709C11.5841 110.591 11.6769 111.34 11.8625 111.956C12.0481 112.573 12.3149 113.042 12.6629 113.363C13.0142 113.685 13.4368 113.845 13.9307 113.845ZM20.4733 112.016L20.4534 110.564H20.692L24.0329 107.164H25.4846L21.925 110.763H21.8256L20.4733 112.016ZM19.3795 114.8V104.618H20.5528V114.8H19.3795ZM24.2318 114.8L21.2488 111.022L22.0841 110.206L25.7233 114.8H24.2318Z" fill="#4B465C"/>
<path d="M2.13308 114.8V113.905L5.49387 110.226C5.88829 109.795 6.2131 109.421 6.46831 109.103C6.72351 108.781 6.91244 108.479 7.03507 108.198C7.16101 107.913 7.22399 107.614 7.22399 107.303C7.22399 106.945 7.13781 106.635 6.96547 106.373C6.79643 106.111 6.56442 105.909 6.26944 105.767C5.97446 105.624 5.64302 105.553 5.27512 105.553C4.88403 105.553 4.54264 105.634 4.25098 105.796C3.96262 105.956 3.7389 106.179 3.57981 106.468C3.42404 106.756 3.34615 107.094 3.34615 107.482H2.17285C2.17285 106.885 2.3104 106.362 2.58549 105.911C2.86059 105.46 3.23511 105.109 3.70907 104.857C4.18635 104.605 4.72162 104.479 5.3149 104.479C5.91149 104.479 6.44013 104.605 6.90083 104.857C7.36154 105.109 7.7228 105.448 7.98464 105.876C8.24648 106.304 8.3774 106.779 8.3774 107.303C8.3774 107.677 8.30945 108.044 8.17356 108.402C8.04099 108.756 7.80898 109.152 7.47754 109.59C7.14941 110.024 6.69368 110.554 6.11035 111.181L3.82342 113.627V113.706H8.55637V114.8H2.13308ZM13.9307 114.939C13.1816 114.939 12.5436 114.735 12.0166 114.328C11.4896 113.917 11.0869 113.322 10.8085 112.543C10.5301 111.761 10.3909 110.816 10.3909 109.709C10.3909 108.609 10.5301 107.669 10.8085 106.89C11.0902 106.108 11.4946 105.511 12.0216 105.1C12.5519 104.686 13.1882 104.479 13.9307 104.479C14.6731 104.479 15.3078 104.686 15.8348 105.1C16.3651 105.511 16.7694 106.108 17.0479 106.89C17.3296 107.669 17.4704 108.609 17.4704 109.709C17.4704 110.816 17.3312 111.761 17.0528 112.543C16.7744 113.322 16.3717 113.917 15.8447 114.328C15.3177 114.735 14.6797 114.939 13.9307 114.939ZM13.9307 113.845C14.6731 113.845 15.2498 113.487 15.6608 112.772C16.0718 112.056 16.2773 111.035 16.2773 109.709C16.2773 108.827 16.1828 108.077 15.9939 107.457C15.8083 106.837 15.5398 106.365 15.1885 106.04C14.8405 105.715 14.4212 105.553 13.9307 105.553C13.1949 105.553 12.6198 105.916 12.2055 106.642C11.7912 107.364 11.5841 108.387 11.5841 109.709C11.5841 110.591 11.6769 111.34 11.8625 111.956C12.0481 112.573 12.3149 113.042 12.6629 113.363C13.0142 113.685 13.4368 113.845 13.9307 113.845ZM20.4733 112.016L20.4534 110.564H20.692L24.0329 107.164H25.4846L21.925 110.763H21.8256L20.4733 112.016ZM19.3795 114.8V104.618H20.5528V114.8H19.3795ZM24.2318 114.8L21.2488 111.022L22.0841 110.206L25.7233 114.8H24.2318Z" fill="white" fill-opacity="0.5"/>
<path d="M7.697 139.218V149.4H6.46404V140.511H6.40439L3.91859 142.161V140.909L6.46404 139.218H7.697ZM13.9463 149.539C13.1972 149.539 12.5592 149.335 12.0322 148.928C11.5052 148.517 11.1025 147.922 10.8241 147.143C10.5457 146.361 10.4065 145.416 10.4065 144.309C10.4065 143.209 10.5457 142.269 10.8241 141.49C11.1059 140.708 11.5102 140.111 12.0372 139.7C12.5675 139.286 13.2039 139.079 13.9463 139.079C14.6887 139.079 15.3234 139.286 15.8504 139.7C16.3807 140.111 16.7851 140.708 17.0635 141.49C17.3452 142.269 17.4861 143.209 17.4861 144.309C17.4861 145.416 17.3469 146.361 17.0684 147.143C16.79 147.922 16.3873 148.517 15.8604 148.928C15.3334 149.335 14.6953 149.539 13.9463 149.539ZM13.9463 148.445C14.6887 148.445 15.2654 148.088 15.6764 147.372C16.0874 146.656 16.2929 145.635 16.2929 144.309C16.2929 143.427 16.1984 142.677 16.0095 142.057C15.8239 141.437 15.5554 140.965 15.2041 140.64C14.8561 140.315 14.4368 140.153 13.9463 140.153C13.2105 140.153 12.6354 140.516 12.2211 141.242C11.8068 141.964 11.5997 142.987 11.5997 144.309C11.5997 145.191 11.6925 145.94 11.8781 146.556C12.0637 147.173 12.3305 147.642 12.6785 147.963C13.0299 148.285 13.4524 148.445 13.9463 148.445ZM20.4889 146.616L20.469 145.164H20.7077L24.0486 141.764H25.5003L21.9406 145.363H21.8412L20.4889 146.616ZM19.3952 149.4V139.218H20.5684V149.4H19.3952ZM24.2474 149.4L21.2645 145.622L22.0997 144.806L25.7389 149.4H24.2474Z" fill="#4B465C"/>
<path d="M7.697 139.218V149.4H6.46404V140.511H6.40439L3.91859 142.161V140.909L6.46404 139.218H7.697ZM13.9463 149.539C13.1972 149.539 12.5592 149.335 12.0322 148.928C11.5052 148.517 11.1025 147.922 10.8241 147.143C10.5457 146.361 10.4065 145.416 10.4065 144.309C10.4065 143.209 10.5457 142.269 10.8241 141.49C11.1059 140.708 11.5102 140.111 12.0372 139.7C12.5675 139.286 13.2039 139.079 13.9463 139.079C14.6887 139.079 15.3234 139.286 15.8504 139.7C16.3807 140.111 16.7851 140.708 17.0635 141.49C17.3452 142.269 17.4861 143.209 17.4861 144.309C17.4861 145.416 17.3469 146.361 17.0684 147.143C16.79 147.922 16.3873 148.517 15.8604 148.928C15.3334 149.335 14.6953 149.539 13.9463 149.539ZM13.9463 148.445C14.6887 148.445 15.2654 148.088 15.6764 147.372C16.0874 146.656 16.2929 145.635 16.2929 144.309C16.2929 143.427 16.1984 142.677 16.0095 142.057C15.8239 141.437 15.5554 140.965 15.2041 140.64C14.8561 140.315 14.4368 140.153 13.9463 140.153C13.2105 140.153 12.6354 140.516 12.2211 141.242C11.8068 141.964 11.5997 142.987 11.5997 144.309C11.5997 145.191 11.6925 145.94 11.8781 146.556C12.0637 147.173 12.3305 147.642 12.6785 147.963C13.0299 148.285 13.4524 148.445 13.9463 148.445ZM20.4889 146.616L20.469 145.164H20.7077L24.0486 141.764H25.5003L21.9406 145.363H21.8412L20.4889 146.616ZM19.3952 149.4V139.218H20.5684V149.4H19.3952ZM24.2474 149.4L21.2645 145.622L22.0997 144.806L25.7389 149.4H24.2474Z" fill="white" fill-opacity="0.5"/>
<path d="M13.6924 184.139C12.9433 184.139 12.3053 183.935 11.7783 183.528C11.2513 183.117 10.8486 182.522 10.5702 181.743C10.2918 180.961 10.1526 180.016 10.1526 178.909C10.1526 177.809 10.2918 176.869 10.5702 176.09C10.8519 175.308 11.2563 174.711 11.7833 174.3C12.3136 173.886 12.95 173.679 13.6924 173.679C14.4348 173.679 15.0695 173.886 15.5965 174.3C16.1268 174.711 16.5312 175.308 16.8096 176.09C17.0913 176.869 17.2322 177.809 17.2322 178.909C17.2322 180.016 17.093 180.961 16.8145 181.743C16.5361 182.522 16.1334 183.117 15.6064 183.528C15.0795 183.935 14.4414 184.139 13.6924 184.139ZM13.6924 183.045C14.4348 183.045 15.0115 182.687 15.4225 181.972C15.8335 181.256 16.039 180.235 16.039 178.909C16.039 178.027 15.9445 177.277 15.7556 176.657C15.57 176.037 15.3015 175.565 14.9502 175.24C14.6022 174.915 14.1829 174.753 13.6924 174.753C12.9566 174.753 12.3815 175.116 11.9672 175.842C11.5529 176.564 11.3458 177.587 11.3458 178.909C11.3458 179.791 11.4386 180.54 11.6242 181.156C11.8098 181.773 12.0766 182.242 12.4246 182.563C12.776 182.885 13.1985 183.045 13.6924 183.045ZM20.235 181.216L20.2151 179.764H20.4537L23.7947 176.364H25.2464L21.6867 179.963H21.5873L20.235 181.216ZM19.1412 184V173.818H20.3145V184H19.1412ZM23.9935 184L21.0106 180.222L21.8458 179.406L25.485 184H23.9935Z" fill="#4B465C"/>
<path d="M13.6924 184.139C12.9433 184.139 12.3053 183.935 11.7783 183.528C11.2513 183.117 10.8486 182.522 10.5702 181.743C10.2918 180.961 10.1526 180.016 10.1526 178.909C10.1526 177.809 10.2918 176.869 10.5702 176.09C10.8519 175.308 11.2563 174.711 11.7833 174.3C12.3136 173.886 12.95 173.679 13.6924 173.679C14.4348 173.679 15.0695 173.886 15.5965 174.3C16.1268 174.711 16.5312 175.308 16.8096 176.09C17.0913 176.869 17.2322 177.809 17.2322 178.909C17.2322 180.016 17.093 180.961 16.8145 181.743C16.5361 182.522 16.1334 183.117 15.6064 183.528C15.0795 183.935 14.4414 184.139 13.6924 184.139ZM13.6924 183.045C14.4348 183.045 15.0115 182.687 15.4225 181.972C15.8335 181.256 16.039 180.235 16.039 178.909C16.039 178.027 15.9445 177.277 15.7556 176.657C15.57 176.037 15.3015 175.565 14.9502 175.24C14.6022 174.915 14.1829 174.753 13.6924 174.753C12.9566 174.753 12.3815 175.116 11.9672 175.842C11.5529 176.564 11.3458 177.587 11.3458 178.909C11.3458 179.791 11.4386 180.54 11.6242 181.156C11.8098 181.773 12.0766 182.242 12.4246 182.563C12.776 182.885 13.1985 183.045 13.6924 183.045ZM20.235 181.216L20.2151 179.764H20.4537L23.7947 176.364H25.2464L21.6867 179.963H21.5873L20.235 181.216ZM19.1412 184V173.818H20.3145V184H19.1412ZM23.9935 184L21.0106 180.222L21.8458 179.406L25.485 184H23.9935Z" fill="white" fill-opacity="0.5"/>
<path d="M171.502 58.0553C102.082 20.0252 49.1131 60.7662 36 103.463V144H358V1C344.158 20.1027 316.475 137.476 171.502 58.0553Z" fill="url(#paint0_linear_1_714)"/>
<path d="M36 103.463C49.1131 60.7662 102.082 20.0252 171.502 58.0553C316.475 137.476 344.158 20.1027 358 1" stroke="#D6568A" stroke-width="2" stroke-linecap="round"/>
<path d="M97.2339 173.818H98.7055L102.166 182.27H102.285L105.745 173.818H107.217V184H106.063V176.264H105.964L102.782 184H101.669L98.4868 176.264H98.3873V184H97.2339V173.818ZM112.632 184.159C111.943 184.159 111.338 183.995 110.818 183.667C110.301 183.339 109.896 182.88 109.604 182.29C109.316 181.7 109.172 181.01 109.172 180.222C109.172 179.426 109.316 178.732 109.604 178.138C109.896 177.545 110.301 177.085 110.818 176.756C111.338 176.428 111.943 176.264 112.632 176.264C113.322 176.264 113.925 176.428 114.442 176.756C114.962 177.085 115.367 177.545 115.655 178.138C115.947 178.732 116.092 179.426 116.092 180.222C116.092 181.01 115.947 181.7 115.655 182.29C115.367 182.88 114.962 183.339 114.442 183.667C113.925 183.995 113.322 184.159 112.632 184.159ZM112.632 183.105C113.156 183.105 113.587 182.971 113.925 182.702C114.263 182.434 114.513 182.081 114.676 181.643C114.838 181.206 114.919 180.732 114.919 180.222C114.919 179.711 114.838 179.236 114.676 178.795C114.513 178.354 114.263 177.998 113.925 177.726C113.587 177.454 113.156 177.318 112.632 177.318C112.109 177.318 111.678 177.454 111.34 177.726C111.002 177.998 110.751 178.354 110.589 178.795C110.426 179.236 110.345 179.711 110.345 180.222C110.345 180.732 110.426 181.206 110.589 181.643C110.751 182.081 111.002 182.434 111.34 182.702C111.678 182.971 112.109 183.105 112.632 183.105ZM119.057 179.406V184H117.883V176.364H119.017V177.557H119.116C119.295 177.169 119.567 176.857 119.932 176.622C120.296 176.384 120.767 176.264 121.344 176.264C121.861 176.264 122.313 176.37 122.701 176.582C123.089 176.791 123.39 177.109 123.606 177.537C123.821 177.961 123.929 178.498 123.929 179.148V184H122.756V179.227C122.756 178.627 122.6 178.16 122.288 177.825C121.977 177.487 121.549 177.318 121.006 177.318C120.631 177.318 120.296 177.399 120.001 177.562C119.71 177.724 119.479 177.961 119.31 178.273C119.141 178.584 119.057 178.962 119.057 179.406Z" fill="#4B465C"/>
<path d="M97.2339 173.818H98.7055L102.166 182.27H102.285L105.745 173.818H107.217V184H106.063V176.264H105.964L102.782 184H101.669L98.4868 176.264H98.3873V184H97.2339V173.818ZM112.632 184.159C111.943 184.159 111.338 183.995 110.818 183.667C110.301 183.339 109.896 182.88 109.604 182.29C109.316 181.7 109.172 181.01 109.172 180.222C109.172 179.426 109.316 178.732 109.604 178.138C109.896 177.545 110.301 177.085 110.818 176.756C111.338 176.428 111.943 176.264 112.632 176.264C113.322 176.264 113.925 176.428 114.442 176.756C114.962 177.085 115.367 177.545 115.655 178.138C115.947 178.732 116.092 179.426 116.092 180.222C116.092 181.01 115.947 181.7 115.655 182.29C115.367 182.88 114.962 183.339 114.442 183.667C113.925 183.995 113.322 184.159 112.632 184.159ZM112.632 183.105C113.156 183.105 113.587 182.971 113.925 182.702C114.263 182.434 114.513 182.081 114.676 181.643C114.838 181.206 114.919 180.732 114.919 180.222C114.919 179.711 114.838 179.236 114.676 178.795C114.513 178.354 114.263 177.998 113.925 177.726C113.587 177.454 113.156 177.318 112.632 177.318C112.109 177.318 111.678 177.454 111.34 177.726C111.002 177.998 110.751 178.354 110.589 178.795C110.426 179.236 110.345 179.711 110.345 180.222C110.345 180.732 110.426 181.206 110.589 181.643C110.751 182.081 111.002 182.434 111.34 182.702C111.678 182.971 112.109 183.105 112.632 183.105ZM119.057 179.406V184H117.883V176.364H119.017V177.557H119.116C119.295 177.169 119.567 176.857 119.932 176.622C120.296 176.384 120.767 176.264 121.344 176.264C121.861 176.264 122.313 176.37 122.701 176.582C123.089 176.791 123.39 177.109 123.606 177.537C123.821 177.961 123.929 178.498 123.929 179.148V184H122.756V179.227C122.756 178.627 122.6 178.16 122.288 177.825C121.977 177.487 121.549 177.318 121.006 177.318C120.631 177.318 120.296 177.399 120.001 177.562C119.71 177.724 119.479 177.961 119.31 178.273C119.141 178.584 119.057 178.962 119.057 179.406Z" fill="white" fill-opacity="0.5"/>
<path d="M140.563 174.912V173.818H148.199V174.912H144.998V184H143.765V174.912H140.563ZM153.716 180.878V176.364H154.89V184H153.716V182.707H153.637C153.458 183.095 153.18 183.425 152.802 183.697C152.424 183.965 151.947 184.099 151.37 184.099C150.893 184.099 150.468 183.995 150.097 183.786C149.726 183.574 149.434 183.256 149.222 182.832C149.01 182.404 148.904 181.866 148.904 181.216V176.364H150.077V181.136C150.077 181.693 150.233 182.137 150.545 182.469C150.859 182.8 151.26 182.966 151.748 182.966C152.039 182.966 152.336 182.891 152.638 182.742C152.943 182.593 153.198 182.364 153.403 182.056C153.612 181.748 153.716 181.355 153.716 180.878ZM160.24 184.159C159.505 184.159 158.87 183.997 158.336 183.672C157.806 183.344 157.397 182.886 157.108 182.3C156.823 181.71 156.681 181.024 156.681 180.241C156.681 179.459 156.823 178.77 157.108 178.173C157.397 177.573 157.798 177.106 158.311 176.771C158.828 176.433 159.432 176.264 160.121 176.264C160.519 176.264 160.912 176.33 161.299 176.463C161.687 176.596 162.04 176.811 162.358 177.109C162.676 177.404 162.93 177.795 163.119 178.283C163.308 178.77 163.402 179.37 163.402 180.082V180.58H157.516V179.565H162.209C162.209 179.134 162.123 178.75 161.951 178.412C161.782 178.074 161.54 177.807 161.225 177.612C160.913 177.416 160.545 177.318 160.121 177.318C159.654 177.318 159.249 177.434 158.908 177.666C158.57 177.895 158.31 178.193 158.127 178.561C157.945 178.929 157.854 179.323 157.854 179.744V180.42C157.854 180.997 157.953 181.486 158.152 181.887C158.355 182.285 158.635 182.588 158.993 182.797C159.35 183.002 159.766 183.105 160.24 183.105C160.549 183.105 160.827 183.062 161.076 182.976C161.328 182.886 161.545 182.754 161.727 182.578C161.909 182.399 162.05 182.177 162.15 181.912L163.283 182.23C163.164 182.615 162.963 182.953 162.681 183.244C162.4 183.533 162.052 183.758 161.637 183.92C161.223 184.08 160.757 184.159 160.24 184.159Z" fill="#4B465C"/>
<path d="M140.563 174.912V173.818H148.199V174.912H144.998V184H143.765V174.912H140.563ZM153.716 180.878V176.364H154.89V184H153.716V182.707H153.637C153.458 183.095 153.18 183.425 152.802 183.697C152.424 183.965 151.947 184.099 151.37 184.099C150.893 184.099 150.468 183.995 150.097 183.786C149.726 183.574 149.434 183.256 149.222 182.832C149.01 182.404 148.904 181.866 148.904 181.216V176.364H150.077V181.136C150.077 181.693 150.233 182.137 150.545 182.469C150.859 182.8 151.26 182.966 151.748 182.966C152.039 182.966 152.336 182.891 152.638 182.742C152.943 182.593 153.198 182.364 153.403 182.056C153.612 181.748 153.716 181.355 153.716 180.878ZM160.24 184.159C159.505 184.159 158.87 183.997 158.336 183.672C157.806 183.344 157.397 182.886 157.108 182.3C156.823 181.71 156.681 181.024 156.681 180.241C156.681 179.459 156.823 178.77 157.108 178.173C157.397 177.573 157.798 177.106 158.311 176.771C158.828 176.433 159.432 176.264 160.121 176.264C160.519 176.264 160.912 176.33 161.299 176.463C161.687 176.596 162.04 176.811 162.358 177.109C162.676 177.404 162.93 177.795 163.119 178.283C163.308 178.77 163.402 179.37 163.402 180.082V180.58H157.516V179.565H162.209C162.209 179.134 162.123 178.75 161.951 178.412C161.782 178.074 161.54 177.807 161.225 177.612C160.913 177.416 160.545 177.318 160.121 177.318C159.654 177.318 159.249 177.434 158.908 177.666C158.57 177.895 158.31 178.193 158.127 178.561C157.945 178.929 157.854 179.323 157.854 179.744V180.42C157.854 180.997 157.953 181.486 158.152 181.887C158.355 182.285 158.635 182.588 158.993 182.797C159.35 183.002 159.766 183.105 160.24 183.105C160.549 183.105 160.827 183.062 161.076 182.976C161.328 182.886 161.545 182.754 161.727 182.578C161.909 182.399 162.05 182.177 162.15 181.912L163.283 182.23C163.164 182.615 162.963 182.953 162.681 183.244C162.4 183.533 162.052 183.758 161.637 183.92C161.223 184.08 160.757 184.159 160.24 184.159Z" fill="white" fill-opacity="0.5"/>
<path d="M182.371 184L179.587 173.818H180.84L182.968 182.111H183.067L185.235 173.818H186.627L188.795 182.111H188.894L191.022 173.818H192.275L189.491 184H188.218L185.971 175.886H185.891L183.644 184H182.371ZM196.143 184.159C195.407 184.159 194.772 183.997 194.239 183.672C193.708 183.344 193.299 182.886 193.011 182.3C192.726 181.71 192.583 181.024 192.583 180.241C192.583 179.459 192.726 178.77 193.011 178.173C193.299 177.573 193.7 177.106 194.214 176.771C194.731 176.433 195.334 176.264 196.023 176.264C196.421 176.264 196.814 176.33 197.202 176.463C197.589 176.596 197.942 176.811 198.261 177.109C198.579 177.404 198.832 177.795 199.021 178.283C199.21 178.77 199.305 179.37 199.305 180.082V180.58H193.418V179.565H198.112C198.112 179.134 198.025 178.75 197.853 178.412C197.684 178.074 197.442 177.807 197.127 177.612C196.816 177.416 196.448 177.318 196.023 177.318C195.556 177.318 195.152 177.434 194.81 177.666C194.472 177.895 194.212 178.193 194.03 178.561C193.848 178.929 193.756 179.323 193.756 179.744V180.42C193.756 180.997 193.856 181.486 194.055 181.887C194.257 182.285 194.537 182.588 194.895 182.797C195.253 183.002 195.669 183.105 196.143 183.105C196.451 183.105 196.729 183.062 196.978 182.976C197.23 182.886 197.447 182.754 197.629 182.578C197.812 182.399 197.952 182.177 198.052 181.912L199.185 182.23C199.066 182.615 198.866 182.953 198.584 183.244C198.302 183.533 197.954 183.758 197.54 183.92C197.125 184.08 196.66 184.159 196.143 184.159ZM203.973 184.159C203.337 184.159 202.775 183.998 202.288 183.677C201.8 183.352 201.419 182.895 201.144 182.305C200.869 181.711 200.732 181.01 200.732 180.202C200.732 179.4 200.869 178.704 201.144 178.114C201.419 177.524 201.802 177.068 202.293 176.746C202.783 176.425 203.35 176.264 203.993 176.264C204.49 176.264 204.883 176.347 205.171 176.513C205.463 176.675 205.685 176.861 205.837 177.07C205.993 177.275 206.114 177.444 206.2 177.577H206.3V173.818H207.473V184H206.339V182.827H206.2C206.114 182.966 205.991 183.142 205.832 183.354C205.673 183.562 205.446 183.75 205.151 183.915C204.856 184.078 204.464 184.159 203.973 184.159ZM204.132 183.105C204.603 183.105 205 182.982 205.325 182.737C205.65 182.489 205.897 182.146 206.066 181.708C206.235 181.267 206.32 180.759 206.32 180.182C206.32 179.612 206.237 179.113 206.071 178.685C205.905 178.254 205.66 177.92 205.335 177.681C205.01 177.439 204.609 177.318 204.132 177.318C203.635 177.318 203.221 177.446 202.889 177.701C202.561 177.953 202.314 178.296 202.148 178.73C201.986 179.161 201.905 179.645 201.905 180.182C201.905 180.725 201.988 181.219 202.153 181.663C202.322 182.104 202.571 182.455 202.899 182.717C203.231 182.976 203.642 183.105 204.132 183.105Z" fill="#4B465C"/>
<path d="M182.371 184L179.587 173.818H180.84L182.968 182.111H183.067L185.235 173.818H186.627L188.795 182.111H188.894L191.022 173.818H192.275L189.491 184H188.218L185.971 175.886H185.891L183.644 184H182.371ZM196.143 184.159C195.407 184.159 194.772 183.997 194.239 183.672C193.708 183.344 193.299 182.886 193.011 182.3C192.726 181.71 192.583 181.024 192.583 180.241C192.583 179.459 192.726 178.77 193.011 178.173C193.299 177.573 193.7 177.106 194.214 176.771C194.731 176.433 195.334 176.264 196.023 176.264C196.421 176.264 196.814 176.33 197.202 176.463C197.589 176.596 197.942 176.811 198.261 177.109C198.579 177.404 198.832 177.795 199.021 178.283C199.21 178.77 199.305 179.37 199.305 180.082V180.58H193.418V179.565H198.112C198.112 179.134 198.025 178.75 197.853 178.412C197.684 178.074 197.442 177.807 197.127 177.612C196.816 177.416 196.448 177.318 196.023 177.318C195.556 177.318 195.152 177.434 194.81 177.666C194.472 177.895 194.212 178.193 194.03 178.561C193.848 178.929 193.756 179.323 193.756 179.744V180.42C193.756 180.997 193.856 181.486 194.055 181.887C194.257 182.285 194.537 182.588 194.895 182.797C195.253 183.002 195.669 183.105 196.143 183.105C196.451 183.105 196.729 183.062 196.978 182.976C197.23 182.886 197.447 182.754 197.629 182.578C197.812 182.399 197.952 182.177 198.052 181.912L199.185 182.23C199.066 182.615 198.866 182.953 198.584 183.244C198.302 183.533 197.954 183.758 197.54 183.92C197.125 184.08 196.66 184.159 196.143 184.159ZM203.973 184.159C203.337 184.159 202.775 183.998 202.288 183.677C201.8 183.352 201.419 182.895 201.144 182.305C200.869 181.711 200.732 181.01 200.732 180.202C200.732 179.4 200.869 178.704 201.144 178.114C201.419 177.524 201.802 177.068 202.293 176.746C202.783 176.425 203.35 176.264 203.993 176.264C204.49 176.264 204.883 176.347 205.171 176.513C205.463 176.675 205.685 176.861 205.837 177.07C205.993 177.275 206.114 177.444 206.2 177.577H206.3V173.818H207.473V184H206.339V182.827H206.2C206.114 182.966 205.991 183.142 205.832 183.354C205.673 183.562 205.446 183.75 205.151 183.915C204.856 184.078 204.464 184.159 203.973 184.159ZM204.132 183.105C204.603 183.105 205 182.982 205.325 182.737C205.65 182.489 205.897 182.146 206.066 181.708C206.235 181.267 206.32 180.759 206.32 180.182C206.32 179.612 206.237 179.113 206.071 178.685C205.905 178.254 205.66 177.92 205.335 177.681C205.01 177.439 204.609 177.318 204.132 177.318C203.635 177.318 203.221 177.446 202.889 177.701C202.561 177.953 202.314 178.296 202.148 178.73C201.986 179.161 201.905 179.645 201.905 180.182C201.905 180.725 201.988 181.219 202.153 181.663C202.322 182.104 202.571 182.455 202.899 182.717C203.231 182.976 203.642 183.105 204.132 183.105Z" fill="white" fill-opacity="0.5"/>
<path d="M224.482 174.912V173.818H232.118V174.912H228.916V184H227.684V174.912H224.482ZM235.035 179.406V184H233.862V173.818H235.035V177.557H235.135C235.314 177.162 235.582 176.849 235.94 176.617C236.301 176.382 236.782 176.264 237.382 176.264C237.902 176.264 238.358 176.369 238.749 176.577C239.14 176.783 239.443 177.099 239.659 177.527C239.878 177.951 239.987 178.491 239.987 179.148V184H238.814V179.227C238.814 178.621 238.656 178.152 238.341 177.82C238.03 177.486 237.597 177.318 237.044 177.318C236.659 177.318 236.315 177.399 236.01 177.562C235.708 177.724 235.469 177.961 235.294 178.273C235.121 178.584 235.035 178.962 235.035 179.406ZM246.946 180.878V176.364H248.119V184H246.946V182.707H246.866C246.687 183.095 246.409 183.425 246.031 183.697C245.653 183.965 245.176 184.099 244.599 184.099C244.122 184.099 243.698 183.995 243.327 183.786C242.955 183.574 242.664 183.256 242.452 182.832C242.239 182.404 242.133 181.866 242.133 181.216V176.364H243.307V181.136C243.307 181.693 243.463 182.137 243.774 182.469C244.089 182.8 244.49 182.966 244.977 182.966C245.269 182.966 245.565 182.891 245.867 182.742C246.172 182.593 246.427 182.364 246.633 182.056C246.842 181.748 246.946 181.355 246.946 180.878Z" fill="#4B465C"/>
<path d="M224.482 174.912V173.818H232.118V174.912H228.916V184H227.684V174.912H224.482ZM235.035 179.406V184H233.862V173.818H235.035V177.557H235.135C235.314 177.162 235.582 176.849 235.94 176.617C236.301 176.382 236.782 176.264 237.382 176.264C237.902 176.264 238.358 176.369 238.749 176.577C239.14 176.783 239.443 177.099 239.659 177.527C239.878 177.951 239.987 178.491 239.987 179.148V184H238.814V179.227C238.814 178.621 238.656 178.152 238.341 177.82C238.03 177.486 237.597 177.318 237.044 177.318C236.659 177.318 236.315 177.399 236.01 177.562C235.708 177.724 235.469 177.961 235.294 178.273C235.121 178.584 235.035 178.962 235.035 179.406ZM246.946 180.878V176.364H248.119V184H246.946V182.707H246.866C246.687 183.095 246.409 183.425 246.031 183.697C245.653 183.965 245.176 184.099 244.599 184.099C244.122 184.099 243.698 183.995 243.327 183.786C242.955 183.574 242.664 183.256 242.452 182.832C242.239 182.404 242.133 181.866 242.133 181.216V176.364H243.307V181.136C243.307 181.693 243.463 182.137 243.774 182.469C244.089 182.8 244.49 182.966 244.977 182.966C245.269 182.966 245.565 182.891 245.867 182.742C246.172 182.593 246.427 182.364 246.633 182.056C246.842 181.748 246.946 181.355 246.946 180.878Z" fill="white" fill-opacity="0.5"/>
<path d="M265.4 184V173.818H271.505V174.912H266.633V178.352H271.048V179.446H266.633V184H265.4ZM273.376 184V176.364H274.509V177.517H274.589C274.728 177.139 274.98 176.833 275.344 176.597C275.709 176.362 276.12 176.244 276.577 176.244C276.664 176.244 276.771 176.246 276.9 176.249C277.03 176.253 277.128 176.258 277.194 176.264V177.457C277.154 177.447 277.063 177.433 276.92 177.413C276.781 177.389 276.634 177.378 276.478 177.378C276.107 177.378 275.775 177.456 275.484 177.612C275.195 177.764 274.967 177.976 274.797 178.248C274.632 178.516 274.549 178.823 274.549 179.168V184H273.376ZM278.585 184V176.364H279.758V184H278.585ZM279.181 175.091C278.953 175.091 278.755 175.013 278.59 174.857C278.427 174.701 278.346 174.514 278.346 174.295C278.346 174.077 278.427 173.889 278.59 173.734C278.755 173.578 278.953 173.5 279.181 173.5C279.41 173.5 279.605 173.578 279.768 173.734C279.934 173.889 280.016 174.077 280.016 174.295C280.016 174.514 279.934 174.701 279.768 174.857C279.605 175.013 279.41 175.091 279.181 175.091Z" fill="#4B465C"/>
<path d="M265.4 184V173.818H271.505V174.912H266.633V178.352H271.048V179.446H266.633V184H265.4ZM273.376 184V176.364H274.509V177.517H274.589C274.728 177.139 274.98 176.833 275.344 176.597C275.709 176.362 276.12 176.244 276.577 176.244C276.664 176.244 276.771 176.246 276.9 176.249C277.03 176.253 277.128 176.258 277.194 176.264V177.457C277.154 177.447 277.063 177.433 276.92 177.413C276.781 177.389 276.634 177.378 276.478 177.378C276.107 177.378 275.775 177.456 275.484 177.612C275.195 177.764 274.967 177.976 274.797 178.248C274.632 178.516 274.549 178.823 274.549 179.168V184H273.376ZM278.585 184V176.364H279.758V184H278.585ZM279.181 175.091C278.953 175.091 278.755 175.013 278.59 174.857C278.427 174.701 278.346 174.514 278.346 174.295C278.346 174.077 278.427 173.889 278.59 173.734C278.755 173.578 278.953 173.5 279.181 173.5C279.41 173.5 279.605 173.578 279.768 173.734C279.934 173.889 280.016 174.077 280.016 174.295C280.016 174.514 279.934 174.701 279.768 174.857C279.605 175.013 279.41 175.091 279.181 175.091Z" fill="white" fill-opacity="0.5"/>
<path d="M302.35 176.364C302.29 175.86 302.048 175.469 301.624 175.19C301.2 174.912 300.68 174.773 300.063 174.773C299.612 174.773 299.218 174.846 298.88 174.991C298.545 175.137 298.283 175.338 298.094 175.593C297.909 175.848 297.816 176.138 297.816 176.463C297.816 176.735 297.881 176.969 298.01 177.164C298.142 177.356 298.311 177.517 298.517 177.646C298.722 177.772 298.938 177.877 299.163 177.96C299.389 178.039 299.596 178.104 299.785 178.153L300.819 178.432C301.084 178.501 301.379 178.598 301.704 178.72C302.032 178.843 302.345 179.01 302.643 179.222C302.945 179.431 303.193 179.7 303.389 180.028C303.585 180.356 303.682 180.759 303.682 181.236C303.682 181.786 303.538 182.283 303.25 182.727C302.965 183.171 302.547 183.524 301.997 183.786C301.45 184.048 300.786 184.179 300.003 184.179C299.274 184.179 298.643 184.061 298.109 183.826C297.579 183.591 297.161 183.263 296.856 182.842C296.555 182.421 296.384 181.932 296.344 181.375H297.617C297.65 181.759 297.779 182.078 298.005 182.33C298.233 182.578 298.522 182.764 298.87 182.886C299.221 183.006 299.599 183.065 300.003 183.065C300.474 183.065 300.897 182.989 301.271 182.837C301.646 182.681 301.942 182.465 302.161 182.19C302.38 181.912 302.489 181.587 302.489 181.216C302.489 180.878 302.395 180.603 302.206 180.391C302.017 180.179 301.768 180.006 301.46 179.874C301.152 179.741 300.819 179.625 300.461 179.526L299.208 179.168C298.412 178.939 297.783 178.612 297.319 178.188C296.855 177.764 296.623 177.209 296.623 176.523C296.623 175.953 296.777 175.455 297.085 175.031C297.397 174.604 297.814 174.272 298.338 174.037C298.865 173.798 299.453 173.679 300.103 173.679C300.759 173.679 301.342 173.797 301.853 174.032C302.363 174.264 302.768 174.582 303.066 174.987C303.367 175.391 303.527 175.85 303.543 176.364H302.35ZM307.798 184.179C307.314 184.179 306.875 184.088 306.48 183.906C306.086 183.72 305.772 183.453 305.54 183.105C305.308 182.754 305.192 182.33 305.192 181.832C305.192 181.395 305.279 181.04 305.451 180.768C305.623 180.493 305.854 180.278 306.142 180.122C306.43 179.966 306.749 179.85 307.097 179.774C307.448 179.695 307.801 179.632 308.156 179.585C308.62 179.526 308.996 179.481 309.284 179.451C309.576 179.418 309.788 179.363 309.92 179.287C310.056 179.211 310.124 179.078 310.124 178.889V178.849C310.124 178.359 309.99 177.978 309.722 177.706C309.456 177.434 309.054 177.298 308.513 177.298C307.953 177.298 307.514 177.421 307.196 177.666C306.878 177.911 306.654 178.173 306.525 178.452L305.411 178.054C305.61 177.59 305.875 177.229 306.207 176.97C306.541 176.708 306.906 176.526 307.3 176.423C307.698 176.317 308.089 176.264 308.474 176.264C308.719 176.264 309.001 176.294 309.319 176.354C309.64 176.41 309.95 176.528 310.249 176.707C310.55 176.886 310.8 177.156 310.999 177.517C311.198 177.878 311.298 178.362 311.298 178.969V184H310.124V182.966H310.065C309.985 183.132 309.853 183.309 309.667 183.498C309.481 183.687 309.234 183.848 308.926 183.98C308.618 184.113 308.242 184.179 307.798 184.179ZM307.977 183.125C308.441 183.125 308.832 183.034 309.15 182.852C309.471 182.669 309.713 182.434 309.876 182.146C310.041 181.857 310.124 181.554 310.124 181.236V180.162C310.075 180.222 309.965 180.276 309.796 180.326C309.63 180.372 309.438 180.414 309.219 180.45C309.004 180.483 308.794 180.513 308.588 180.54C308.386 180.563 308.222 180.583 308.096 180.599C307.791 180.639 307.506 180.704 307.241 180.793C306.979 180.879 306.767 181.01 306.604 181.186C306.445 181.358 306.366 181.594 306.366 181.892C306.366 182.3 306.517 182.608 306.818 182.817C307.123 183.022 307.509 183.125 307.977 183.125ZM316.76 176.364V177.358H312.803V176.364H316.76ZM313.956 174.534H315.129V181.812C315.129 182.144 315.177 182.393 315.274 182.558C315.373 182.721 315.499 182.83 315.651 182.886C315.807 182.939 315.971 182.966 316.144 182.966C316.273 182.966 316.379 182.959 316.462 182.946C316.545 182.929 316.611 182.916 316.661 182.906L316.899 183.96C316.82 183.99 316.709 184.02 316.566 184.05C316.424 184.083 316.243 184.099 316.024 184.099C315.693 184.099 315.368 184.028 315.05 183.886C314.735 183.743 314.473 183.526 314.264 183.234C314.059 182.943 313.956 182.575 313.956 182.131V174.534Z" fill="#4B465C"/>
<path d="M302.35 176.364C302.29 175.86 302.048 175.469 301.624 175.19C301.2 174.912 300.68 174.773 300.063 174.773C299.612 174.773 299.218 174.846 298.88 174.991C298.545 175.137 298.283 175.338 298.094 175.593C297.909 175.848 297.816 176.138 297.816 176.463C297.816 176.735 297.881 176.969 298.01 177.164C298.142 177.356 298.311 177.517 298.517 177.646C298.722 177.772 298.938 177.877 299.163 177.96C299.389 178.039 299.596 178.104 299.785 178.153L300.819 178.432C301.084 178.501 301.379 178.598 301.704 178.72C302.032 178.843 302.345 179.01 302.643 179.222C302.945 179.431 303.193 179.7 303.389 180.028C303.585 180.356 303.682 180.759 303.682 181.236C303.682 181.786 303.538 182.283 303.25 182.727C302.965 183.171 302.547 183.524 301.997 183.786C301.45 184.048 300.786 184.179 300.003 184.179C299.274 184.179 298.643 184.061 298.109 183.826C297.579 183.591 297.161 183.263 296.856 182.842C296.555 182.421 296.384 181.932 296.344 181.375H297.617C297.65 181.759 297.779 182.078 298.005 182.33C298.233 182.578 298.522 182.764 298.87 182.886C299.221 183.006 299.599 183.065 300.003 183.065C300.474 183.065 300.897 182.989 301.271 182.837C301.646 182.681 301.942 182.465 302.161 182.19C302.38 181.912 302.489 181.587 302.489 181.216C302.489 180.878 302.395 180.603 302.206 180.391C302.017 180.179 301.768 180.006 301.46 179.874C301.152 179.741 300.819 179.625 300.461 179.526L299.208 179.168C298.412 178.939 297.783 178.612 297.319 178.188C296.855 177.764 296.623 177.209 296.623 176.523C296.623 175.953 296.777 175.455 297.085 175.031C297.397 174.604 297.814 174.272 298.338 174.037C298.865 173.798 299.453 173.679 300.103 173.679C300.759 173.679 301.342 173.797 301.853 174.032C302.363 174.264 302.768 174.582 303.066 174.987C303.367 175.391 303.527 175.85 303.543 176.364H302.35ZM307.798 184.179C307.314 184.179 306.875 184.088 306.48 183.906C306.086 183.72 305.772 183.453 305.54 183.105C305.308 182.754 305.192 182.33 305.192 181.832C305.192 181.395 305.279 181.04 305.451 180.768C305.623 180.493 305.854 180.278 306.142 180.122C306.43 179.966 306.749 179.85 307.097 179.774C307.448 179.695 307.801 179.632 308.156 179.585C308.62 179.526 308.996 179.481 309.284 179.451C309.576 179.418 309.788 179.363 309.92 179.287C310.056 179.211 310.124 179.078 310.124 178.889V178.849C310.124 178.359 309.99 177.978 309.722 177.706C309.456 177.434 309.054 177.298 308.513 177.298C307.953 177.298 307.514 177.421 307.196 177.666C306.878 177.911 306.654 178.173 306.525 178.452L305.411 178.054C305.61 177.59 305.875 177.229 306.207 176.97C306.541 176.708 306.906 176.526 307.3 176.423C307.698 176.317 308.089 176.264 308.474 176.264C308.719 176.264 309.001 176.294 309.319 176.354C309.64 176.41 309.95 176.528 310.249 176.707C310.55 176.886 310.8 177.156 310.999 177.517C311.198 177.878 311.298 178.362 311.298 178.969V184H310.124V182.966H310.065C309.985 183.132 309.853 183.309 309.667 183.498C309.481 183.687 309.234 183.848 308.926 183.98C308.618 184.113 308.242 184.179 307.798 184.179ZM307.977 183.125C308.441 183.125 308.832 183.034 309.15 182.852C309.471 182.669 309.713 182.434 309.876 182.146C310.041 181.857 310.124 181.554 310.124 181.236V180.162C310.075 180.222 309.965 180.276 309.796 180.326C309.63 180.372 309.438 180.414 309.219 180.45C309.004 180.483 308.794 180.513 308.588 180.54C308.386 180.563 308.222 180.583 308.096 180.599C307.791 180.639 307.506 180.704 307.241 180.793C306.979 180.879 306.767 181.01 306.604 181.186C306.445 181.358 306.366 181.594 306.366 181.892C306.366 182.3 306.517 182.608 306.818 182.817C307.123 183.022 307.509 183.125 307.977 183.125ZM316.76 176.364V177.358H312.803V176.364H316.76ZM313.956 174.534H315.129V181.812C315.129 182.144 315.177 182.393 315.274 182.558C315.373 182.721 315.499 182.83 315.651 182.886C315.807 182.939 315.971 182.966 316.144 182.966C316.273 182.966 316.379 182.959 316.462 182.946C316.545 182.929 316.611 182.916 316.661 182.906L316.899 183.96C316.82 183.99 316.709 184.02 316.566 184.05C316.424 184.083 316.243 184.099 316.024 184.099C315.693 184.099 315.368 184.028 315.05 183.886C314.735 183.743 314.473 183.526 314.264 183.234C314.059 182.943 313.956 182.575 313.956 182.131V174.534Z" fill="white" fill-opacity="0.5"/>
<path d="M339.175 176.364C339.116 175.86 338.874 175.469 338.449 175.19C338.025 174.912 337.505 174.773 336.888 174.773C336.437 174.773 336.043 174.846 335.705 174.991C335.37 175.137 335.108 175.338 334.919 175.593C334.734 175.848 334.641 176.138 334.641 176.463C334.641 176.735 334.706 176.969 334.835 177.164C334.968 177.356 335.137 177.517 335.342 177.646C335.548 177.772 335.763 177.877 335.988 177.96C336.214 178.039 336.421 178.104 336.61 178.153L337.644 178.432C337.909 178.501 338.204 178.598 338.529 178.72C338.857 178.843 339.17 179.01 339.468 179.222C339.77 179.431 340.019 179.7 340.214 180.028C340.41 180.356 340.508 180.759 340.508 181.236C340.508 181.786 340.363 182.283 340.075 182.727C339.79 183.171 339.372 183.524 338.822 183.786C338.275 184.048 337.611 184.179 336.829 184.179C336.099 184.179 335.468 184.061 334.934 183.826C334.404 183.591 333.986 183.263 333.682 182.842C333.38 182.421 333.209 181.932 333.169 181.375H334.442C334.475 181.759 334.605 182.078 334.83 182.33C335.059 182.578 335.347 182.764 335.695 182.886C336.046 183.006 336.424 183.065 336.829 183.065C337.299 183.065 337.722 182.989 338.096 182.837C338.471 182.681 338.767 182.465 338.986 182.19C339.205 181.912 339.314 181.587 339.314 181.216C339.314 180.878 339.22 180.603 339.031 180.391C338.842 180.179 338.593 180.006 338.285 179.874C337.977 179.741 337.644 179.625 337.286 179.526L336.033 179.168C335.238 178.939 334.608 178.612 334.144 178.188C333.68 177.764 333.448 177.209 333.448 176.523C333.448 175.953 333.602 175.455 333.91 175.031C334.222 174.604 334.639 174.272 335.163 174.037C335.69 173.798 336.278 173.679 336.928 173.679C337.584 173.679 338.168 173.797 338.678 174.032C339.188 174.264 339.593 174.582 339.891 174.987C340.193 175.391 340.352 175.85 340.368 176.364H339.175ZM347.188 180.878V176.364H348.361V184H347.188V182.707H347.109C346.93 183.095 346.651 183.425 346.273 183.697C345.896 183.965 345.418 184.099 344.842 184.099C344.364 184.099 343.94 183.995 343.569 183.786C343.198 183.574 342.906 183.256 342.694 182.832C342.482 182.404 342.376 181.866 342.376 181.216V176.364H343.549V181.136C343.549 181.693 343.705 182.137 344.016 182.469C344.331 182.8 344.732 182.966 345.219 182.966C345.511 182.966 345.808 182.891 346.109 182.742C346.414 182.593 346.669 182.364 346.875 182.056C347.084 181.748 347.188 181.355 347.188 180.878ZM351.684 179.406V184H350.51V176.364H351.644V177.557H351.743C351.922 177.169 352.194 176.857 352.559 176.622C352.923 176.384 353.394 176.264 353.971 176.264C354.488 176.264 354.94 176.37 355.328 176.582C355.716 176.791 356.017 177.109 356.233 177.537C356.448 177.961 356.556 178.498 356.556 179.148V184H355.383V179.227C355.383 178.627 355.227 178.16 354.915 177.825C354.604 177.487 354.176 177.318 353.633 177.318C353.258 177.318 352.923 177.399 352.628 177.562C352.337 177.724 352.106 177.961 351.937 178.273C351.768 178.584 351.684 178.962 351.684 179.406Z" fill="#4B465C"/>
<path d="M339.175 176.364C339.116 175.86 338.874 175.469 338.449 175.19C338.025 174.912 337.505 174.773 336.888 174.773C336.437 174.773 336.043 174.846 335.705 174.991C335.37 175.137 335.108 175.338 334.919 175.593C334.734 175.848 334.641 176.138 334.641 176.463C334.641 176.735 334.706 176.969 334.835 177.164C334.968 177.356 335.137 177.517 335.342 177.646C335.548 177.772 335.763 177.877 335.988 177.96C336.214 178.039 336.421 178.104 336.61 178.153L337.644 178.432C337.909 178.501 338.204 178.598 338.529 178.72C338.857 178.843 339.17 179.01 339.468 179.222C339.77 179.431 340.019 179.7 340.214 180.028C340.41 180.356 340.508 180.759 340.508 181.236C340.508 181.786 340.363 182.283 340.075 182.727C339.79 183.171 339.372 183.524 338.822 183.786C338.275 184.048 337.611 184.179 336.829 184.179C336.099 184.179 335.468 184.061 334.934 183.826C334.404 183.591 333.986 183.263 333.682 182.842C333.38 182.421 333.209 181.932 333.169 181.375H334.442C334.475 181.759 334.605 182.078 334.83 182.33C335.059 182.578 335.347 182.764 335.695 182.886C336.046 183.006 336.424 183.065 336.829 183.065C337.299 183.065 337.722 182.989 338.096 182.837C338.471 182.681 338.767 182.465 338.986 182.19C339.205 181.912 339.314 181.587 339.314 181.216C339.314 180.878 339.22 180.603 339.031 180.391C338.842 180.179 338.593 180.006 338.285 179.874C337.977 179.741 337.644 179.625 337.286 179.526L336.033 179.168C335.238 178.939 334.608 178.612 334.144 178.188C333.68 177.764 333.448 177.209 333.448 176.523C333.448 175.953 333.602 175.455 333.91 175.031C334.222 174.604 334.639 174.272 335.163 174.037C335.69 173.798 336.278 173.679 336.928 173.679C337.584 173.679 338.168 173.797 338.678 174.032C339.188 174.264 339.593 174.582 339.891 174.987C340.193 175.391 340.352 175.85 340.368 176.364H339.175ZM347.188 180.878V176.364H348.361V184H347.188V182.707H347.109C346.93 183.095 346.651 183.425 346.273 183.697C345.896 183.965 345.418 184.099 344.842 184.099C344.364 184.099 343.94 183.995 343.569 183.786C343.198 183.574 342.906 183.256 342.694 182.832C342.482 182.404 342.376 181.866 342.376 181.216V176.364H343.549V181.136C343.549 181.693 343.705 182.137 344.016 182.469C344.331 182.8 344.732 182.966 345.219 182.966C345.511 182.966 345.808 182.891 346.109 182.742C346.414 182.593 346.669 182.364 346.875 182.056C347.084 181.748 347.188 181.355 347.188 180.878ZM351.684 179.406V184H350.51V176.364H351.644V177.557H351.743C351.922 177.169 352.194 176.857 352.559 176.622C352.923 176.384 353.394 176.264 353.971 176.264C354.488 176.264 354.94 176.37 355.328 176.582C355.716 176.791 356.017 177.109 356.233 177.537C356.448 177.961 356.556 178.498 356.556 179.148V184H355.383V179.227C355.383 178.627 355.227 178.16 354.915 177.825C354.604 177.487 354.176 177.318 353.633 177.318C353.258 177.318 352.923 177.399 352.628 177.562C352.337 177.724 352.106 177.961 351.937 178.273C351.768 178.584 351.684 178.962 351.684 179.406Z" fill="white" fill-opacity="0.5"/>
<defs>
<linearGradient id="paint0_linear_1_714" x1="197" y1="1" x2="197" y2="144" gradientUnits="userSpaceOnUse">
<stop stop-color="#FF648A"/>
<stop offset="0.0001" stop-color="#FFE6EC"/>
<stop offset="1" stop-color="#FFFAFB" stop-opacity="0.79"/>
</linearGradient>
</defs>
</svg>
