<svg width="277" height="279" viewBox="0 0 277 279" fill="none" xmlns="http://www.w3.org/2000/svg">
<path opacity="0.8" d="M185.384 166V156.601H191.455L191.448 157.81H186.781V160.663H190.948V161.853H186.775V164.771L191.565 164.778V166H185.384ZM194.669 166.091C194.271 166.091 193.95 166.039 193.707 165.935C193.469 165.831 193.287 165.692 193.161 165.519C193.036 165.341 192.951 165.142 192.908 164.921C192.869 164.696 192.849 164.464 192.849 164.225V156.341H194.221V164.082C194.221 164.394 194.281 164.633 194.403 164.797C194.528 164.962 194.719 165.055 194.975 165.077L195.326 165.09V165.974C195.217 166.009 195.105 166.037 194.988 166.059C194.875 166.08 194.769 166.091 194.669 166.091ZM197.502 162.964C197.502 163.367 197.567 163.729 197.697 164.05C197.831 164.366 198.032 164.618 198.301 164.804C198.57 164.986 198.903 165.077 199.302 165.077C199.701 165.077 200.045 164.986 200.336 164.804C200.63 164.622 200.823 164.351 200.914 163.991H202.201C202.123 164.451 201.939 164.841 201.649 165.161C201.363 165.482 201.016 165.725 200.609 165.889C200.201 166.05 199.774 166.13 199.328 166.13C198.691 166.13 198.13 165.994 197.645 165.72C197.159 165.443 196.78 165.049 196.507 164.537C196.238 164.026 196.104 163.417 196.104 162.711C196.104 162.013 196.228 161.398 196.475 160.865C196.722 160.328 197.079 159.907 197.547 159.604C198.015 159.301 198.578 159.149 199.237 159.149C199.887 159.149 200.433 159.288 200.875 159.565C201.321 159.842 201.659 160.232 201.889 160.735C202.119 161.233 202.234 161.823 202.234 162.503V162.964H197.502ZM197.502 162.061H200.908C200.908 161.71 200.847 161.391 200.726 161.105C200.604 160.815 200.418 160.588 200.167 160.423C199.92 160.254 199.608 160.169 199.231 160.169C198.845 160.169 198.524 160.263 198.269 160.449C198.013 160.635 197.82 160.874 197.69 161.164C197.564 161.454 197.502 161.753 197.502 162.061ZM206.263 159.149C206.766 159.149 207.212 159.249 207.602 159.448C207.996 159.643 208.315 159.916 208.557 160.267C208.8 160.618 208.947 161.027 208.999 161.495H207.797C207.758 161.274 207.673 161.069 207.543 160.878C207.418 160.687 207.247 160.536 207.03 160.423C206.818 160.306 206.564 160.247 206.269 160.247C205.732 160.247 205.294 160.445 204.956 160.839C204.618 161.233 204.449 161.838 204.449 162.652C204.449 163.398 204.605 163.991 204.917 164.433C205.234 164.875 205.693 165.096 206.295 165.096C206.586 165.096 206.837 165.036 207.049 164.914C207.266 164.793 207.437 164.637 207.563 164.446C207.689 164.256 207.769 164.059 207.803 163.855H208.986C208.939 164.306 208.791 164.702 208.544 165.045C208.302 165.387 207.983 165.653 207.589 165.844C207.199 166.035 206.757 166.13 206.263 166.13C205.652 166.13 205.11 165.998 204.638 165.733C204.166 165.465 203.795 165.073 203.526 164.557C203.262 164.037 203.13 163.406 203.13 162.665C203.13 161.968 203.253 161.355 203.5 160.826C203.747 160.297 204.105 159.886 204.573 159.591C205.045 159.296 205.609 159.149 206.263 159.149ZM213.661 160.28H212.153L212.159 164.29C212.159 164.511 212.181 164.674 212.224 164.778C212.272 164.878 212.35 164.943 212.458 164.973C212.571 164.999 212.723 165.012 212.913 165.012H213.7V165.915C213.613 165.95 213.483 165.98 213.31 166.007C213.141 166.033 212.922 166.046 212.653 166.046C212.155 166.046 211.767 165.978 211.49 165.844C211.217 165.71 211.026 165.517 210.918 165.265C210.814 165.01 210.762 164.702 210.762 164.342V160.28H209.67V159.279H210.801L211.145 157.303H212.153V159.272H213.661V160.28ZM215.042 166V159.279H216.374V160.657C216.487 160.328 216.643 160.052 216.842 159.831C217.046 159.606 217.282 159.437 217.551 159.324C217.819 159.207 218.103 159.149 218.402 159.149C218.493 159.149 218.58 159.155 218.662 159.169C218.744 159.177 218.809 159.194 218.857 159.22V160.559C218.801 160.533 218.727 160.516 218.636 160.507C218.549 160.499 218.474 160.492 218.409 160.488C218.114 160.466 217.845 160.481 217.603 160.533C217.36 160.585 217.15 160.672 216.972 160.793C216.799 160.915 216.664 161.073 216.569 161.268C216.478 161.463 216.433 161.693 216.433 161.957V166H215.042ZM222.501 166.13C221.873 166.13 221.322 165.996 220.85 165.727C220.382 165.454 220.018 165.06 219.758 164.544C219.502 164.028 219.374 163.404 219.374 162.672C219.374 161.966 219.496 161.348 219.738 160.819C219.985 160.291 220.343 159.881 220.811 159.591C221.279 159.296 221.844 159.149 222.507 159.149C223.14 159.149 223.688 159.288 224.152 159.565C224.616 159.838 224.975 160.239 225.231 160.767C225.487 161.292 225.614 161.927 225.614 162.672C225.614 163.352 225.493 163.952 225.25 164.472C225.012 164.992 224.661 165.4 224.197 165.694C223.738 165.985 223.173 166.13 222.501 166.13ZM222.507 165.057C222.889 165.057 223.207 164.958 223.463 164.758C223.723 164.555 223.918 164.271 224.048 163.907C224.178 163.539 224.243 163.114 224.243 162.633C224.243 162.187 224.184 161.781 224.067 161.417C223.955 161.049 223.771 160.757 223.515 160.54C223.259 160.323 222.923 160.215 222.507 160.215C222.117 160.215 221.792 160.315 221.532 160.514C221.272 160.709 221.075 160.988 220.941 161.352C220.811 161.712 220.746 162.139 220.746 162.633C220.746 163.071 220.804 163.474 220.921 163.842C221.038 164.21 221.227 164.505 221.487 164.726C221.747 164.947 222.087 165.057 222.507 165.057ZM226.849 166V159.279H228.207V160.247C228.316 160.065 228.461 159.894 228.643 159.734C228.829 159.574 229.057 159.444 229.325 159.344C229.598 159.244 229.912 159.194 230.268 159.194C230.688 159.194 231.076 159.279 231.431 159.448C231.791 159.613 232.079 159.873 232.296 160.228C232.512 160.579 232.621 161.034 232.621 161.593V166H231.23V161.742C231.23 161.261 231.1 160.904 230.84 160.67C230.584 160.436 230.253 160.319 229.845 160.319C229.572 160.319 229.312 160.364 229.065 160.455C228.818 160.546 228.619 160.685 228.467 160.871C228.316 161.053 228.24 161.283 228.24 161.56V166H226.849ZM235.611 159.279V166H234.272V159.279H235.611ZM235.637 156.607V157.979H234.24V156.607H235.637ZM240.085 159.149C240.587 159.149 241.034 159.249 241.424 159.448C241.818 159.643 242.137 159.916 242.379 160.267C242.622 160.618 242.769 161.027 242.821 161.495H241.619C241.58 161.274 241.495 161.069 241.365 160.878C241.24 160.687 241.068 160.536 240.852 160.423C240.639 160.306 240.386 160.247 240.091 160.247C239.554 160.247 239.116 160.445 238.778 160.839C238.44 161.233 238.271 161.838 238.271 162.652C238.271 163.398 238.427 163.991 238.739 164.433C239.056 164.875 239.515 165.096 240.117 165.096C240.408 165.096 240.659 165.036 240.871 164.914C241.088 164.793 241.259 164.637 241.385 164.446C241.51 164.256 241.591 164.059 241.625 163.855H242.808C242.761 164.306 242.613 164.702 242.366 165.045C242.124 165.387 241.805 165.653 241.411 165.844C241.021 166.035 240.579 166.13 240.085 166.13C239.474 166.13 238.932 165.998 238.46 165.733C237.987 165.465 237.617 165.073 237.348 164.557C237.084 164.037 236.952 163.406 236.952 162.665C236.952 161.968 237.075 161.355 237.322 160.826C237.569 160.297 237.927 159.886 238.395 159.591C238.867 159.296 239.43 159.149 240.085 159.149ZM246.522 166.13C246.054 166.13 245.614 166.056 245.202 165.909C244.795 165.762 244.452 165.53 244.175 165.213C243.902 164.897 243.731 164.492 243.662 163.998H244.903C244.959 164.254 245.066 164.466 245.222 164.635C245.382 164.8 245.573 164.923 245.794 165.005C246.019 165.083 246.259 165.122 246.515 165.122C246.94 165.122 247.282 165.047 247.542 164.895C247.806 164.739 247.939 164.501 247.939 164.18C247.939 163.95 247.867 163.766 247.724 163.627C247.585 163.489 247.364 163.387 247.061 163.322L245.722 163.003C245.167 162.873 244.723 162.668 244.39 162.386C244.056 162.1 243.887 161.701 243.883 161.19C243.883 160.796 243.98 160.445 244.175 160.137C244.374 159.829 244.669 159.589 245.059 159.415C245.449 159.238 245.934 159.149 246.515 159.149C247.273 159.149 247.882 159.318 248.342 159.656C248.801 159.994 249.039 160.484 249.057 161.125H247.854C247.811 160.817 247.67 160.577 247.432 160.403C247.198 160.226 246.888 160.137 246.502 160.137C246.103 160.137 245.776 160.217 245.521 160.377C245.265 160.533 245.137 160.774 245.137 161.099C245.137 161.32 245.23 161.495 245.417 161.625C245.603 161.751 245.882 161.855 246.255 161.938L247.529 162.256C247.858 162.343 248.129 162.457 248.342 162.6C248.554 162.739 248.721 162.893 248.842 163.062C248.963 163.231 249.048 163.406 249.096 163.588C249.148 163.77 249.174 163.942 249.174 164.102C249.174 164.527 249.065 164.891 248.849 165.194C248.636 165.493 248.331 165.725 247.932 165.889C247.538 166.05 247.068 166.13 246.522 166.13Z" fill="white"/>
<path opacity="0.5" d="M195.585 214V204.601H198.841C199.513 204.601 200.113 204.716 200.642 204.945C201.175 205.175 201.593 205.513 201.896 205.959C202.204 206.406 202.358 206.954 202.358 207.604C202.358 208.228 202.217 208.761 201.935 209.203C201.658 209.641 201.268 209.976 200.765 210.21C200.267 210.44 199.688 210.555 199.03 210.555H197.002V214H195.585ZM196.995 209.417H198.991C199.589 209.417 200.076 209.246 200.453 208.904C200.83 208.557 201.019 208.098 201.019 207.526C201.019 206.945 200.824 206.501 200.434 206.193C200.044 205.881 199.545 205.725 198.939 205.725H196.995V209.417ZM204.23 210.964C204.23 211.367 204.295 211.729 204.425 212.05C204.56 212.366 204.761 212.618 205.03 212.804C205.299 212.986 205.632 213.077 206.031 213.077C206.43 213.077 206.774 212.986 207.064 212.804C207.359 212.622 207.552 212.351 207.643 211.991H208.93C208.852 212.451 208.668 212.841 208.377 213.161C208.091 213.482 207.745 213.725 207.337 213.889C206.93 214.05 206.503 214.13 206.057 214.13C205.42 214.13 204.859 213.994 204.373 213.72C203.888 213.443 203.509 213.049 203.236 212.537C202.967 212.026 202.833 211.417 202.833 210.711C202.833 210.013 202.956 209.398 203.203 208.865C203.45 208.328 203.808 207.907 204.276 207.604C204.744 207.301 205.307 207.149 205.966 207.149C206.616 207.149 207.162 207.288 207.604 207.565C208.05 207.842 208.388 208.232 208.618 208.735C208.848 209.233 208.962 209.823 208.962 210.503V210.964H204.23ZM204.23 210.061H207.636C207.636 209.71 207.576 209.391 207.454 209.105C207.333 208.815 207.147 208.588 206.895 208.423C206.648 208.254 206.336 208.169 205.959 208.169C205.574 208.169 205.253 208.263 204.997 208.449C204.742 208.635 204.549 208.874 204.419 209.164C204.293 209.454 204.23 209.753 204.23 210.061ZM210.255 214V207.279H211.588V208.657C211.7 208.328 211.856 208.052 212.056 207.831C212.259 207.606 212.496 207.437 212.764 207.324C213.033 207.207 213.317 207.149 213.616 207.149C213.707 207.149 213.793 207.155 213.876 207.169C213.958 207.177 214.023 207.194 214.071 207.22V208.559C214.014 208.533 213.941 208.516 213.85 208.507C213.763 208.499 213.687 208.492 213.622 208.488C213.328 208.466 213.059 208.481 212.816 208.533C212.574 208.585 212.363 208.672 212.186 208.793C212.012 208.915 211.878 209.073 211.783 209.268C211.692 209.463 211.646 209.693 211.646 209.957V214H210.255ZM218.018 204.601C218.053 204.601 218.155 204.603 218.324 204.607C218.497 204.607 218.705 204.607 218.948 204.607C219.191 204.603 219.438 204.603 219.689 204.607C219.945 204.607 220.172 204.61 220.371 204.614C221.52 204.631 222.454 204.822 223.173 205.186C223.892 205.55 224.419 206.074 224.752 206.759C225.09 207.439 225.259 208.269 225.259 209.248C225.259 210.267 225.08 211.131 224.72 211.842C224.36 212.548 223.81 213.086 223.069 213.454C222.332 213.818 221.398 214 220.267 214H218.018V204.601ZM219.435 205.771V212.83H220.28C220.991 212.83 221.609 212.715 222.133 212.485C222.662 212.251 223.071 211.874 223.361 211.354C223.652 210.83 223.797 210.13 223.797 209.255C223.797 208.397 223.658 207.714 223.381 207.207C223.104 206.696 222.705 206.33 222.185 206.109C221.669 205.884 221.047 205.771 220.319 205.771H219.435ZM228.499 214.13C228.066 214.13 227.68 214.052 227.342 213.896C227.008 213.74 226.746 213.515 226.555 213.22C226.365 212.925 226.269 212.57 226.269 212.154C226.269 211.409 226.534 210.852 227.062 210.483C227.591 210.115 228.434 209.92 229.591 209.898L230.696 209.866V209.378C230.696 208.993 230.581 208.689 230.351 208.468C230.122 208.247 229.769 208.139 229.292 208.143C228.932 208.143 228.612 208.226 228.33 208.39C228.053 208.555 227.871 208.826 227.784 209.203H226.575C226.601 208.757 226.729 208.382 226.958 208.078C227.192 207.771 227.513 207.539 227.92 207.383C228.328 207.227 228.807 207.149 229.357 207.149C229.968 207.149 230.471 207.233 230.865 207.402C231.259 207.567 231.552 207.81 231.742 208.13C231.937 208.451 232.035 208.841 232.035 209.3V214H230.858L230.748 212.765C230.497 213.281 230.178 213.638 229.792 213.837C229.411 214.033 228.98 214.13 228.499 214.13ZM228.934 213.161C229.147 213.161 229.357 213.125 229.565 213.051C229.773 212.973 229.961 212.869 230.13 212.739C230.299 212.605 230.434 212.455 230.533 212.29C230.637 212.126 230.692 211.957 230.696 211.783V210.672L229.786 210.691C229.322 210.696 228.928 210.743 228.603 210.834C228.282 210.925 228.035 211.066 227.862 211.257C227.693 211.448 227.608 211.701 227.608 212.017C227.608 212.377 227.734 212.659 227.985 212.862C228.237 213.062 228.553 213.161 228.934 213.161ZM234.281 216.145C233.869 216.145 233.583 216.115 233.423 216.054C233.267 215.993 233.189 215.963 233.189 215.963V215.066L233.872 215.079C234.132 215.092 234.344 215.077 234.509 215.034C234.678 214.99 234.81 214.93 234.905 214.852C235.005 214.778 235.081 214.698 235.133 214.611C235.185 214.524 235.224 214.444 235.25 214.371L235.458 213.805L232.838 207.279H234.229L236.114 212.245L237.986 207.279H239.351L236.55 214.377C236.359 214.845 236.149 215.207 235.919 215.463C235.694 215.718 235.445 215.896 235.172 215.996C234.899 216.095 234.602 216.145 234.281 216.145Z" fill="white"/>
<path d="M186.53 181.988C186.53 180.74 186.822 179.704 187.406 178.88C187.998 178.056 188.794 177.44 189.794 177.032C190.794 176.616 191.906 176.408 193.13 176.408C194.426 176.408 195.578 176.576 196.586 176.912C197.602 177.248 198.402 177.76 198.986 178.448C199.57 179.136 199.862 180.008 199.862 181.064C199.862 181.92 199.614 182.676 199.118 183.332C198.622 183.98 197.814 184.496 196.694 184.88C197.334 185.056 197.926 185.324 198.47 185.684C199.014 186.044 199.45 186.504 199.778 187.064C200.106 187.624 200.27 188.296 200.27 189.08C200.27 189.928 200.082 190.676 199.706 191.324C199.33 191.972 198.81 192.516 198.146 192.956C197.482 193.396 196.714 193.724 195.842 193.94C194.97 194.156 194.038 194.264 193.046 194.264C191.654 194.256 190.466 194.028 189.482 193.58C188.506 193.124 187.754 192.476 187.226 191.636C186.706 190.796 186.438 189.796 186.422 188.636H189.794C189.962 189.62 190.346 190.332 190.946 190.772C191.546 191.212 192.258 191.432 193.082 191.432C193.802 191.432 194.418 191.328 194.93 191.12C195.45 190.912 195.846 190.624 196.118 190.256C196.398 189.88 196.538 189.452 196.538 188.972C196.538 188.476 196.394 188.048 196.106 187.688C195.826 187.328 195.434 187.048 194.93 186.848C194.426 186.64 193.85 186.528 193.202 186.512L191.546 186.452V183.668L193.034 183.584C193.658 183.56 194.202 183.444 194.666 183.236C195.13 183.028 195.49 182.752 195.746 182.408C196.01 182.056 196.142 181.66 196.142 181.22C196.142 180.796 196.01 180.428 195.746 180.116C195.482 179.804 195.118 179.56 194.654 179.384C194.19 179.208 193.658 179.12 193.058 179.12C192.506 179.12 191.998 179.212 191.534 179.396C191.07 179.58 190.69 179.884 190.394 180.308C190.098 180.724 189.926 181.284 189.878 181.988H186.53ZM202.035 194V190.184H205.875V194H202.035ZM210.964 194V181.004H207.868V179.024C208.86 179.024 209.66 178.932 210.268 178.748C210.884 178.556 211.344 178.284 211.648 177.932C211.952 177.572 212.132 177.144 212.188 176.648H214.516V194H210.964ZM224.962 176.408C226.05 176.408 227.054 176.608 227.974 177.008C228.894 177.4 229.642 177.972 230.218 178.724C230.802 179.468 231.122 180.364 231.178 181.412H227.974C227.766 180.684 227.414 180.132 226.918 179.756C226.422 179.372 225.794 179.18 225.034 179.18C224.202 179.18 223.51 179.416 222.958 179.888C222.406 180.36 222.01 181.02 221.77 181.868C221.53 182.716 221.466 183.704 221.578 184.832C221.842 184.448 222.178 184.124 222.586 183.86C222.994 183.588 223.45 183.38 223.954 183.236C224.458 183.092 224.982 183.02 225.526 183.02C226.702 183.02 227.73 183.24 228.61 183.68C229.49 184.112 230.178 184.728 230.674 185.528C231.17 186.328 231.418 187.264 231.418 188.336C231.418 189.472 231.138 190.488 230.578 191.384C230.026 192.272 229.254 192.976 228.262 193.496C227.27 194.008 226.122 194.264 224.818 194.264C223.346 194.264 222.074 193.908 221.002 193.196C219.93 192.484 219.106 191.484 218.53 190.196C217.962 188.908 217.678 187.396 217.678 185.66C217.678 183.756 217.966 182.112 218.542 180.728C219.126 179.344 219.962 178.28 221.05 177.536C222.138 176.784 223.442 176.408 224.962 176.408ZM224.71 185.636C224.214 185.636 223.734 185.748 223.27 185.972C222.814 186.188 222.438 186.468 222.142 186.812C221.854 187.148 221.71 187.492 221.71 187.844C221.702 188.62 221.822 189.288 222.07 189.848C222.326 190.4 222.678 190.828 223.126 191.132C223.582 191.428 224.106 191.576 224.698 191.576C225.258 191.576 225.762 191.448 226.21 191.192C226.666 190.928 227.03 190.564 227.302 190.1C227.574 189.636 227.71 189.104 227.71 188.504C227.71 187.864 227.578 187.332 227.314 186.908C227.05 186.484 226.69 186.168 226.234 185.96C225.786 185.744 225.278 185.636 224.71 185.636ZM232.642 176.648H245.602V179.516C245.05 180.204 244.494 181.016 243.934 181.952C243.382 182.888 242.85 183.888 242.338 184.952C241.834 186.016 241.378 187.092 240.97 188.18C240.562 189.268 240.234 190.312 239.986 191.312C239.738 192.312 239.602 193.208 239.578 194H235.798C235.862 193.296 236.022 192.408 236.278 191.336C236.534 190.256 236.906 189.064 237.394 187.76C237.89 186.448 238.51 185.088 239.254 183.68C240.006 182.272 240.902 180.884 241.942 179.516H232.642V176.648Z" fill="white"/>
<ellipse cx="100.5" cy="100.5" rx="82" ry="81.5" fill="#FF517C"/>
<circle cx="193" cy="167.5" r="66.5" fill="#D6568A"/>
<circle cx="99" cy="211.5" r="49.5" fill="#FF97C2"/>
<path opacity="0.8" d="M66.4634 206V195.818H69.9038C70.7025 195.818 71.3555 195.962 71.8626 196.251C72.373 196.536 72.7508 196.922 72.9961 197.409C73.2414 197.896 73.364 198.44 73.364 199.04C73.364 199.64 73.2414 200.185 72.9961 200.675C72.7541 201.166 72.3796 201.557 71.8725 201.849C71.3654 202.137 70.7158 202.281 69.9237 202.281H67.4577V201.188H69.8839C70.4308 201.188 70.8699 201.093 71.2013 200.904C71.5328 200.715 71.7731 200.46 71.9222 200.138C72.0747 199.814 72.1509 199.447 72.1509 199.04C72.1509 198.632 72.0747 198.268 71.9222 197.946C71.7731 197.625 71.5311 197.373 71.1964 197.19C70.8616 197.005 70.4175 196.912 69.864 196.912H67.6964V206H66.4634ZM75.1911 206V198.364H76.3246V199.517H76.4041C76.5433 199.139 76.7952 198.833 77.1598 198.597C77.5244 198.362 77.9354 198.244 78.3928 198.244C78.4789 198.244 78.5866 198.246 78.7159 198.249C78.8452 198.253 78.9429 198.258 79.0092 198.264V199.457C78.9695 199.447 78.8783 199.433 78.7358 199.413C78.5966 199.389 78.4491 199.378 78.2933 199.378C77.9221 199.378 77.5907 199.456 77.299 199.612C77.0107 199.764 76.782 199.976 76.6129 200.248C76.4472 200.516 76.3643 200.823 76.3643 201.168V206H75.1911ZM83.2699 206.159C82.5805 206.159 81.9756 205.995 81.4553 205.667C80.9382 205.339 80.5339 204.88 80.2422 204.29C79.9538 203.7 79.8097 203.01 79.8097 202.222C79.8097 201.426 79.9538 200.732 80.2422 200.138C80.5339 199.545 80.9382 199.085 81.4553 198.756C81.9756 198.428 82.5805 198.264 83.2699 198.264C83.9593 198.264 84.5625 198.428 85.0795 198.756C85.5999 199.085 86.0043 199.545 86.2926 200.138C86.5843 200.732 86.7301 201.426 86.7301 202.222C86.7301 203.01 86.5843 203.7 86.2926 204.29C86.0043 204.88 85.5999 205.339 85.0795 205.667C84.5625 205.995 83.9593 206.159 83.2699 206.159ZM83.2699 205.105C83.7936 205.105 84.2244 204.971 84.5625 204.702C84.9006 204.434 85.1508 204.081 85.3132 203.643C85.4756 203.206 85.5568 202.732 85.5568 202.222C85.5568 201.711 85.4756 201.236 85.3132 200.795C85.1508 200.354 84.9006 199.998 84.5625 199.726C84.2244 199.454 83.7936 199.318 83.2699 199.318C82.7462 199.318 82.3153 199.454 81.9773 199.726C81.6392 199.998 81.389 200.354 81.2266 200.795C81.0642 201.236 80.983 201.711 80.983 202.222C80.983 202.732 81.0642 203.206 81.2266 203.643C81.389 204.081 81.6392 204.434 81.9773 204.702C82.3153 204.971 82.7462 205.105 83.2699 205.105ZM91.4047 206.159C90.7683 206.159 90.2065 205.998 89.7193 205.677C89.2321 205.352 88.8509 204.895 88.5758 204.305C88.3007 203.711 88.1632 203.01 88.1632 202.202C88.1632 201.4 88.3007 200.704 88.5758 200.114C88.8509 199.524 89.2337 199.068 89.7243 198.746C90.2148 198.425 90.7815 198.264 91.4245 198.264C91.9217 198.264 92.3145 198.347 92.6028 198.513C92.8945 198.675 93.1165 198.861 93.269 199.07C93.4248 199.275 93.5458 199.444 93.6319 199.577H93.7314V195.818H94.9047V206H93.7711V204.827H93.6319C93.5458 204.966 93.4231 205.142 93.264 205.354C93.1049 205.562 92.8779 205.75 92.5829 205.915C92.2879 206.078 91.8952 206.159 91.4047 206.159ZM91.5637 205.105C92.0344 205.105 92.4321 204.982 92.7569 204.737C93.0817 204.489 93.3287 204.146 93.4977 203.708C93.6667 203.267 93.7512 202.759 93.7512 202.182C93.7512 201.612 93.6684 201.113 93.5027 200.685C93.3369 200.254 93.0917 199.92 92.7669 199.681C92.4421 199.439 92.041 199.318 91.5637 199.318C91.0666 199.318 90.6523 199.446 90.3208 199.701C89.9927 199.953 89.7458 200.296 89.5801 200.73C89.4177 201.161 89.3365 201.645 89.3365 202.182C89.3365 202.725 89.4193 203.219 89.585 203.663C89.7541 204.104 90.0027 204.455 90.3308 204.717C90.6622 204.976 91.0732 205.105 91.5637 205.105ZM102.029 202.878V198.364H103.202V206H102.029V204.707H101.949C101.77 205.095 101.492 205.425 101.114 205.697C100.736 205.965 100.259 206.099 99.6824 206.099C99.2051 206.099 98.7808 205.995 98.4096 205.786C98.0384 205.574 97.7467 205.256 97.5346 204.832C97.3225 204.404 97.2164 203.866 97.2164 203.216V198.364H98.3897V203.136C98.3897 203.693 98.5455 204.137 98.8571 204.469C99.1719 204.8 99.573 204.966 100.06 204.966C100.352 204.966 100.648 204.891 100.95 204.742C101.255 204.593 101.51 204.364 101.716 204.056C101.925 203.748 102.029 203.355 102.029 202.878ZM108.453 206.159C107.738 206.159 107.121 205.99 106.604 205.652C106.087 205.314 105.689 204.848 105.411 204.255C105.132 203.662 104.993 202.984 104.993 202.222C104.993 201.446 105.136 200.762 105.421 200.168C105.709 199.572 106.11 199.106 106.624 198.771C107.141 198.433 107.744 198.264 108.434 198.264C108.971 198.264 109.454 198.364 109.885 198.562C110.316 198.761 110.669 199.04 110.944 199.398C111.219 199.756 111.39 200.173 111.456 200.651H110.283C110.194 200.303 109.995 199.994 109.686 199.726C109.382 199.454 108.971 199.318 108.453 199.318C107.996 199.318 107.595 199.437 107.25 199.676C106.909 199.911 106.642 200.245 106.45 200.675C106.261 201.103 106.167 201.605 106.167 202.182C106.167 202.772 106.259 203.286 106.445 203.723C106.634 204.161 106.899 204.5 107.24 204.742C107.585 204.984 107.989 205.105 108.453 205.105C108.758 205.105 109.035 205.052 109.284 204.946C109.532 204.84 109.743 204.688 109.915 204.489C110.087 204.29 110.21 204.051 110.283 203.773H111.456C111.39 204.223 111.226 204.629 110.964 204.991C110.706 205.349 110.363 205.634 109.935 205.846C109.511 206.055 109.017 206.159 108.453 206.159ZM116.493 198.364V199.358H112.535V198.364H116.493ZM113.689 196.534H114.862V203.812C114.862 204.144 114.91 204.393 115.006 204.558C115.105 204.721 115.231 204.83 115.384 204.886C115.54 204.939 115.704 204.966 115.876 204.966C116.005 204.966 116.111 204.959 116.194 204.946C116.277 204.929 116.343 204.916 116.393 204.906L116.632 205.96C116.552 205.99 116.441 206.02 116.299 206.05C116.156 206.083 115.975 206.099 115.757 206.099C115.425 206.099 115.1 206.028 114.782 205.886C114.467 205.743 114.206 205.526 113.997 205.234C113.791 204.943 113.689 204.575 113.689 204.131V196.534ZM121.278 206.159C120.588 206.159 119.983 205.995 119.463 205.667C118.946 205.339 118.542 204.88 118.25 204.29C117.962 203.7 117.817 203.01 117.817 202.222C117.817 201.426 117.962 200.732 118.25 200.138C118.542 199.545 118.946 199.085 119.463 198.756C119.983 198.428 120.588 198.264 121.278 198.264C121.967 198.264 122.57 198.428 123.087 198.756C123.608 199.085 124.012 199.545 124.3 200.138C124.592 200.732 124.738 201.426 124.738 202.222C124.738 203.01 124.592 203.7 124.3 204.29C124.012 204.88 123.608 205.339 123.087 205.667C122.57 205.995 121.967 206.159 121.278 206.159ZM121.278 205.105C121.801 205.105 122.232 204.971 122.57 204.702C122.908 204.434 123.159 204.081 123.321 203.643C123.483 203.206 123.565 202.732 123.565 202.222C123.565 201.711 123.483 201.236 123.321 200.795C123.159 200.354 122.908 199.998 122.57 199.726C122.232 199.454 121.801 199.318 121.278 199.318C120.754 199.318 120.323 199.454 119.985 199.726C119.647 199.998 119.397 200.354 119.234 200.795C119.072 201.236 118.991 201.711 118.991 202.222C118.991 202.732 119.072 203.206 119.234 203.643C119.397 204.081 119.647 204.434 119.985 204.702C120.323 204.971 120.754 205.105 121.278 205.105ZM131.938 200.074L130.884 200.372C130.818 200.196 130.72 200.026 130.591 199.86C130.465 199.691 130.292 199.552 130.074 199.442C129.855 199.333 129.575 199.278 129.233 199.278C128.766 199.278 128.377 199.386 128.065 199.602C127.757 199.814 127.603 200.084 127.603 200.412C127.603 200.704 127.709 200.934 127.921 201.103C128.133 201.272 128.465 201.413 128.915 201.526L130.049 201.804C130.732 201.97 131.24 202.223 131.575 202.565C131.91 202.903 132.077 203.339 132.077 203.872C132.077 204.31 131.951 204.701 131.699 205.045C131.451 205.39 131.103 205.662 130.655 205.861C130.208 206.06 129.688 206.159 129.094 206.159C128.315 206.159 127.671 205.99 127.16 205.652C126.65 205.314 126.327 204.82 126.191 204.17L127.305 203.892C127.411 204.303 127.611 204.611 127.906 204.817C128.204 205.022 128.594 205.125 129.074 205.125C129.621 205.125 130.055 205.009 130.377 204.777C130.702 204.542 130.864 204.26 130.864 203.932C130.864 203.667 130.771 203.445 130.586 203.266C130.4 203.083 130.115 202.947 129.731 202.858L128.458 202.56C127.759 202.394 127.245 202.137 126.917 201.789C126.592 201.438 126.43 200.999 126.43 200.472C126.43 200.041 126.55 199.66 126.792 199.328C127.038 198.997 127.371 198.737 127.792 198.548C128.216 198.359 128.697 198.264 129.233 198.264C129.989 198.264 130.582 198.43 131.013 198.761C131.448 199.093 131.756 199.53 131.938 200.074Z" fill="white"/>
<path d="M77.3076 212V228H74.4092V214.82H74.3154L70.5732 217.211V214.555L74.5498 212H77.3076ZM82.2627 228.172C81.7887 228.172 81.3825 228.005 81.0439 227.672C80.7054 227.339 80.5387 226.932 80.5439 226.453C80.5387 225.984 80.7054 225.583 81.0439 225.25C81.3825 224.917 81.7887 224.75 82.2627 224.75C82.721 224.75 83.1195 224.917 83.458 225.25C83.8018 225.583 83.9762 225.984 83.9814 226.453C83.9762 226.771 83.8929 227.06 83.7314 227.32C83.5752 227.581 83.3669 227.789 83.1064 227.945C82.8512 228.096 82.57 228.172 82.2627 228.172ZM91.9561 228.219C90.7946 228.219 89.7633 228.023 88.8623 227.633C87.9665 227.242 87.2633 226.708 86.7529 226.031C86.2477 225.349 85.9977 224.576 86.0029 223.711C85.9977 223.039 86.1436 222.422 86.4404 221.859C86.7373 221.297 87.1383 220.828 87.6436 220.453C88.154 220.073 88.7217 219.831 89.3467 219.727V219.617C88.5238 219.435 87.8571 219.016 87.3467 218.359C86.8415 217.698 86.5915 216.935 86.5967 216.07C86.5915 215.247 86.8206 214.513 87.2842 213.867C87.7477 213.221 88.3831 212.714 89.1904 212.344C89.9977 211.969 90.9196 211.781 91.9561 211.781C92.9821 211.781 93.8962 211.969 94.6982 212.344C95.5055 212.714 96.141 213.221 96.6045 213.867C97.0732 214.513 97.3076 215.247 97.3076 216.07C97.3076 216.935 97.0498 217.698 96.5342 218.359C96.0238 219.016 95.3649 219.435 94.5576 219.617V219.727C95.1826 219.831 95.7451 220.073 96.2451 220.453C96.7503 220.828 97.1514 221.297 97.4482 221.859C97.7503 222.422 97.9014 223.039 97.9014 223.711C97.9014 224.576 97.6462 225.349 97.1357 226.031C96.6253 226.708 95.9222 227.242 95.0264 227.633C94.1357 228.023 93.1123 228.219 91.9561 228.219ZM91.9561 225.984C92.555 225.984 93.0758 225.883 93.5186 225.68C93.9613 225.471 94.305 225.18 94.5498 224.805C94.7946 224.43 94.9196 223.997 94.9248 223.508C94.9196 222.997 94.7868 222.547 94.5264 222.156C94.2712 221.76 93.9196 221.451 93.4717 221.227C93.029 221.003 92.5238 220.891 91.9561 220.891C91.3831 220.891 90.8727 221.003 90.4248 221.227C89.9769 221.451 89.6227 221.76 89.3623 222.156C89.1071 222.547 88.9821 222.997 88.9873 223.508C88.9821 223.997 89.1019 224.43 89.3467 224.805C89.5915 225.174 89.9352 225.464 90.3779 225.672C90.8258 225.88 91.3519 225.984 91.9561 225.984ZM91.9561 218.695C92.4456 218.695 92.8779 218.596 93.2529 218.398C93.6331 218.201 93.9326 217.924 94.1514 217.57C94.3701 217.216 94.4821 216.807 94.4873 216.344C94.4821 215.885 94.3727 215.484 94.1592 215.141C93.9456 214.792 93.6488 214.523 93.2686 214.336C92.8883 214.143 92.4508 214.047 91.9561 214.047C91.4508 214.047 91.0055 214.143 90.6201 214.336C90.2399 214.523 89.943 214.792 89.7295 215.141C89.5212 215.484 89.4196 215.885 89.4248 216.344C89.4196 216.807 89.5238 217.216 89.7373 217.57C89.9561 217.919 90.2555 218.195 90.6357 218.398C91.0212 218.596 91.4613 218.695 91.9561 218.695ZM100.181 225.031V222.727L106.97 212H108.892V215.281H107.72L103.149 222.523V222.648H112.626V225.031H100.181ZM107.813 228V224.328L107.845 223.297V212H110.579V228H107.813ZM120.685 228.219C119.643 228.219 118.711 228.023 117.888 227.633C117.065 227.237 116.411 226.695 115.927 226.008C115.448 225.32 115.192 224.534 115.161 223.648H117.974C118.026 224.305 118.31 224.841 118.825 225.258C119.341 225.669 119.961 225.875 120.685 225.875C121.252 225.875 121.757 225.745 122.2 225.484C122.643 225.224 122.992 224.862 123.247 224.398C123.502 223.935 123.627 223.406 123.622 222.812C123.627 222.208 123.5 221.672 123.239 221.203C122.979 220.734 122.622 220.367 122.169 220.102C121.716 219.831 121.195 219.695 120.606 219.695C120.127 219.69 119.656 219.779 119.192 219.961C118.729 220.143 118.362 220.383 118.091 220.68L115.474 220.25L116.31 212H125.591V214.422H118.708L118.247 218.664H118.341C118.638 218.315 119.057 218.026 119.599 217.797C120.14 217.562 120.734 217.445 121.38 217.445C122.349 217.445 123.213 217.674 123.974 218.133C124.734 218.586 125.333 219.211 125.771 220.008C126.208 220.805 126.427 221.716 126.427 222.742C126.427 223.799 126.182 224.742 125.692 225.57C125.208 226.393 124.534 227.042 123.669 227.516C122.81 227.984 121.815 228.219 120.685 228.219Z" fill="white"/>
<path opacity="0.8" d="M85.9681 87H84.7352C84.6623 86.6454 84.5347 86.3338 84.3524 86.0653C84.1734 85.7969 83.9546 85.5715 83.6961 85.3892C83.4409 85.2036 83.1575 85.0644 82.846 84.9716C82.5344 84.8788 82.2096 84.8324 81.8715 84.8324C81.2551 84.8324 80.6966 84.9882 80.1961 85.2997C79.699 85.6113 79.3029 86.0703 79.0079 86.6768C78.7162 87.2834 78.5704 88.0275 78.5704 88.9091C78.5704 89.7907 78.7162 90.5348 79.0079 91.1413C79.3029 91.7479 79.699 92.2069 80.1961 92.5185C80.6966 92.83 81.2551 92.9858 81.8715 92.9858C82.2096 92.9858 82.5344 92.9394 82.846 92.8466C83.1575 92.7538 83.4409 92.6162 83.6961 92.4339C83.9546 92.2483 84.1734 92.0213 84.3524 91.7528C84.5347 91.4811 84.6623 91.1695 84.7352 90.8182H85.9681C85.8753 91.3385 85.7063 91.8042 85.461 92.2152C85.2158 92.6262 84.9108 92.9759 84.5463 93.2642C84.1817 93.5492 83.7723 93.7663 83.3183 93.9155C82.8675 94.0646 82.3853 94.1392 81.8715 94.1392C81.0032 94.1392 80.2309 93.9271 79.5548 93.5028C78.8786 93.0786 78.3467 92.4754 77.9589 91.6932C77.5711 90.911 77.3772 89.983 77.3772 88.9091C77.3772 87.8352 77.5711 86.9072 77.9589 86.125C78.3467 85.3428 78.8786 84.7396 79.5548 84.3153C80.2309 83.8911 81.0032 83.679 81.8715 83.679C82.3853 83.679 82.8675 83.7536 83.3183 83.9027C83.7723 84.0518 84.1817 84.2706 84.5463 84.5589C84.9108 84.844 85.2158 85.192 85.461 85.603C85.7063 86.0107 85.8753 86.4763 85.9681 87ZM90.0486 94.179C89.5647 94.179 89.1255 94.0878 88.7311 93.9055C88.3367 93.7199 88.0235 93.4531 87.7915 93.1051C87.5595 92.7538 87.4434 92.3295 87.4434 91.8324C87.4434 91.3949 87.5296 91.0402 87.702 90.7685C87.8743 90.4934 88.1047 90.2779 88.393 90.1222C88.6814 89.9664 88.9996 89.8504 89.3476 89.7741C89.6989 89.6946 90.0519 89.6316 90.4065 89.5852C90.8705 89.5256 91.2467 89.4808 91.5351 89.451C91.8267 89.4179 92.0389 89.3632 92.1714 89.2869C92.3073 89.2107 92.3753 89.0781 92.3753 88.8892V88.8494C92.3753 88.3589 92.241 87.9777 91.9726 87.706C91.7074 87.4342 91.3047 87.2983 90.7645 87.2983C90.2043 87.2983 89.7652 87.4209 89.447 87.6662C89.1288 87.9115 88.9051 88.1733 88.7758 88.4517L87.6622 88.054C87.8611 87.59 88.1262 87.2287 88.4577 86.9702C88.7924 86.7083 89.157 86.526 89.5514 86.4233C89.9491 86.3172 90.3402 86.2642 90.7247 86.2642C90.97 86.2642 91.2517 86.294 91.5699 86.3537C91.8914 86.41 92.2013 86.5277 92.4996 86.7067C92.8012 86.8857 93.0514 87.1558 93.2503 87.517C93.4491 87.8783 93.5486 88.3622 93.5486 88.9688V94H92.3753V92.9659H92.3156C92.2361 93.1316 92.1035 93.3089 91.9179 93.4979C91.7323 93.6868 91.4854 93.8475 91.1771 93.9801C90.8689 94.1127 90.4927 94.179 90.0486 94.179ZM90.2275 93.125C90.6916 93.125 91.0827 93.0339 91.4008 92.8516C91.7223 92.6693 91.9643 92.4339 92.1267 92.1456C92.2924 91.8572 92.3753 91.554 92.3753 91.2358V90.1619C92.3256 90.2216 92.2162 90.2763 92.0471 90.326C91.8814 90.3724 91.6892 90.4138 91.4704 90.4503C91.255 90.4834 91.0445 90.5133 90.839 90.5398C90.6369 90.563 90.4728 90.5829 90.3469 90.5994C90.0419 90.6392 89.7569 90.7038 89.4917 90.7933C89.2299 90.8795 89.0178 91.0104 88.8554 91.1861C88.6963 91.3584 88.6167 91.5937 88.6167 91.892C88.6167 92.2997 88.7675 92.608 89.0692 92.8168C89.3741 93.0223 89.7602 93.125 90.2275 93.125ZM95.8492 94V83.8182H97.0225V87.5767H97.1219C97.2081 87.4441 97.3274 87.2751 97.4798 87.0696C97.6356 86.8608 97.8577 86.6752 98.146 86.5128C98.4377 86.3471 98.8321 86.2642 99.3293 86.2642C99.9723 86.2642 100.539 86.425 101.03 86.7464C101.52 87.0679 101.903 87.5237 102.178 88.1136C102.453 88.7036 102.591 89.3996 102.591 90.2017C102.591 91.0104 102.453 91.7114 102.178 92.3047C101.903 92.8946 101.522 93.352 101.035 93.6768C100.547 93.9983 99.9855 94.1591 99.3492 94.1591C98.8586 94.1591 98.4659 94.0779 98.1709 93.9155C97.8759 93.7498 97.6489 93.5625 97.4898 93.3537C97.3307 93.1416 97.2081 92.9659 97.1219 92.8267H96.9827V94H95.8492ZM97.0026 90.1818C97.0026 90.7585 97.0871 91.2673 97.2561 91.7081C97.4252 92.1456 97.6721 92.4886 97.9969 92.7372C98.3217 92.9825 98.7194 93.1051 99.1901 93.1051C99.6806 93.1051 100.09 92.9759 100.418 92.7173C100.749 92.4555 100.998 92.1042 101.164 91.6634C101.333 91.2192 101.417 90.7254 101.417 90.1818C101.417 89.6449 101.334 89.161 101.169 88.7301C101.006 88.2959 100.759 87.9529 100.428 87.701C100.1 87.4458 99.6872 87.3182 99.1901 87.3182C98.7128 87.3182 98.3118 87.4392 97.9869 87.6811C97.6621 87.9197 97.4169 88.2545 97.2512 88.6854C97.0854 89.1129 97.0026 89.6117 97.0026 90.1818ZM107.587 94.1591C106.851 94.1591 106.217 93.9967 105.683 93.6719C105.153 93.3438 104.743 92.8864 104.455 92.2997C104.17 91.7098 104.027 91.0237 104.027 90.2415C104.027 89.4593 104.17 88.7699 104.455 88.1733C104.743 87.5734 105.144 87.1061 105.658 86.7713C106.175 86.4332 106.778 86.2642 107.468 86.2642C107.866 86.2642 108.258 86.3305 108.646 86.4631C109.034 86.5956 109.387 86.8111 109.705 87.1094C110.023 87.4044 110.277 87.7955 110.466 88.2827C110.655 88.7699 110.749 89.3698 110.749 90.0824V90.5795H104.863V89.5653H109.556C109.556 89.1345 109.47 88.75 109.297 88.4119C109.128 88.0739 108.886 87.8071 108.571 87.6115C108.26 87.416 107.892 87.3182 107.468 87.3182C107 87.3182 106.596 87.4342 106.255 87.6662C105.917 87.8949 105.656 88.1932 105.474 88.5611C105.292 88.929 105.201 89.3234 105.201 89.7443V90.4205C105.201 90.9972 105.3 91.486 105.499 91.8871C105.701 92.2848 105.981 92.5881 106.339 92.7969C106.697 93.0024 107.113 93.1051 107.587 93.1051C107.895 93.1051 108.174 93.062 108.422 92.9759C108.674 92.8864 108.891 92.7538 109.074 92.5781C109.256 92.3991 109.397 92.1771 109.496 91.9119L110.63 92.2301C110.51 92.6146 110.31 92.9527 110.028 93.2443C109.746 93.5327 109.398 93.758 108.984 93.9205C108.57 94.0795 108.104 94.1591 107.587 94.1591ZM113.707 83.8182V94H112.534V83.8182H113.707ZM117.029 83.8182V94H115.856V83.8182H117.029ZM122.281 94.1591C121.591 94.1591 120.986 93.995 120.466 93.6669C119.949 93.3388 119.545 92.8797 119.253 92.2898C118.965 91.6998 118.82 91.0104 118.82 90.2216C118.82 89.4261 118.965 88.7318 119.253 88.1385C119.545 87.5452 119.949 87.0845 120.466 86.7564C120.986 86.4283 121.591 86.2642 122.281 86.2642C122.97 86.2642 123.573 86.4283 124.09 86.7564C124.611 87.0845 125.015 87.5452 125.303 88.1385C125.595 88.7318 125.741 89.4261 125.741 90.2216C125.741 91.0104 125.595 91.6998 125.303 92.2898C125.015 92.8797 124.611 93.3388 124.09 93.6669C123.573 93.995 122.97 94.1591 122.281 94.1591ZM122.281 93.1051C122.804 93.1051 123.235 92.9709 123.573 92.7024C123.911 92.4339 124.162 92.081 124.324 91.6435C124.486 91.206 124.568 90.732 124.568 90.2216C124.568 89.7112 124.486 89.2356 124.324 88.7947C124.162 88.3539 123.911 87.9976 123.573 87.7259C123.235 87.4541 122.804 87.3182 122.281 87.3182C121.757 87.3182 121.326 87.4541 120.988 87.7259C120.65 87.9976 120.4 88.3539 120.237 88.7947C120.075 89.2356 119.994 89.7112 119.994 90.2216C119.994 90.732 120.075 91.206 120.237 91.6435C120.4 92.081 120.65 92.4339 120.988 92.7024C121.326 92.9709 121.757 93.1051 122.281 93.1051Z" fill="white"/>
<path d="M71.3887 114.031V111.727L78.1777 101H80.0996V104.281H78.9277L74.3574 111.523V111.648H83.834V114.031H71.3887ZM79.0215 117V113.328L79.0527 112.297V101H81.7871V117H79.0215ZM87.6523 117.172C87.1784 117.172 86.7721 117.005 86.4336 116.672C86.0951 116.339 85.9284 115.932 85.9336 115.453C85.9284 114.984 86.0951 114.583 86.4336 114.25C86.7721 113.917 87.1784 113.75 87.6523 113.75C88.1107 113.75 88.5091 113.917 88.8477 114.25C89.1914 114.583 89.3659 114.984 89.3711 115.453C89.3659 115.771 89.2826 116.06 89.1211 116.32C88.9648 116.581 88.7565 116.789 88.4961 116.945C88.2409 117.096 87.9596 117.172 87.6523 117.172ZM97.6289 117.219C96.5872 117.219 95.6549 117.023 94.832 116.633C94.0091 116.237 93.3555 115.695 92.8711 115.008C92.3919 114.32 92.1367 113.534 92.1055 112.648H94.918C94.9701 113.305 95.2539 113.841 95.7695 114.258C96.2852 114.669 96.9049 114.875 97.6289 114.875C98.1966 114.875 98.7018 114.745 99.1445 114.484C99.5872 114.224 99.9362 113.862 100.191 113.398C100.447 112.935 100.572 112.406 100.566 111.812C100.572 111.208 100.444 110.672 100.184 110.203C99.9232 109.734 99.5664 109.367 99.1133 109.102C98.6602 108.831 98.1393 108.695 97.5508 108.695C97.0716 108.69 96.6003 108.779 96.1367 108.961C95.6732 109.143 95.306 109.383 95.0352 109.68L92.418 109.25L93.2539 101H102.535V103.422H95.6523L95.1914 107.664H95.2852C95.582 107.315 96.0013 107.026 96.543 106.797C97.0846 106.562 97.6784 106.445 98.3242 106.445C99.293 106.445 100.158 106.674 100.918 107.133C101.678 107.586 102.277 108.211 102.715 109.008C103.152 109.805 103.371 110.716 103.371 111.742C103.371 112.799 103.126 113.742 102.637 114.57C102.152 115.393 101.478 116.042 100.613 116.516C99.7539 116.984 98.7591 117.219 97.6289 117.219ZM111.848 117.219C111.082 117.214 110.335 117.081 109.605 116.82C108.876 116.555 108.22 116.125 107.637 115.531C107.053 114.932 106.59 114.138 106.246 113.148C105.902 112.154 105.733 110.922 105.738 109.453C105.738 108.083 105.884 106.862 106.176 105.789C106.467 104.716 106.887 103.81 107.434 103.07C107.98 102.326 108.639 101.758 109.41 101.367C110.186 100.977 111.053 100.781 112.012 100.781C113.017 100.781 113.908 100.979 114.684 101.375C115.465 101.771 116.095 102.312 116.574 103C117.053 103.682 117.35 104.453 117.465 105.312H114.613C114.467 104.698 114.168 104.208 113.715 103.844C113.267 103.474 112.699 103.289 112.012 103.289C110.902 103.289 110.048 103.771 109.449 104.734C108.855 105.698 108.556 107.021 108.551 108.703H108.66C108.915 108.245 109.246 107.852 109.652 107.523C110.059 107.195 110.517 106.943 111.027 106.766C111.543 106.583 112.087 106.492 112.66 106.492C113.598 106.492 114.439 106.716 115.184 107.164C115.934 107.612 116.527 108.229 116.965 109.016C117.402 109.797 117.618 110.693 117.613 111.703C117.618 112.755 117.379 113.701 116.895 114.539C116.41 115.372 115.736 116.029 114.871 116.508C114.007 116.987 112.999 117.224 111.848 117.219ZM111.832 114.875C112.4 114.875 112.908 114.737 113.355 114.461C113.803 114.185 114.158 113.812 114.418 113.344C114.678 112.875 114.806 112.349 114.801 111.766C114.806 111.193 114.681 110.674 114.426 110.211C114.176 109.747 113.829 109.38 113.387 109.109C112.944 108.839 112.439 108.703 111.871 108.703C111.449 108.703 111.056 108.784 110.691 108.945C110.327 109.107 110.009 109.331 109.738 109.617C109.467 109.898 109.254 110.227 109.098 110.602C108.947 110.971 108.868 111.367 108.863 111.789C108.868 112.346 108.999 112.859 109.254 113.328C109.509 113.797 109.861 114.172 110.309 114.453C110.757 114.734 111.264 114.875 111.832 114.875ZM120.84 117L127.645 103.531V103.422H119.746V101H130.645V103.477L123.848 117H120.84Z" fill="white"/>
<path opacity="0.8" d="M161.065 151.818H162.537L165.997 160.27H166.116L169.576 151.818H171.048V162H169.895V154.264H169.795L166.613 162H165.5L162.318 154.264H162.218V162H161.065V151.818ZM175.608 162.179C175.124 162.179 174.685 162.088 174.291 161.906C173.896 161.72 173.583 161.453 173.351 161.105C173.119 160.754 173.003 160.33 173.003 159.832C173.003 159.395 173.089 159.04 173.262 158.768C173.434 158.493 173.664 158.278 173.953 158.122C174.241 157.966 174.559 157.85 174.907 157.774C175.258 157.695 175.611 157.632 175.966 157.585C176.43 157.526 176.806 157.481 177.095 157.451C177.386 157.418 177.598 157.363 177.731 157.287C177.867 157.211 177.935 157.078 177.935 156.889V156.849C177.935 156.359 177.801 155.978 177.532 155.706C177.267 155.434 176.864 155.298 176.324 155.298C175.764 155.298 175.325 155.421 175.007 155.666C174.688 155.911 174.465 156.173 174.335 156.452L173.222 156.054C173.421 155.59 173.686 155.229 174.017 154.97C174.352 154.708 174.717 154.526 175.111 154.423C175.509 154.317 175.9 154.264 176.284 154.264C176.53 154.264 176.811 154.294 177.129 154.354C177.451 154.41 177.761 154.528 178.059 154.707C178.361 154.886 178.611 155.156 178.81 155.517C179.009 155.878 179.108 156.362 179.108 156.969V162H177.935V160.966H177.875C177.796 161.132 177.663 161.309 177.477 161.498C177.292 161.687 177.045 161.848 176.737 161.98C176.428 162.113 176.052 162.179 175.608 162.179ZM175.787 161.125C176.251 161.125 176.642 161.034 176.96 160.852C177.282 160.669 177.524 160.434 177.686 160.146C177.852 159.857 177.935 159.554 177.935 159.236V158.162C177.885 158.222 177.776 158.276 177.607 158.326C177.441 158.372 177.249 158.414 177.03 158.45C176.815 158.483 176.604 158.513 176.399 158.54C176.196 158.563 176.032 158.583 175.906 158.599C175.602 158.639 175.316 158.704 175.051 158.793C174.789 158.879 174.577 159.01 174.415 159.186C174.256 159.358 174.176 159.594 174.176 159.892C174.176 160.3 174.327 160.608 174.629 160.817C174.934 161.022 175.32 161.125 175.787 161.125ZM186.46 164.864V160.827H186.36C186.274 160.966 186.152 161.142 185.993 161.354C185.833 161.562 185.606 161.75 185.311 161.915C185.016 162.078 184.624 162.159 184.133 162.159C183.497 162.159 182.935 161.998 182.448 161.677C181.961 161.352 181.579 160.895 181.304 160.305C181.029 159.711 180.892 159.01 180.892 158.202C180.892 157.4 181.029 156.704 181.304 156.114C181.579 155.524 181.962 155.068 182.453 154.746C182.943 154.425 183.51 154.264 184.153 154.264C184.65 154.264 185.043 154.347 185.331 154.513C185.623 154.675 185.845 154.861 185.998 155.07C186.153 155.275 186.274 155.444 186.36 155.577H186.5V154.364H187.633V164.864H186.46ZM184.292 161.105C184.763 161.105 185.161 160.982 185.485 160.737C185.81 160.489 186.057 160.146 186.226 159.708C186.395 159.267 186.48 158.759 186.48 158.182C186.48 157.612 186.397 157.113 186.231 156.685C186.065 156.254 185.82 155.92 185.495 155.681C185.171 155.439 184.77 155.318 184.292 155.318C183.795 155.318 183.381 155.446 183.049 155.701C182.721 155.953 182.474 156.296 182.309 156.73C182.146 157.161 182.065 157.645 182.065 158.182C182.065 158.725 182.148 159.219 182.314 159.663C182.483 160.104 182.731 160.455 183.059 160.717C183.391 160.976 183.802 161.105 184.292 161.105ZM194.593 158.878V154.364H195.767V162H194.593V160.707H194.514C194.335 161.095 194.056 161.425 193.679 161.697C193.301 161.965 192.824 162.099 192.247 162.099C191.77 162.099 191.345 161.995 190.974 161.786C190.603 161.574 190.311 161.256 190.099 160.832C189.887 160.404 189.781 159.866 189.781 159.216V154.364H190.954V159.136C190.954 159.693 191.11 160.137 191.422 160.469C191.736 160.8 192.137 160.966 192.625 160.966C192.916 160.966 193.213 160.891 193.515 160.742C193.819 160.593 194.075 160.364 194.28 160.056C194.489 159.748 194.593 159.355 194.593 158.878ZM197.916 162V154.364H199.089V162H197.916ZM198.512 153.091C198.284 153.091 198.086 153.013 197.921 152.857C197.758 152.701 197.677 152.514 197.677 152.295C197.677 152.077 197.758 151.889 197.921 151.734C198.086 151.578 198.284 151.5 198.512 151.5C198.741 151.5 198.936 151.578 199.099 151.734C199.265 151.889 199.347 152.077 199.347 152.295C199.347 152.514 199.265 152.701 199.099 152.857C198.936 153.013 198.741 153.091 198.512 153.091ZM202.411 151.818V162H201.238V151.818H202.411ZM205.733 151.818V162H204.56V151.818H205.733ZM210.13 162.179C209.646 162.179 209.207 162.088 208.812 161.906C208.418 161.72 208.105 161.453 207.873 161.105C207.641 160.754 207.525 160.33 207.525 159.832C207.525 159.395 207.611 159.04 207.783 158.768C207.955 158.493 208.186 158.278 208.474 158.122C208.762 157.966 209.081 157.85 209.429 157.774C209.78 157.695 210.133 157.632 210.488 157.585C210.952 157.526 211.328 157.481 211.616 157.451C211.908 157.418 212.12 157.363 212.252 157.287C212.388 157.211 212.456 157.078 212.456 156.889V156.849C212.456 156.359 212.322 155.978 212.054 155.706C211.788 155.434 211.386 155.298 210.846 155.298C210.285 155.298 209.846 155.421 209.528 155.666C209.21 155.911 208.986 156.173 208.857 156.452L207.743 156.054C207.942 155.59 208.207 155.229 208.539 154.97C208.873 154.708 209.238 154.526 209.632 154.423C210.03 154.317 210.421 154.264 210.806 154.264C211.051 154.264 211.333 154.294 211.651 154.354C211.972 154.41 212.282 154.528 212.581 154.707C212.882 154.886 213.132 155.156 213.331 155.517C213.53 155.878 213.63 156.362 213.63 156.969V162H212.456V160.966H212.397C212.317 161.132 212.185 161.309 211.999 161.498C211.813 161.687 211.566 161.848 211.258 161.98C210.95 162.113 210.574 162.179 210.13 162.179ZM210.309 161.125C210.773 161.125 211.164 161.034 211.482 160.852C211.803 160.669 212.045 160.434 212.208 160.146C212.373 159.857 212.456 159.554 212.456 159.236V158.162C212.407 158.222 212.297 158.276 212.128 158.326C211.962 158.372 211.77 158.414 211.551 158.45C211.336 158.483 211.126 158.513 210.92 158.54C210.718 158.563 210.554 158.583 210.428 158.599C210.123 158.639 209.838 158.704 209.573 158.793C209.311 158.879 209.099 159.01 208.936 159.186C208.777 159.358 208.698 159.594 208.698 159.892C208.698 160.3 208.849 160.608 209.15 160.817C209.455 161.022 209.841 161.125 210.309 161.125ZM215.771 154.364H216.944V162.557C216.944 163.027 216.863 163.435 216.701 163.78C216.542 164.125 216.3 164.391 215.975 164.58C215.653 164.769 215.247 164.864 214.757 164.864C214.717 164.864 214.677 164.864 214.638 164.864C214.598 164.864 214.558 164.864 214.518 164.864V163.77C214.558 163.77 214.595 163.77 214.628 163.77C214.661 163.77 214.697 163.77 214.737 163.77C215.095 163.77 215.357 163.664 215.523 163.452C215.688 163.243 215.771 162.945 215.771 162.557V154.364ZM216.348 153.091C216.119 153.091 215.922 153.013 215.756 152.857C215.594 152.701 215.513 152.514 215.513 152.295C215.513 152.077 215.594 151.889 215.756 151.734C215.922 151.578 216.119 151.5 216.348 151.5C216.577 151.5 216.772 151.578 216.934 151.734C217.1 151.889 217.183 152.077 217.183 152.295C217.183 152.514 217.1 152.701 216.934 152.857C216.772 153.013 216.577 153.091 216.348 153.091ZM222.295 162.159C221.559 162.159 220.925 161.997 220.391 161.672C219.861 161.344 219.451 160.886 219.163 160.3C218.878 159.71 218.735 159.024 218.735 158.241C218.735 157.459 218.878 156.77 219.163 156.173C219.451 155.573 219.852 155.106 220.366 154.771C220.883 154.433 221.486 154.264 222.176 154.264C222.574 154.264 222.966 154.33 223.354 154.463C223.742 154.596 224.095 154.811 224.413 155.109C224.731 155.404 224.985 155.795 225.174 156.283C225.363 156.77 225.457 157.37 225.457 158.082V158.58H219.571V157.565H224.264C224.264 157.134 224.178 156.75 224.005 156.412C223.836 156.074 223.594 155.807 223.279 155.612C222.968 155.416 222.6 155.318 222.176 155.318C221.708 155.318 221.304 155.434 220.963 155.666C220.625 155.895 220.364 156.193 220.182 156.561C220 156.929 219.909 157.323 219.909 157.744V158.42C219.909 158.997 220.008 159.486 220.207 159.887C220.409 160.285 220.689 160.588 221.047 160.797C221.405 161.002 221.821 161.105 222.295 161.105C222.603 161.105 222.882 161.062 223.13 160.976C223.382 160.886 223.599 160.754 223.782 160.578C223.964 160.399 224.105 160.177 224.204 159.912L225.338 160.23C225.218 160.615 225.018 160.953 224.736 161.244C224.454 161.533 224.106 161.758 223.692 161.92C223.278 162.08 222.812 162.159 222.295 162.159Z" fill="white"/>
<path d="M172.659 184.219C171.534 184.219 170.534 184.026 169.659 183.641C168.789 183.255 168.102 182.719 167.597 182.031C167.091 181.344 166.823 180.549 166.792 179.648H169.729C169.756 180.081 169.899 180.458 170.159 180.781C170.42 181.099 170.766 181.346 171.198 181.523C171.631 181.701 172.115 181.789 172.651 181.789C173.224 181.789 173.732 181.69 174.175 181.492C174.618 181.289 174.964 181.008 175.214 180.648C175.464 180.289 175.586 179.875 175.581 179.406C175.586 178.922 175.461 178.495 175.206 178.125C174.951 177.755 174.581 177.466 174.097 177.258C173.618 177.049 173.039 176.945 172.362 176.945H170.948V174.711H172.362C172.92 174.711 173.407 174.615 173.823 174.422C174.245 174.229 174.576 173.958 174.815 173.609C175.055 173.255 175.172 172.846 175.167 172.383C175.172 171.93 175.071 171.536 174.862 171.203C174.659 170.865 174.37 170.602 173.995 170.414C173.625 170.227 173.19 170.133 172.69 170.133C172.201 170.133 171.748 170.221 171.331 170.398C170.914 170.576 170.578 170.828 170.323 171.156C170.068 171.479 169.933 171.865 169.917 172.312H167.128C167.149 171.417 167.407 170.63 167.901 169.953C168.401 169.271 169.068 168.74 169.901 168.359C170.735 167.974 171.67 167.781 172.706 167.781C173.774 167.781 174.701 167.982 175.487 168.383C176.279 168.779 176.891 169.312 177.323 169.984C177.756 170.656 177.972 171.398 177.972 172.211C177.977 173.112 177.711 173.867 177.175 174.477C176.644 175.086 175.946 175.484 175.081 175.672V175.797C176.206 175.953 177.068 176.37 177.667 177.047C178.271 177.719 178.571 178.555 178.565 179.555C178.565 180.451 178.31 181.253 177.8 181.961C177.295 182.664 176.597 183.216 175.706 183.617C174.821 184.018 173.805 184.219 172.659 184.219ZM182.548 184.172C182.074 184.172 181.668 184.005 181.329 183.672C180.991 183.339 180.824 182.932 180.829 182.453C180.824 181.984 180.991 181.583 181.329 181.25C181.668 180.917 182.074 180.75 182.548 180.75C183.006 180.75 183.405 180.917 183.743 181.25C184.087 181.583 184.261 181.984 184.267 182.453C184.261 182.771 184.178 183.06 184.017 183.32C183.86 183.581 183.652 183.789 183.392 183.945C183.136 184.096 182.855 184.172 182.548 184.172ZM191.687 168V184H188.788V170.82H188.694L184.952 173.211V170.555L188.929 168H191.687ZM201.608 184.219C200.843 184.214 200.095 184.081 199.366 183.82C198.637 183.555 197.981 183.125 197.397 182.531C196.814 181.932 196.351 181.138 196.007 180.148C195.663 179.154 195.494 177.922 195.499 176.453C195.499 175.083 195.645 173.862 195.937 172.789C196.228 171.716 196.647 170.81 197.194 170.07C197.741 169.326 198.4 168.758 199.171 168.367C199.947 167.977 200.814 167.781 201.772 167.781C202.778 167.781 203.668 167.979 204.444 168.375C205.226 168.771 205.856 169.312 206.335 170C206.814 170.682 207.111 171.453 207.226 172.312H204.374C204.228 171.698 203.929 171.208 203.476 170.844C203.028 170.474 202.46 170.289 201.772 170.289C200.663 170.289 199.809 170.771 199.21 171.734C198.616 172.698 198.317 174.021 198.312 175.703H198.421C198.676 175.245 199.007 174.852 199.413 174.523C199.819 174.195 200.278 173.943 200.788 173.766C201.304 173.583 201.848 173.492 202.421 173.492C203.358 173.492 204.2 173.716 204.944 174.164C205.694 174.612 206.288 175.229 206.726 176.016C207.163 176.797 207.379 177.693 207.374 178.703C207.379 179.755 207.14 180.701 206.655 181.539C206.171 182.372 205.496 183.029 204.632 183.508C203.767 183.987 202.759 184.224 201.608 184.219ZM201.593 181.875C202.16 181.875 202.668 181.737 203.116 181.461C203.564 181.185 203.918 180.812 204.179 180.344C204.439 179.875 204.567 179.349 204.562 178.766C204.567 178.193 204.442 177.674 204.187 177.211C203.937 176.747 203.59 176.38 203.147 176.109C202.705 175.839 202.2 175.703 201.632 175.703C201.21 175.703 200.817 175.784 200.452 175.945C200.088 176.107 199.77 176.331 199.499 176.617C199.228 176.898 199.015 177.227 198.858 177.602C198.707 177.971 198.629 178.367 198.624 178.789C198.629 179.346 198.759 179.859 199.015 180.328C199.27 180.797 199.621 181.172 200.069 181.453C200.517 181.734 201.025 181.875 201.593 181.875ZM210.601 184L217.405 170.531V170.422H209.507V168H220.405V170.477L213.608 184H210.601Z" fill="white"/>
</svg>
