<svg width="567" height="225" viewBox="0 0 567 225" fill="none" xmlns="http://www.w3.org/2000/svg">
<path d="M15.353 11.1392C14.7696 11.1392 14.2443 11.0232 13.777 10.7912C13.3097 10.5592 12.9351 10.241 12.6534 9.83665C12.3717 9.43229 12.2176 8.97159 12.1911 8.45455H13.3842C13.4306 8.91525 13.6394 9.2964 14.0107 9.59801C14.3852 9.89631 14.8326 10.0455 15.353 10.0455C15.7706 10.0455 16.1418 9.94768 16.4666 9.75213C16.7947 9.55658 17.0516 9.28812 17.2372 8.94673C17.4261 8.60204 17.5206 8.21259 17.5206 7.77841C17.5206 7.33428 17.4228 6.93821 17.2273 6.5902C17.035 6.23887 16.7699 5.96212 16.4318 5.75994C16.0938 5.55776 15.7076 5.45502 15.2734 5.4517C14.9619 5.44839 14.642 5.49645 14.3139 5.59588C13.9858 5.692 13.7157 5.81629 13.5036 5.96875L12.3501 5.82955L12.9666 0.818182H18.2564V1.91193H14.0007L13.6428 4.91477H13.7024C13.9112 4.74905 14.1731 4.61151 14.4879 4.50213C14.8028 4.39276 15.1309 4.33807 15.4723 4.33807C16.0954 4.33807 16.6506 4.48722 17.1378 4.78551C17.6283 5.08049 18.0128 5.48485 18.2912 5.99858C18.5729 6.51231 18.7138 7.09896 18.7138 7.75852C18.7138 8.40814 18.5679 8.98816 18.2763 9.49858C17.9879 10.0057 17.5902 10.4067 17.0831 10.7017C16.576 10.9934 15.9993 11.1392 15.353 11.1392ZM24.0098 11.1392C23.2607 11.1392 22.6227 10.9354 22.0957 10.5277C21.5687 10.1167 21.166 9.52178 20.8876 8.7429C20.6092 7.9607 20.47 7.0161 20.47 5.90909C20.47 4.80871 20.6092 3.86908 20.8876 3.0902C21.1693 2.308 21.5737 1.71141 22.1007 1.30043C22.631 0.886126 23.2673 0.678977 24.0098 0.678977C24.7522 0.678977 25.3869 0.886126 25.9139 1.30043C26.4442 1.71141 26.8485 2.308 27.127 3.0902C27.4087 3.86908 27.5495 4.80871 27.5495 5.90909C27.5495 7.0161 27.4103 7.9607 27.1319 8.7429C26.8535 9.52178 26.4508 10.1167 25.9238 10.5277C25.3968 10.9354 24.7588 11.1392 24.0098 11.1392ZM24.0098 10.0455C24.7522 10.0455 25.3289 9.6875 25.7399 8.97159C26.1509 8.25568 26.3564 7.23485 26.3564 5.90909C26.3564 5.02746 26.2619 4.27675 26.073 3.65696C25.8874 3.03717 25.6189 2.56487 25.2676 2.24006C24.9196 1.91525 24.5003 1.75284 24.0098 1.75284C23.274 1.75284 22.6989 2.11577 22.2846 2.84162C21.8703 3.56416 21.6632 4.58665 21.6632 5.90909C21.6632 6.79072 21.756 7.53977 21.9416 8.15625C22.1272 8.77273 22.394 9.24171 22.742 9.56321C23.0933 9.88471 23.5159 10.0455 24.0098 10.0455ZM30.5524 8.21591L30.5325 6.7642H30.7711L34.112 3.36364H35.5637L32.0041 6.96307H31.9047L30.5524 8.21591ZM29.4586 11V0.818182H30.6319V11H29.4586ZM34.3109 11L31.3279 7.22159L32.1632 6.40625L35.8024 11H34.3109Z" fill="#4B465C"/>
<path d="M15.353 11.1392C14.7696 11.1392 14.2443 11.0232 13.777 10.7912C13.3097 10.5592 12.9351 10.241 12.6534 9.83665C12.3717 9.43229 12.2176 8.97159 12.1911 8.45455H13.3842C13.4306 8.91525 13.6394 9.2964 14.0107 9.59801C14.3852 9.89631 14.8326 10.0455 15.353 10.0455C15.7706 10.0455 16.1418 9.94768 16.4666 9.75213C16.7947 9.55658 17.0516 9.28812 17.2372 8.94673C17.4261 8.60204 17.5206 8.21259 17.5206 7.77841C17.5206 7.33428 17.4228 6.93821 17.2273 6.5902C17.035 6.23887 16.7699 5.96212 16.4318 5.75994C16.0938 5.55776 15.7076 5.45502 15.2734 5.4517C14.9619 5.44839 14.642 5.49645 14.3139 5.59588C13.9858 5.692 13.7157 5.81629 13.5036 5.96875L12.3501 5.82955L12.9666 0.818182H18.2564V1.91193H14.0007L13.6428 4.91477H13.7024C13.9112 4.74905 14.1731 4.61151 14.4879 4.50213C14.8028 4.39276 15.1309 4.33807 15.4723 4.33807C16.0954 4.33807 16.6506 4.48722 17.1378 4.78551C17.6283 5.08049 18.0128 5.48485 18.2912 5.99858C18.5729 6.51231 18.7138 7.09896 18.7138 7.75852C18.7138 8.40814 18.5679 8.98816 18.2763 9.49858C17.9879 10.0057 17.5902 10.4067 17.0831 10.7017C16.576 10.9934 15.9993 11.1392 15.353 11.1392ZM24.0098 11.1392C23.2607 11.1392 22.6227 10.9354 22.0957 10.5277C21.5687 10.1167 21.166 9.52178 20.8876 8.7429C20.6092 7.9607 20.47 7.0161 20.47 5.90909C20.47 4.80871 20.6092 3.86908 20.8876 3.0902C21.1693 2.308 21.5737 1.71141 22.1007 1.30043C22.631 0.886126 23.2673 0.678977 24.0098 0.678977C24.7522 0.678977 25.3869 0.886126 25.9139 1.30043C26.4442 1.71141 26.8485 2.308 27.127 3.0902C27.4087 3.86908 27.5495 4.80871 27.5495 5.90909C27.5495 7.0161 27.4103 7.9607 27.1319 8.7429C26.8535 9.52178 26.4508 10.1167 25.9238 10.5277C25.3968 10.9354 24.7588 11.1392 24.0098 11.1392ZM24.0098 10.0455C24.7522 10.0455 25.3289 9.6875 25.7399 8.97159C26.1509 8.25568 26.3564 7.23485 26.3564 5.90909C26.3564 5.02746 26.2619 4.27675 26.073 3.65696C25.8874 3.03717 25.6189 2.56487 25.2676 2.24006C24.9196 1.91525 24.5003 1.75284 24.0098 1.75284C23.274 1.75284 22.6989 2.11577 22.2846 2.84162C21.8703 3.56416 21.6632 4.58665 21.6632 5.90909C21.6632 6.79072 21.756 7.53977 21.9416 8.15625C22.1272 8.77273 22.394 9.24171 22.742 9.56321C23.0933 9.88471 23.5159 10.0455 24.0098 10.0455ZM30.5524 8.21591L30.5325 6.7642H30.7711L34.112 3.36364H35.5637L32.0041 6.96307H31.9047L30.5524 8.21591ZM29.4586 11V0.818182H30.6319V11H29.4586ZM34.3109 11L31.3279 7.22159L32.1632 6.40625L35.8024 11H34.3109Z" fill="white" fill-opacity="0.5"/>
<path d="M11.1415 47.5119V46.4977L15.6159 39.4182H16.3517V40.9892H15.8546L12.4739 46.3386V46.4182H18.4995V47.5119H11.1415ZM15.9341 49.6V47.2037V46.7314V39.4182H17.1074V49.6H15.9341ZM23.6836 49.7392C22.9345 49.7392 22.2965 49.5353 21.7695 49.1277C21.2425 48.7167 20.8398 48.1218 20.5614 47.3429C20.283 46.5607 20.1438 45.6161 20.1438 44.5091C20.1438 43.4087 20.283 42.4691 20.5614 41.6902C20.8432 40.908 21.2475 40.3114 21.7745 39.9004C22.3048 39.4861 22.9412 39.279 23.6836 39.279C24.426 39.279 25.0607 39.4861 25.5877 39.9004C26.118 40.3114 26.5224 40.908 26.8008 41.6902C27.0825 42.4691 27.2234 43.4087 27.2234 44.5091C27.2234 45.6161 27.0842 46.5607 26.8058 47.3429C26.5273 48.1218 26.1246 48.7167 25.5977 49.1277C25.0707 49.5353 24.4326 49.7392 23.6836 49.7392ZM23.6836 48.6454C24.426 48.6454 25.0027 48.2875 25.4137 47.5716C25.8247 46.8557 26.0302 45.8348 26.0302 44.5091C26.0302 43.6274 25.9357 42.8767 25.7468 42.2569C25.5612 41.6371 25.2927 41.1648 24.9414 40.84C24.5934 40.5152 24.1741 40.3528 23.6836 40.3528C22.9478 40.3528 22.3728 40.7157 21.9585 41.4416C21.5442 42.1641 21.337 43.1866 21.337 44.5091C21.337 45.3907 21.4298 46.1397 21.6154 46.7562C21.801 47.3727 22.0678 47.8417 22.4158 48.1632C22.7672 48.4847 23.1897 48.6454 23.6836 48.6454ZM30.2262 46.8159L30.2063 45.3642H30.445L33.7859 41.9636H35.2376L31.6779 45.563H31.5785L30.2262 46.8159ZM29.1325 49.6V39.4182H30.3058V49.6H29.1325ZM33.9847 49.6L31.0018 45.8216L31.837 45.0062L35.4762 49.6H33.9847Z" fill="#4B465C"/>
<path d="M11.1415 47.5119V46.4977L15.6159 39.4182H16.3517V40.9892H15.8546L12.4739 46.3386V46.4182H18.4995V47.5119H11.1415ZM15.9341 49.6V47.2037V46.7314V39.4182H17.1074V49.6H15.9341ZM23.6836 49.7392C22.9345 49.7392 22.2965 49.5353 21.7695 49.1277C21.2425 48.7167 20.8398 48.1218 20.5614 47.3429C20.283 46.5607 20.1438 45.6161 20.1438 44.5091C20.1438 43.4087 20.283 42.4691 20.5614 41.6902C20.8432 40.908 21.2475 40.3114 21.7745 39.9004C22.3048 39.4861 22.9412 39.279 23.6836 39.279C24.426 39.279 25.0607 39.4861 25.5877 39.9004C26.118 40.3114 26.5224 40.908 26.8008 41.6902C27.0825 42.4691 27.2234 43.4087 27.2234 44.5091C27.2234 45.6161 27.0842 46.5607 26.8058 47.3429C26.5273 48.1218 26.1246 48.7167 25.5977 49.1277C25.0707 49.5353 24.4326 49.7392 23.6836 49.7392ZM23.6836 48.6454C24.426 48.6454 25.0027 48.2875 25.4137 47.5716C25.8247 46.8557 26.0302 45.8348 26.0302 44.5091C26.0302 43.6274 25.9357 42.8767 25.7468 42.2569C25.5612 41.6371 25.2927 41.1648 24.9414 40.84C24.5934 40.5152 24.1741 40.3528 23.6836 40.3528C22.9478 40.3528 22.3728 40.7157 21.9585 41.4416C21.5442 42.1641 21.337 43.1866 21.337 44.5091C21.337 45.3907 21.4298 46.1397 21.6154 46.7562C21.801 47.3727 22.0678 47.8417 22.4158 48.1632C22.7672 48.4847 23.1897 48.6454 23.6836 48.6454ZM30.2262 46.8159L30.2063 45.3642H30.445L33.7859 41.9636H35.2376L31.6779 45.563H31.5785L30.2262 46.8159ZM29.1325 49.6V39.4182H30.3058V49.6H29.1325ZM33.9847 49.6L31.0018 45.8216L31.837 45.0062L35.4762 49.6H33.9847Z" fill="white" fill-opacity="0.5"/>
<path d="M14.8547 88.3392C14.1984 88.3392 13.6134 88.2265 13.0997 88.0011C12.5893 87.7758 12.1833 87.4626 11.8817 87.0615C11.5834 86.6572 11.421 86.1882 11.3944 85.6546H12.6473C12.6738 85.9827 12.7865 86.2661 12.9854 86.5047C13.1842 86.74 13.4444 86.9223 13.7659 87.0516C14.0874 87.1808 14.4437 87.2455 14.8348 87.2455C15.2723 87.2455 15.6601 87.1692 15.9981 87.0168C16.3362 86.8643 16.6014 86.6522 16.7936 86.3804C16.9858 86.1086 17.0819 85.7938 17.0819 85.4358C17.0819 85.0613 16.9891 84.7315 16.8035 84.4465C16.6179 84.1581 16.3461 83.9327 15.9882 83.7703C15.6302 83.6079 15.1927 83.5267 14.6757 83.5267H13.8604V82.433H14.6757C15.08 82.433 15.4347 82.36 15.7396 82.2142C16.0479 82.0684 16.2881 81.8629 16.4605 81.5977C16.6362 81.3326 16.724 81.021 16.724 80.6631C16.724 80.3184 16.6478 80.0184 16.4953 79.7632C16.3428 79.508 16.1274 79.3092 15.849 79.1666C15.5739 79.0241 15.2491 78.9529 14.8746 78.9529C14.5232 78.9529 14.1918 79.0175 13.8802 79.1467C13.572 79.2727 13.3201 79.4566 13.1246 79.6986C12.929 79.9372 12.8229 80.2256 12.8064 80.5636H11.6132C11.6331 80.03 11.7938 79.5627 12.0954 79.1617C12.397 78.7573 12.7915 78.4424 13.2787 78.2171C13.7692 77.9917 14.3078 77.879 14.8944 77.879C15.5242 77.879 16.0644 78.0066 16.5152 78.2618C16.9659 78.5137 17.3123 78.8468 17.5542 79.2611C17.7962 79.6754 17.9172 80.1228 17.9172 80.6034C17.9172 81.1768 17.7664 81.6657 17.4648 82.07C17.1665 82.4744 16.7604 82.7545 16.2467 82.9102V82.9898C16.8897 83.0958 17.3918 83.3693 17.7531 83.8101C18.1144 84.2476 18.295 84.7895 18.295 85.4358C18.295 85.9893 18.1442 86.4865 17.8426 86.9273C17.5443 87.3648 17.1366 87.7095 16.6196 87.9614C16.1025 88.2133 15.5142 88.3392 14.8547 88.3392ZM23.6494 88.3392C22.9004 88.3392 22.2623 88.1354 21.7354 87.7277C21.2084 87.3167 20.8057 86.7218 20.5273 85.9429C20.2488 85.1607 20.1096 84.2161 20.1096 83.1091C20.1096 82.0087 20.2488 81.0691 20.5273 80.2902C20.809 79.508 21.2133 78.9114 21.7403 78.5004C22.2706 78.0861 22.907 77.879 23.6494 77.879C24.3918 77.879 25.0265 78.0861 25.5535 78.5004C26.0838 78.9114 26.4882 79.508 26.7666 80.2902C27.0483 81.0691 27.1892 82.0087 27.1892 83.1091C27.1892 84.2161 27.05 85.1607 26.7716 85.9429C26.4932 86.7218 26.0905 87.3167 25.5635 87.7277C25.0365 88.1354 24.3985 88.3392 23.6494 88.3392ZM23.6494 87.2455C24.3918 87.2455 24.9685 86.8875 25.3795 86.1716C25.7905 85.4557 25.996 84.4349 25.996 83.1091C25.996 82.2275 25.9015 81.4768 25.7126 80.857C25.527 80.2372 25.2586 79.7649 24.9072 79.4401C24.5592 79.1153 24.1399 78.9529 23.6494 78.9529C22.9136 78.9529 22.3386 79.3158 21.9243 80.0416C21.51 80.7642 21.3028 81.7867 21.3028 83.1091C21.3028 83.9907 21.3956 84.7398 21.5812 85.3563C21.7668 85.9727 22.0336 86.4417 22.3817 86.7632C22.733 87.0847 23.1556 87.2455 23.6494 87.2455ZM30.192 85.4159L30.1721 83.9642H30.4108L33.7517 80.5636H35.2034L31.6437 84.1631H31.5443L30.192 85.4159ZM29.0983 88.2V78.0182H30.2716V88.2H29.0983ZM33.9506 88.2L30.9676 84.4216L31.8028 83.6063L35.442 88.2H33.9506Z" fill="#4B465C"/>
<path d="M14.8547 88.3392C14.1984 88.3392 13.6134 88.2265 13.0997 88.0011C12.5893 87.7758 12.1833 87.4626 11.8817 87.0615C11.5834 86.6572 11.421 86.1882 11.3944 85.6546H12.6473C12.6738 85.9827 12.7865 86.2661 12.9854 86.5047C13.1842 86.74 13.4444 86.9223 13.7659 87.0516C14.0874 87.1808 14.4437 87.2455 14.8348 87.2455C15.2723 87.2455 15.6601 87.1692 15.9981 87.0168C16.3362 86.8643 16.6014 86.6522 16.7936 86.3804C16.9858 86.1086 17.0819 85.7938 17.0819 85.4358C17.0819 85.0613 16.9891 84.7315 16.8035 84.4465C16.6179 84.1581 16.3461 83.9327 15.9882 83.7703C15.6302 83.6079 15.1927 83.5267 14.6757 83.5267H13.8604V82.433H14.6757C15.08 82.433 15.4347 82.36 15.7396 82.2142C16.0479 82.0684 16.2881 81.8629 16.4605 81.5977C16.6362 81.3326 16.724 81.021 16.724 80.6631C16.724 80.3184 16.6478 80.0184 16.4953 79.7632C16.3428 79.508 16.1274 79.3092 15.849 79.1666C15.5739 79.0241 15.2491 78.9529 14.8746 78.9529C14.5232 78.9529 14.1918 79.0175 13.8802 79.1467C13.572 79.2727 13.3201 79.4566 13.1246 79.6986C12.929 79.9372 12.8229 80.2256 12.8064 80.5636H11.6132C11.6331 80.03 11.7938 79.5627 12.0954 79.1617C12.397 78.7573 12.7915 78.4424 13.2787 78.2171C13.7692 77.9917 14.3078 77.879 14.8944 77.879C15.5242 77.879 16.0644 78.0066 16.5152 78.2618C16.9659 78.5137 17.3123 78.8468 17.5542 79.2611C17.7962 79.6754 17.9172 80.1228 17.9172 80.6034C17.9172 81.1768 17.7664 81.6657 17.4648 82.07C17.1665 82.4744 16.7604 82.7545 16.2467 82.9102V82.9898C16.8897 83.0958 17.3918 83.3693 17.7531 83.8101C18.1144 84.2476 18.295 84.7895 18.295 85.4358C18.295 85.9893 18.1442 86.4865 17.8426 86.9273C17.5443 87.3648 17.1366 87.7095 16.6196 87.9614C16.1025 88.2133 15.5142 88.3392 14.8547 88.3392ZM23.6494 88.3392C22.9004 88.3392 22.2623 88.1354 21.7354 87.7277C21.2084 87.3167 20.8057 86.7218 20.5273 85.9429C20.2488 85.1607 20.1096 84.2161 20.1096 83.1091C20.1096 82.0087 20.2488 81.0691 20.5273 80.2902C20.809 79.508 21.2133 78.9114 21.7403 78.5004C22.2706 78.0861 22.907 77.879 23.6494 77.879C24.3918 77.879 25.0265 78.0861 25.5535 78.5004C26.0838 78.9114 26.4882 79.508 26.7666 80.2902C27.0483 81.0691 27.1892 82.0087 27.1892 83.1091C27.1892 84.2161 27.05 85.1607 26.7716 85.9429C26.4932 86.7218 26.0905 87.3167 25.5635 87.7277C25.0365 88.1354 24.3985 88.3392 23.6494 88.3392ZM23.6494 87.2455C24.3918 87.2455 24.9685 86.8875 25.3795 86.1716C25.7905 85.4557 25.996 84.4349 25.996 83.1091C25.996 82.2275 25.9015 81.4768 25.7126 80.857C25.527 80.2372 25.2586 79.7649 24.9072 79.4401C24.5592 79.1153 24.1399 78.9529 23.6494 78.9529C22.9136 78.9529 22.3386 79.3158 21.9243 80.0416C21.51 80.7642 21.3028 81.7867 21.3028 83.1091C21.3028 83.9907 21.3956 84.7398 21.5812 85.3563C21.7668 85.9727 22.0336 86.4417 22.3817 86.7632C22.733 87.0847 23.1556 87.2455 23.6494 87.2455ZM30.192 85.4159L30.1721 83.9642H30.4108L33.7517 80.5636H35.2034L31.6437 84.1631H31.5443L30.192 85.4159ZM29.0983 88.2V78.0182H30.2716V88.2H29.0983ZM33.9506 88.2L30.9676 84.4216L31.8028 83.6063L35.442 88.2H33.9506Z" fill="white" fill-opacity="0.5"/>
<path d="M12.1331 126.8V125.905L15.4939 122.226C15.8883 121.795 16.2131 121.421 16.4683 121.103C16.7235 120.781 16.9124 120.479 17.0351 120.198C17.161 119.913 17.224 119.614 17.224 119.303C17.224 118.945 17.1378 118.635 16.9655 118.373C16.7964 118.111 16.5644 117.909 16.2694 117.767C15.9745 117.624 15.643 117.553 15.2751 117.553C14.884 117.553 14.5426 117.634 14.251 117.796C13.9626 117.956 13.7389 118.179 13.5798 118.468C13.424 118.756 13.3461 119.094 13.3461 119.482H12.1729C12.1729 118.885 12.3104 118.362 12.5855 117.911C12.8606 117.46 13.2351 117.109 13.7091 116.857C14.1863 116.605 14.7216 116.479 15.3149 116.479C15.9115 116.479 16.4401 116.605 16.9008 116.857C17.3615 117.109 17.7228 117.448 17.9846 117.876C18.2465 118.304 18.3774 118.779 18.3774 119.303C18.3774 119.677 18.3095 120.044 18.1736 120.402C18.041 120.756 17.809 121.152 17.4775 121.59C17.1494 122.024 16.6937 122.554 16.1104 123.181L13.8234 125.627V125.706H18.5564V126.8H12.1331ZM23.9307 126.939C23.1816 126.939 22.5436 126.735 22.0166 126.328C21.4896 125.917 21.0869 125.322 20.8085 124.543C20.5301 123.761 20.3909 122.816 20.3909 121.709C20.3909 120.609 20.5301 119.669 20.8085 118.89C21.0902 118.108 21.4946 117.511 22.0216 117.1C22.5519 116.686 23.1882 116.479 23.9307 116.479C24.6731 116.479 25.3078 116.686 25.8348 117.1C26.3651 117.511 26.7694 118.108 27.0479 118.89C27.3296 119.669 27.4704 120.609 27.4704 121.709C27.4704 122.816 27.3312 123.761 27.0528 124.543C26.7744 125.322 26.3717 125.917 25.8447 126.328C25.3177 126.735 24.6797 126.939 23.9307 126.939ZM23.9307 125.845C24.6731 125.845 25.2498 125.487 25.6608 124.772C26.0718 124.056 26.2773 123.035 26.2773 121.709C26.2773 120.827 26.1828 120.077 25.9939 119.457C25.8083 118.837 25.5398 118.365 25.1885 118.04C24.8405 117.715 24.4212 117.553 23.9307 117.553C23.1949 117.553 22.6198 117.916 22.2055 118.642C21.7912 119.364 21.5841 120.387 21.5841 121.709C21.5841 122.591 21.6769 123.34 21.8625 123.956C22.0481 124.573 22.3149 125.042 22.6629 125.363C23.0142 125.685 23.4368 125.845 23.9307 125.845ZM30.4733 124.016L30.4534 122.564H30.692L34.0329 119.164H35.4846L31.925 122.763H31.8256L30.4733 124.016ZM29.3795 126.8V116.618H30.5528V126.8H29.3795ZM34.2318 126.8L31.2488 123.022L32.0841 122.206L35.7233 126.8H34.2318Z" fill="#4B465C"/>
<path d="M12.1331 126.8V125.905L15.4939 122.226C15.8883 121.795 16.2131 121.421 16.4683 121.103C16.7235 120.781 16.9124 120.479 17.0351 120.198C17.161 119.913 17.224 119.614 17.224 119.303C17.224 118.945 17.1378 118.635 16.9655 118.373C16.7964 118.111 16.5644 117.909 16.2694 117.767C15.9745 117.624 15.643 117.553 15.2751 117.553C14.884 117.553 14.5426 117.634 14.251 117.796C13.9626 117.956 13.7389 118.179 13.5798 118.468C13.424 118.756 13.3461 119.094 13.3461 119.482H12.1729C12.1729 118.885 12.3104 118.362 12.5855 117.911C12.8606 117.46 13.2351 117.109 13.7091 116.857C14.1863 116.605 14.7216 116.479 15.3149 116.479C15.9115 116.479 16.4401 116.605 16.9008 116.857C17.3615 117.109 17.7228 117.448 17.9846 117.876C18.2465 118.304 18.3774 118.779 18.3774 119.303C18.3774 119.677 18.3095 120.044 18.1736 120.402C18.041 120.756 17.809 121.152 17.4775 121.59C17.1494 122.024 16.6937 122.554 16.1104 123.181L13.8234 125.627V125.706H18.5564V126.8H12.1331ZM23.9307 126.939C23.1816 126.939 22.5436 126.735 22.0166 126.328C21.4896 125.917 21.0869 125.322 20.8085 124.543C20.5301 123.761 20.3909 122.816 20.3909 121.709C20.3909 120.609 20.5301 119.669 20.8085 118.89C21.0902 118.108 21.4946 117.511 22.0216 117.1C22.5519 116.686 23.1882 116.479 23.9307 116.479C24.6731 116.479 25.3078 116.686 25.8348 117.1C26.3651 117.511 26.7694 118.108 27.0479 118.89C27.3296 119.669 27.4704 120.609 27.4704 121.709C27.4704 122.816 27.3312 123.761 27.0528 124.543C26.7744 125.322 26.3717 125.917 25.8447 126.328C25.3177 126.735 24.6797 126.939 23.9307 126.939ZM23.9307 125.845C24.6731 125.845 25.2498 125.487 25.6608 124.772C26.0718 124.056 26.2773 123.035 26.2773 121.709C26.2773 120.827 26.1828 120.077 25.9939 119.457C25.8083 118.837 25.5398 118.365 25.1885 118.04C24.8405 117.715 24.4212 117.553 23.9307 117.553C23.1949 117.553 22.6198 117.916 22.2055 118.642C21.7912 119.364 21.5841 120.387 21.5841 121.709C21.5841 122.591 21.6769 123.34 21.8625 123.956C22.0481 124.573 22.3149 125.042 22.6629 125.363C23.0142 125.685 23.4368 125.845 23.9307 125.845ZM30.4733 124.016L30.4534 122.564H30.692L34.0329 119.164H35.4846L31.925 122.763H31.8256L30.4733 124.016ZM29.3795 126.8V116.618H30.5528V126.8H29.3795ZM34.2318 126.8L31.2488 123.022L32.0841 122.206L35.7233 126.8H34.2318Z" fill="white" fill-opacity="0.5"/>
<path d="M17.697 155.218V165.4H16.464V156.511H16.4044L13.9186 158.161V156.909L16.464 155.218H17.697ZM23.9463 165.539C23.1972 165.539 22.5592 165.335 22.0322 164.928C21.5052 164.517 21.1025 163.922 20.8241 163.143C20.5457 162.361 20.4065 161.416 20.4065 160.309C20.4065 159.209 20.5457 158.269 20.8241 157.49C21.1059 156.708 21.5102 156.111 22.0372 155.7C22.5675 155.286 23.2039 155.079 23.9463 155.079C24.6887 155.079 25.3234 155.286 25.8504 155.7C26.3807 156.111 26.7851 156.708 27.0635 157.49C27.3452 158.269 27.4861 159.209 27.4861 160.309C27.4861 161.416 27.3469 162.361 27.0684 163.143C26.79 163.922 26.3873 164.517 25.8604 164.928C25.3334 165.335 24.6953 165.539 23.9463 165.539ZM23.9463 164.445C24.6887 164.445 25.2654 164.087 25.6764 163.372C26.0874 162.656 26.2929 161.635 26.2929 160.309C26.2929 159.427 26.1984 158.677 26.0095 158.057C25.8239 157.437 25.5554 156.965 25.2041 156.64C24.8561 156.315 24.4368 156.153 23.9463 156.153C23.2105 156.153 22.6354 156.516 22.2211 157.242C21.8068 157.964 21.5997 158.987 21.5997 160.309C21.5997 161.191 21.6925 161.94 21.8781 162.556C22.0637 163.173 22.3305 163.642 22.6785 163.963C23.0299 164.285 23.4524 164.445 23.9463 164.445ZM30.4889 162.616L30.469 161.164H30.7077L34.0486 157.764H35.5003L31.9406 161.363H31.8412L30.4889 162.616ZM29.3952 165.4V155.218H30.5684V165.4H29.3952ZM34.2474 165.4L31.2645 161.622L32.0997 160.806L35.7389 165.4H34.2474Z" fill="#4B465C"/>
<path d="M17.697 155.218V165.4H16.464V156.511H16.4044L13.9186 158.161V156.909L16.464 155.218H17.697ZM23.9463 165.539C23.1972 165.539 22.5592 165.335 22.0322 164.928C21.5052 164.517 21.1025 163.922 20.8241 163.143C20.5457 162.361 20.4065 161.416 20.4065 160.309C20.4065 159.209 20.5457 158.269 20.8241 157.49C21.1059 156.708 21.5102 156.111 22.0372 155.7C22.5675 155.286 23.2039 155.079 23.9463 155.079C24.6887 155.079 25.3234 155.286 25.8504 155.7C26.3807 156.111 26.7851 156.708 27.0635 157.49C27.3452 158.269 27.4861 159.209 27.4861 160.309C27.4861 161.416 27.3469 162.361 27.0684 163.143C26.79 163.922 26.3873 164.517 25.8604 164.928C25.3334 165.335 24.6953 165.539 23.9463 165.539ZM23.9463 164.445C24.6887 164.445 25.2654 164.087 25.6764 163.372C26.0874 162.656 26.2929 161.635 26.2929 160.309C26.2929 159.427 26.1984 158.677 26.0095 158.057C25.8239 157.437 25.5554 156.965 25.2041 156.64C24.8561 156.315 24.4368 156.153 23.9463 156.153C23.2105 156.153 22.6354 156.516 22.2211 157.242C21.8068 157.964 21.5997 158.987 21.5997 160.309C21.5997 161.191 21.6925 161.94 21.8781 162.556C22.0637 163.173 22.3305 163.642 22.6785 163.963C23.0299 164.285 23.4524 164.445 23.9463 164.445ZM30.4889 162.616L30.469 161.164H30.7077L34.0486 157.764H35.5003L31.9406 161.363H31.8412L30.4889 162.616ZM29.3952 165.4V155.218H30.5684V165.4H29.3952ZM34.2474 165.4L31.2645 161.622L32.0997 160.806L35.7389 165.4H34.2474Z" fill="white" fill-opacity="0.5"/>
<path d="M23.6924 204.139C22.9433 204.139 22.3053 203.935 21.7783 203.528C21.2513 203.117 20.8486 202.522 20.5702 201.743C20.2918 200.961 20.1526 200.016 20.1526 198.909C20.1526 197.809 20.2918 196.869 20.5702 196.09C20.8519 195.308 21.2563 194.711 21.7833 194.3C22.3136 193.886 22.95 193.679 23.6924 193.679C24.4348 193.679 25.0695 193.886 25.5965 194.3C26.1268 194.711 26.5312 195.308 26.8096 196.09C27.0913 196.869 27.2322 197.809 27.2322 198.909C27.2322 200.016 27.093 200.961 26.8145 201.743C26.5361 202.522 26.1334 203.117 25.6064 203.528C25.0795 203.935 24.4414 204.139 23.6924 204.139ZM23.6924 203.045C24.4348 203.045 25.0115 202.687 25.4225 201.972C25.8335 201.256 26.039 200.235 26.039 198.909C26.039 198.027 25.9445 197.277 25.7556 196.657C25.57 196.037 25.3015 195.565 24.9502 195.24C24.6022 194.915 24.1829 194.753 23.6924 194.753C22.9566 194.753 22.3815 195.116 21.9672 195.842C21.5529 196.564 21.3458 197.587 21.3458 198.909C21.3458 199.791 21.4386 200.54 21.6242 201.156C21.8098 201.773 22.0766 202.242 22.4246 202.563C22.776 202.885 23.1985 203.045 23.6924 203.045ZM30.235 201.216L30.2151 199.764H30.4537L33.7947 196.364H35.2464L31.6867 199.963H31.5873L30.235 201.216ZM29.1412 204V193.818H30.3145V204H29.1412ZM33.9935 204L31.0106 200.222L31.8458 199.406L35.485 204H33.9935Z" fill="#4B465C"/>
<path d="M23.6924 204.139C22.9433 204.139 22.3053 203.935 21.7783 203.528C21.2513 203.117 20.8486 202.522 20.5702 201.743C20.2918 200.961 20.1526 200.016 20.1526 198.909C20.1526 197.809 20.2918 196.869 20.5702 196.09C20.8519 195.308 21.2563 194.711 21.7833 194.3C22.3136 193.886 22.95 193.679 23.6924 193.679C24.4348 193.679 25.0695 193.886 25.5965 194.3C26.1268 194.711 26.5312 195.308 26.8096 196.09C27.0913 196.869 27.2322 197.809 27.2322 198.909C27.2322 200.016 27.093 200.961 26.8145 201.743C26.5361 202.522 26.1334 203.117 25.6064 203.528C25.0795 203.935 24.4414 204.139 23.6924 204.139ZM23.6924 203.045C24.4348 203.045 25.0115 202.687 25.4225 201.972C25.8335 201.256 26.039 200.235 26.039 198.909C26.039 198.027 25.9445 197.277 25.7556 196.657C25.57 196.037 25.3015 195.565 24.9502 195.24C24.6022 194.915 24.1829 194.753 23.6924 194.753C22.9566 194.753 22.3815 195.116 21.9672 195.842C21.5529 196.564 21.3458 197.587 21.3458 198.909C21.3458 199.791 21.4386 200.54 21.6242 201.156C21.8098 201.773 22.0766 202.242 22.4246 202.563C22.776 202.885 23.1985 203.045 23.6924 203.045ZM30.235 201.216L30.2151 199.764H30.4537L33.7947 196.364H35.2464L31.6867 199.963H31.5873L30.235 201.216ZM29.1412 204V193.818H30.3145V204H29.1412ZM33.9935 204L31.0106 200.222L31.8458 199.406L35.485 204H33.9935Z" fill="white" fill-opacity="0.5"/>
<path d="M73 176L129.744 135H206.349L218.643 99L253.636 69L274.442 110L334.969 92L342.535 61L396.442 41L414.411 77L455.078 99L464.535 69L506.147 41L543.031 85H561" stroke="#D6568A" stroke-width="3" stroke-linecap="square"/>
<path d="M129.744 135L73 176H561V85H543.031L506.147 41L464.535 69L455.078 99L414.411 77L396.442 41L342.535 61L334.969 92L274.442 110L253.636 69L218.643 99L206.349 135H129.744Z" fill="url(#paint0_linear_1_796)"/>
<line x1="70" y1="203.5" x2="557" y2="203.5" stroke="#DBDADE"/>
<path d="M71.2339 213.818H72.7055L76.1657 222.27H76.2851L79.7453 213.818H81.2169V224H80.0635V216.264H79.964L76.7822 224H75.6686L72.4868 216.264H72.3873V224H71.2339V213.818ZM86.6322 224.159C85.9428 224.159 85.3379 223.995 84.8176 223.667C84.3005 223.339 83.8962 222.88 83.6045 222.29C83.3161 221.7 83.172 221.01 83.172 220.222C83.172 219.426 83.3161 218.732 83.6045 218.138C83.8962 217.545 84.3005 217.085 84.8176 216.756C85.3379 216.428 85.9428 216.264 86.6322 216.264C87.3216 216.264 87.9248 216.428 88.4419 216.756C88.9622 217.085 89.3666 217.545 89.6549 218.138C89.9466 218.732 90.0924 219.426 90.0924 220.222C90.0924 221.01 89.9466 221.7 89.6549 222.29C89.3666 222.88 88.9622 223.339 88.4419 223.667C87.9248 223.995 87.3216 224.159 86.6322 224.159ZM86.6322 223.105C87.1559 223.105 87.5867 222.971 87.9248 222.702C88.2629 222.434 88.5131 222.081 88.6755 221.643C88.8379 221.206 88.9191 220.732 88.9191 220.222C88.9191 219.711 88.8379 219.236 88.6755 218.795C88.5131 218.354 88.2629 217.998 87.9248 217.726C87.5867 217.454 87.1559 217.318 86.6322 217.318C86.1085 217.318 85.6776 217.454 85.3396 217.726C85.0015 217.998 84.7513 218.354 84.5889 218.795C84.4265 219.236 84.3453 219.711 84.3453 220.222C84.3453 220.732 84.4265 221.206 84.5889 221.643C84.7513 222.081 85.0015 222.434 85.3396 222.702C85.6776 222.971 86.1085 223.105 86.6322 223.105ZM93.0567 219.406V224H91.8834V216.364H93.017V217.557H93.1164C93.2954 217.169 93.5671 216.857 93.9317 216.622C94.2963 216.384 94.767 216.264 95.3437 216.264C95.8607 216.264 96.3131 216.37 96.7009 216.582C97.0887 216.791 97.3903 217.109 97.6057 217.537C97.8212 217.961 97.9289 218.498 97.9289 219.148V224H96.7556V219.227C96.7556 218.627 96.5998 218.16 96.2883 217.825C95.9767 217.487 95.5492 217.318 95.0056 217.318C94.6311 217.318 94.2963 217.399 94.0013 217.562C93.7097 217.724 93.4793 217.961 93.3103 218.273C93.1412 218.584 93.0567 218.962 93.0567 219.406Z" fill="#4B465C"/>
<path d="M71.2339 213.818H72.7055L76.1657 222.27H76.2851L79.7453 213.818H81.2169V224H80.0635V216.264H79.964L76.7822 224H75.6686L72.4868 216.264H72.3873V224H71.2339V213.818ZM86.6322 224.159C85.9428 224.159 85.3379 223.995 84.8176 223.667C84.3005 223.339 83.8962 222.88 83.6045 222.29C83.3161 221.7 83.172 221.01 83.172 220.222C83.172 219.426 83.3161 218.732 83.6045 218.138C83.8962 217.545 84.3005 217.085 84.8176 216.756C85.3379 216.428 85.9428 216.264 86.6322 216.264C87.3216 216.264 87.9248 216.428 88.4419 216.756C88.9622 217.085 89.3666 217.545 89.6549 218.138C89.9466 218.732 90.0924 219.426 90.0924 220.222C90.0924 221.01 89.9466 221.7 89.6549 222.29C89.3666 222.88 88.9622 223.339 88.4419 223.667C87.9248 223.995 87.3216 224.159 86.6322 224.159ZM86.6322 223.105C87.1559 223.105 87.5867 222.971 87.9248 222.702C88.2629 222.434 88.5131 222.081 88.6755 221.643C88.8379 221.206 88.9191 220.732 88.9191 220.222C88.9191 219.711 88.8379 219.236 88.6755 218.795C88.5131 218.354 88.2629 217.998 87.9248 217.726C87.5867 217.454 87.1559 217.318 86.6322 217.318C86.1085 217.318 85.6776 217.454 85.3396 217.726C85.0015 217.998 84.7513 218.354 84.5889 218.795C84.4265 219.236 84.3453 219.711 84.3453 220.222C84.3453 220.732 84.4265 221.206 84.5889 221.643C84.7513 222.081 85.0015 222.434 85.3396 222.702C85.6776 222.971 86.1085 223.105 86.6322 223.105ZM93.0567 219.406V224H91.8834V216.364H93.017V217.557H93.1164C93.2954 217.169 93.5671 216.857 93.9317 216.622C94.2963 216.384 94.767 216.264 95.3437 216.264C95.8607 216.264 96.3131 216.37 96.7009 216.582C97.0887 216.791 97.3903 217.109 97.6057 217.537C97.8212 217.961 97.9289 218.498 97.9289 219.148V224H96.7556V219.227C96.7556 218.627 96.5998 218.16 96.2883 217.825C95.9767 217.487 95.5492 217.318 95.0056 217.318C94.6311 217.318 94.2963 217.399 94.0013 217.562C93.7097 217.724 93.4793 217.961 93.3103 218.273C93.1412 218.584 93.0567 218.962 93.0567 219.406Z" fill="white" fill-opacity="0.5"/>
<path d="M152.063 214.912V213.818H159.699V214.912H156.498V224H155.265V214.912H152.063ZM165.216 220.878V216.364H166.39V224H165.216V222.707H165.137C164.958 223.095 164.68 223.425 164.302 223.697C163.924 223.965 163.447 224.099 162.87 224.099C162.393 224.099 161.968 223.995 161.597 223.786C161.226 223.574 160.934 223.256 160.722 222.832C160.51 222.404 160.404 221.866 160.404 221.216V216.364H161.577V221.136C161.577 221.693 161.733 222.137 162.045 222.469C162.359 222.8 162.76 222.966 163.248 222.966C163.539 222.966 163.836 222.891 164.138 222.742C164.443 222.593 164.698 222.364 164.903 222.056C165.112 221.748 165.216 221.355 165.216 220.878ZM171.74 224.159C171.005 224.159 170.37 223.997 169.836 223.672C169.306 223.344 168.897 222.886 168.608 222.3C168.323 221.71 168.181 221.024 168.181 220.241C168.181 219.459 168.323 218.77 168.608 218.173C168.897 217.573 169.298 217.106 169.811 216.771C170.328 216.433 170.932 216.264 171.621 216.264C172.019 216.264 172.412 216.33 172.799 216.463C173.187 216.596 173.54 216.811 173.858 217.109C174.176 217.404 174.43 217.795 174.619 218.283C174.808 218.77 174.902 219.37 174.902 220.082V220.58H169.016V219.565H173.709C173.709 219.134 173.623 218.75 173.451 218.412C173.282 218.074 173.04 217.807 172.725 217.612C172.413 217.416 172.045 217.318 171.621 217.318C171.154 217.318 170.749 217.434 170.408 217.666C170.07 217.895 169.81 218.193 169.627 218.561C169.445 218.929 169.354 219.323 169.354 219.744V220.42C169.354 220.997 169.453 221.486 169.652 221.887C169.855 222.285 170.135 222.588 170.493 222.797C170.85 223.002 171.266 223.105 171.74 223.105C172.049 223.105 172.327 223.062 172.576 222.976C172.828 222.886 173.045 222.754 173.227 222.578C173.409 222.399 173.55 222.177 173.65 221.912L174.783 222.23C174.664 222.615 174.463 222.953 174.181 223.244C173.9 223.533 173.552 223.758 173.137 223.92C172.723 224.08 172.257 224.159 171.74 224.159Z" fill="#4B465C"/>
<path d="M152.063 214.912V213.818H159.699V214.912H156.498V224H155.265V214.912H152.063ZM165.216 220.878V216.364H166.39V224H165.216V222.707H165.137C164.958 223.095 164.68 223.425 164.302 223.697C163.924 223.965 163.447 224.099 162.87 224.099C162.393 224.099 161.968 223.995 161.597 223.786C161.226 223.574 160.934 223.256 160.722 222.832C160.51 222.404 160.404 221.866 160.404 221.216V216.364H161.577V221.136C161.577 221.693 161.733 222.137 162.045 222.469C162.359 222.8 162.76 222.966 163.248 222.966C163.539 222.966 163.836 222.891 164.138 222.742C164.443 222.593 164.698 222.364 164.903 222.056C165.112 221.748 165.216 221.355 165.216 220.878ZM171.74 224.159C171.005 224.159 170.37 223.997 169.836 223.672C169.306 223.344 168.897 222.886 168.608 222.3C168.323 221.71 168.181 221.024 168.181 220.241C168.181 219.459 168.323 218.77 168.608 218.173C168.897 217.573 169.298 217.106 169.811 216.771C170.328 216.433 170.932 216.264 171.621 216.264C172.019 216.264 172.412 216.33 172.799 216.463C173.187 216.596 173.54 216.811 173.858 217.109C174.176 217.404 174.43 217.795 174.619 218.283C174.808 218.77 174.902 219.37 174.902 220.082V220.58H169.016V219.565H173.709C173.709 219.134 173.623 218.75 173.451 218.412C173.282 218.074 173.04 217.807 172.725 217.612C172.413 217.416 172.045 217.318 171.621 217.318C171.154 217.318 170.749 217.434 170.408 217.666C170.07 217.895 169.81 218.193 169.627 218.561C169.445 218.929 169.354 219.323 169.354 219.744V220.42C169.354 220.997 169.453 221.486 169.652 221.887C169.855 222.285 170.135 222.588 170.493 222.797C170.85 223.002 171.266 223.105 171.74 223.105C172.049 223.105 172.327 223.062 172.576 222.976C172.828 222.886 173.045 222.754 173.227 222.578C173.409 222.399 173.55 222.177 173.65 221.912L174.783 222.23C174.664 222.615 174.463 222.953 174.181 223.244C173.9 223.533 173.552 223.758 173.137 223.92C172.723 224.08 172.257 224.159 171.74 224.159Z" fill="white" fill-opacity="0.5"/>
<path d="M231.371 224L228.587 213.818H229.84L231.968 222.111H232.067L234.235 213.818H235.627L237.795 222.111H237.894L240.022 213.818H241.275L238.491 224H237.218L234.971 215.886H234.891L232.644 224H231.371ZM245.143 224.159C244.407 224.159 243.772 223.997 243.239 223.672C242.708 223.344 242.299 222.886 242.011 222.3C241.726 221.71 241.583 221.024 241.583 220.241C241.583 219.459 241.726 218.77 242.011 218.173C242.299 217.573 242.7 217.106 243.214 216.771C243.731 216.433 244.334 216.264 245.023 216.264C245.421 216.264 245.814 216.33 246.202 216.463C246.589 216.596 246.942 216.811 247.261 217.109C247.579 217.404 247.832 217.795 248.021 218.283C248.21 218.77 248.305 219.37 248.305 220.082V220.58H242.418V219.565H247.112C247.112 219.134 247.025 218.75 246.853 218.412C246.684 218.074 246.442 217.807 246.127 217.612C245.816 217.416 245.448 217.318 245.023 217.318C244.556 217.318 244.152 217.434 243.81 217.666C243.472 217.895 243.212 218.193 243.03 218.561C242.848 218.929 242.756 219.323 242.756 219.744V220.42C242.756 220.997 242.856 221.486 243.055 221.887C243.257 222.285 243.537 222.588 243.895 222.797C244.253 223.002 244.669 223.105 245.143 223.105C245.451 223.105 245.729 223.062 245.978 222.976C246.23 222.886 246.447 222.754 246.629 222.578C246.812 222.399 246.952 222.177 247.052 221.912L248.185 222.23C248.066 222.615 247.866 222.953 247.584 223.244C247.302 223.533 246.954 223.758 246.54 223.92C246.125 224.08 245.66 224.159 245.143 224.159ZM252.973 224.159C252.337 224.159 251.775 223.998 251.288 223.677C250.8 223.352 250.419 222.895 250.144 222.305C249.869 221.711 249.732 221.01 249.732 220.202C249.732 219.4 249.869 218.704 250.144 218.114C250.419 217.524 250.802 217.068 251.293 216.746C251.783 216.425 252.35 216.264 252.993 216.264C253.49 216.264 253.883 216.347 254.171 216.513C254.463 216.675 254.685 216.861 254.837 217.07C254.993 217.275 255.114 217.444 255.2 217.577H255.3V213.818H256.473V224H255.339V222.827H255.2C255.114 222.966 254.991 223.142 254.832 223.354C254.673 223.562 254.446 223.75 254.151 223.915C253.856 224.078 253.464 224.159 252.973 224.159ZM253.132 223.105C253.603 223.105 254 222.982 254.325 222.737C254.65 222.489 254.897 222.146 255.066 221.708C255.235 221.267 255.32 220.759 255.32 220.182C255.32 219.612 255.237 219.113 255.071 218.685C254.905 218.254 254.66 217.92 254.335 217.681C254.01 217.439 253.609 217.318 253.132 217.318C252.635 217.318 252.221 217.446 251.889 217.701C251.561 217.953 251.314 218.296 251.148 218.73C250.986 219.161 250.905 219.645 250.905 220.182C250.905 220.725 250.988 221.219 251.153 221.663C251.322 222.104 251.571 222.455 251.899 222.717C252.231 222.976 252.642 223.105 253.132 223.105Z" fill="#4B465C"/>
<path d="M231.371 224L228.587 213.818H229.84L231.968 222.111H232.067L234.235 213.818H235.627L237.795 222.111H237.894L240.022 213.818H241.275L238.491 224H237.218L234.971 215.886H234.891L232.644 224H231.371ZM245.143 224.159C244.407 224.159 243.772 223.997 243.239 223.672C242.708 223.344 242.299 222.886 242.011 222.3C241.726 221.71 241.583 221.024 241.583 220.241C241.583 219.459 241.726 218.77 242.011 218.173C242.299 217.573 242.7 217.106 243.214 216.771C243.731 216.433 244.334 216.264 245.023 216.264C245.421 216.264 245.814 216.33 246.202 216.463C246.589 216.596 246.942 216.811 247.261 217.109C247.579 217.404 247.832 217.795 248.021 218.283C248.21 218.77 248.305 219.37 248.305 220.082V220.58H242.418V219.565H247.112C247.112 219.134 247.025 218.75 246.853 218.412C246.684 218.074 246.442 217.807 246.127 217.612C245.816 217.416 245.448 217.318 245.023 217.318C244.556 217.318 244.152 217.434 243.81 217.666C243.472 217.895 243.212 218.193 243.03 218.561C242.848 218.929 242.756 219.323 242.756 219.744V220.42C242.756 220.997 242.856 221.486 243.055 221.887C243.257 222.285 243.537 222.588 243.895 222.797C244.253 223.002 244.669 223.105 245.143 223.105C245.451 223.105 245.729 223.062 245.978 222.976C246.23 222.886 246.447 222.754 246.629 222.578C246.812 222.399 246.952 222.177 247.052 221.912L248.185 222.23C248.066 222.615 247.866 222.953 247.584 223.244C247.302 223.533 246.954 223.758 246.54 223.92C246.125 224.08 245.66 224.159 245.143 224.159ZM252.973 224.159C252.337 224.159 251.775 223.998 251.288 223.677C250.8 223.352 250.419 222.895 250.144 222.305C249.869 221.711 249.732 221.01 249.732 220.202C249.732 219.4 249.869 218.704 250.144 218.114C250.419 217.524 250.802 217.068 251.293 216.746C251.783 216.425 252.35 216.264 252.993 216.264C253.49 216.264 253.883 216.347 254.171 216.513C254.463 216.675 254.685 216.861 254.837 217.07C254.993 217.275 255.114 217.444 255.2 217.577H255.3V213.818H256.473V224H255.339V222.827H255.2C255.114 222.966 254.991 223.142 254.832 223.354C254.673 223.562 254.446 223.75 254.151 223.915C253.856 224.078 253.464 224.159 252.973 224.159ZM253.132 223.105C253.603 223.105 254 222.982 254.325 222.737C254.65 222.489 254.897 222.146 255.066 221.708C255.235 221.267 255.32 220.759 255.32 220.182C255.32 219.612 255.237 219.113 255.071 218.685C254.905 218.254 254.66 217.92 254.335 217.681C254.01 217.439 253.609 217.318 253.132 217.318C252.635 217.318 252.221 217.446 251.889 217.701C251.561 217.953 251.314 218.296 251.148 218.73C250.986 219.161 250.905 219.645 250.905 220.182C250.905 220.725 250.988 221.219 251.153 221.663C251.322 222.104 251.571 222.455 251.899 222.717C252.231 222.976 252.642 223.105 253.132 223.105Z" fill="white" fill-opacity="0.5"/>
<path d="M310.982 214.912V213.818H318.618V214.912H315.416V224H314.184V214.912H310.982ZM321.535 219.406V224H320.362V213.818H321.535V217.557H321.635C321.814 217.162 322.082 216.849 322.44 216.617C322.801 216.382 323.282 216.264 323.882 216.264C324.402 216.264 324.858 216.369 325.249 216.577C325.64 216.783 325.943 217.099 326.159 217.527C326.378 217.951 326.487 218.491 326.487 219.148V224H325.314V219.227C325.314 218.621 325.156 218.152 324.841 217.82C324.53 217.486 324.097 217.318 323.544 217.318C323.159 217.318 322.815 217.399 322.51 217.562C322.208 217.724 321.969 217.961 321.794 218.273C321.621 218.584 321.535 218.962 321.535 219.406ZM333.446 220.878V216.364H334.619V224H333.446V222.707H333.366C333.187 223.095 332.909 223.425 332.531 223.697C332.153 223.965 331.676 224.099 331.099 224.099C330.622 224.099 330.198 223.995 329.827 223.786C329.455 223.574 329.164 223.256 328.952 222.832C328.739 222.404 328.633 221.866 328.633 221.216V216.364H329.807V221.136C329.807 221.693 329.963 222.137 330.274 222.469C330.589 222.8 330.99 222.966 331.477 222.966C331.769 222.966 332.065 222.891 332.367 222.742C332.672 222.593 332.927 222.364 333.133 222.056C333.342 221.748 333.446 221.355 333.446 220.878Z" fill="#4B465C"/>
<path d="M310.982 214.912V213.818H318.618V214.912H315.416V224H314.184V214.912H310.982ZM321.535 219.406V224H320.362V213.818H321.535V217.557H321.635C321.814 217.162 322.082 216.849 322.44 216.617C322.801 216.382 323.282 216.264 323.882 216.264C324.402 216.264 324.858 216.369 325.249 216.577C325.64 216.783 325.943 217.099 326.159 217.527C326.378 217.951 326.487 218.491 326.487 219.148V224H325.314V219.227C325.314 218.621 325.156 218.152 324.841 217.82C324.53 217.486 324.097 217.318 323.544 217.318C323.159 217.318 322.815 217.399 322.51 217.562C322.208 217.724 321.969 217.961 321.794 218.273C321.621 218.584 321.535 218.962 321.535 219.406ZM333.446 220.878V216.364H334.619V224H333.446V222.707H333.366C333.187 223.095 332.909 223.425 332.531 223.697C332.153 223.965 331.676 224.099 331.099 224.099C330.622 224.099 330.198 223.995 329.827 223.786C329.455 223.574 329.164 223.256 328.952 222.832C328.739 222.404 328.633 221.866 328.633 221.216V216.364H329.807V221.136C329.807 221.693 329.963 222.137 330.274 222.469C330.589 222.8 330.99 222.966 331.477 222.966C331.769 222.966 332.065 222.891 332.367 222.742C332.672 222.593 332.927 222.364 333.133 222.056C333.342 221.748 333.446 221.355 333.446 220.878Z" fill="white" fill-opacity="0.5"/>
<path d="M389.4 224V213.818H395.505V214.912H390.633V218.352H395.048V219.446H390.633V224H389.4ZM397.376 224V216.364H398.509V217.517H398.589C398.728 217.139 398.98 216.833 399.344 216.597C399.709 216.362 400.12 216.244 400.577 216.244C400.664 216.244 400.771 216.246 400.9 216.249C401.03 216.253 401.128 216.258 401.194 216.264V217.457C401.154 217.447 401.063 217.433 400.92 217.413C400.781 217.389 400.634 217.378 400.478 217.378C400.107 217.378 399.775 217.456 399.484 217.612C399.195 217.764 398.967 217.976 398.797 218.248C398.632 218.516 398.549 218.823 398.549 219.168V224H397.376ZM402.585 224V216.364H403.758V224H402.585ZM403.181 215.091C402.953 215.091 402.755 215.013 402.59 214.857C402.427 214.701 402.346 214.514 402.346 214.295C402.346 214.077 402.427 213.889 402.59 213.734C402.755 213.578 402.953 213.5 403.181 213.5C403.41 213.5 403.605 213.578 403.768 213.734C403.934 213.889 404.016 214.077 404.016 214.295C404.016 214.514 403.934 214.701 403.768 214.857C403.605 215.013 403.41 215.091 403.181 215.091Z" fill="#4B465C"/>
<path d="M389.4 224V213.818H395.505V214.912H390.633V218.352H395.048V219.446H390.633V224H389.4ZM397.376 224V216.364H398.509V217.517H398.589C398.728 217.139 398.98 216.833 399.344 216.597C399.709 216.362 400.12 216.244 400.577 216.244C400.664 216.244 400.771 216.246 400.9 216.249C401.03 216.253 401.128 216.258 401.194 216.264V217.457C401.154 217.447 401.063 217.433 400.92 217.413C400.781 217.389 400.634 217.378 400.478 217.378C400.107 217.378 399.775 217.456 399.484 217.612C399.195 217.764 398.967 217.976 398.797 218.248C398.632 218.516 398.549 218.823 398.549 219.168V224H397.376ZM402.585 224V216.364H403.758V224H402.585ZM403.181 215.091C402.953 215.091 402.755 215.013 402.59 214.857C402.427 214.701 402.346 214.514 402.346 214.295C402.346 214.077 402.427 213.889 402.59 213.734C402.755 213.578 402.953 213.5 403.181 213.5C403.41 213.5 403.605 213.578 403.768 213.734C403.934 213.889 404.016 214.077 404.016 214.295C404.016 214.514 403.934 214.701 403.768 214.857C403.605 215.013 403.41 215.091 403.181 215.091Z" fill="white" fill-opacity="0.5"/>
<path d="M463.85 216.364C463.79 215.86 463.548 215.469 463.124 215.19C462.7 214.912 462.18 214.773 461.563 214.773C461.112 214.773 460.718 214.846 460.38 214.991C460.045 215.137 459.783 215.338 459.594 215.593C459.409 215.848 459.316 216.138 459.316 216.463C459.316 216.735 459.381 216.969 459.51 217.164C459.642 217.356 459.811 217.517 460.017 217.646C460.222 217.772 460.438 217.877 460.663 217.96C460.889 218.039 461.096 218.104 461.285 218.153L462.319 218.432C462.584 218.501 462.879 218.598 463.204 218.72C463.532 218.843 463.845 219.01 464.143 219.222C464.445 219.431 464.693 219.7 464.889 220.028C465.085 220.356 465.182 220.759 465.182 221.236C465.182 221.786 465.038 222.283 464.75 222.727C464.465 223.171 464.047 223.524 463.497 223.786C462.95 224.048 462.286 224.179 461.503 224.179C460.774 224.179 460.143 224.061 459.609 223.826C459.079 223.591 458.661 223.263 458.356 222.842C458.055 222.421 457.884 221.932 457.844 221.375H459.117C459.15 221.759 459.279 222.078 459.505 222.33C459.733 222.578 460.022 222.764 460.37 222.886C460.721 223.006 461.099 223.065 461.503 223.065C461.974 223.065 462.397 222.989 462.771 222.837C463.146 222.681 463.442 222.465 463.661 222.19C463.88 221.912 463.989 221.587 463.989 221.216C463.989 220.878 463.895 220.603 463.706 220.391C463.517 220.179 463.268 220.006 462.96 219.874C462.652 219.741 462.319 219.625 461.961 219.526L460.708 219.168C459.912 218.939 459.283 218.612 458.819 218.188C458.355 217.764 458.123 217.209 458.123 216.523C458.123 215.953 458.277 215.455 458.585 215.031C458.897 214.604 459.314 214.272 459.838 214.037C460.365 213.798 460.953 213.679 461.603 213.679C462.259 213.679 462.842 213.797 463.353 214.032C463.863 214.264 464.268 214.582 464.566 214.987C464.867 215.391 465.027 215.85 465.043 216.364H463.85ZM469.298 224.179C468.814 224.179 468.375 224.088 467.98 223.906C467.586 223.72 467.272 223.453 467.04 223.105C466.808 222.754 466.692 222.33 466.692 221.832C466.692 221.395 466.779 221.04 466.951 220.768C467.123 220.493 467.354 220.278 467.642 220.122C467.93 219.966 468.249 219.85 468.597 219.774C468.948 219.695 469.301 219.632 469.656 219.585C470.12 219.526 470.496 219.481 470.784 219.451C471.076 219.418 471.288 219.363 471.42 219.287C471.556 219.211 471.624 219.078 471.624 218.889V218.849C471.624 218.359 471.49 217.978 471.222 217.706C470.956 217.434 470.554 217.298 470.013 217.298C469.453 217.298 469.014 217.421 468.696 217.666C468.378 217.911 468.154 218.173 468.025 218.452L466.911 218.054C467.11 217.59 467.375 217.229 467.707 216.97C468.041 216.708 468.406 216.526 468.8 216.423C469.198 216.317 469.589 216.264 469.974 216.264C470.219 216.264 470.501 216.294 470.819 216.354C471.14 216.41 471.45 216.528 471.749 216.707C472.05 216.886 472.3 217.156 472.499 217.517C472.698 217.878 472.798 218.362 472.798 218.969V224H471.624V222.966H471.565C471.485 223.132 471.353 223.309 471.167 223.498C470.981 223.687 470.734 223.848 470.426 223.98C470.118 224.113 469.742 224.179 469.298 224.179ZM469.477 223.125C469.941 223.125 470.332 223.034 470.65 222.852C470.971 222.669 471.213 222.434 471.376 222.146C471.541 221.857 471.624 221.554 471.624 221.236V220.162C471.575 220.222 471.465 220.276 471.296 220.326C471.13 220.372 470.938 220.414 470.719 220.45C470.504 220.483 470.294 220.513 470.088 220.54C469.886 220.563 469.722 220.583 469.596 220.599C469.291 220.639 469.006 220.704 468.741 220.793C468.479 220.879 468.267 221.01 468.104 221.186C467.945 221.358 467.866 221.594 467.866 221.892C467.866 222.3 468.017 222.608 468.318 222.817C468.623 223.022 469.009 223.125 469.477 223.125ZM478.26 216.364V217.358H474.303V216.364H478.26ZM475.456 214.534H476.629V221.812C476.629 222.144 476.677 222.393 476.774 222.558C476.873 222.721 476.999 222.83 477.151 222.886C477.307 222.939 477.471 222.966 477.644 222.966C477.773 222.966 477.879 222.959 477.962 222.946C478.045 222.929 478.111 222.916 478.161 222.906L478.399 223.96C478.32 223.99 478.209 224.02 478.066 224.05C477.924 224.083 477.743 224.099 477.524 224.099C477.193 224.099 476.868 224.028 476.55 223.886C476.235 223.743 475.973 223.526 475.764 223.234C475.559 222.943 475.456 222.575 475.456 222.131V214.534Z" fill="#4B465C"/>
<path d="M463.85 216.364C463.79 215.86 463.548 215.469 463.124 215.19C462.7 214.912 462.18 214.773 461.563 214.773C461.112 214.773 460.718 214.846 460.38 214.991C460.045 215.137 459.783 215.338 459.594 215.593C459.409 215.848 459.316 216.138 459.316 216.463C459.316 216.735 459.381 216.969 459.51 217.164C459.642 217.356 459.811 217.517 460.017 217.646C460.222 217.772 460.438 217.877 460.663 217.96C460.889 218.039 461.096 218.104 461.285 218.153L462.319 218.432C462.584 218.501 462.879 218.598 463.204 218.72C463.532 218.843 463.845 219.01 464.143 219.222C464.445 219.431 464.693 219.7 464.889 220.028C465.085 220.356 465.182 220.759 465.182 221.236C465.182 221.786 465.038 222.283 464.75 222.727C464.465 223.171 464.047 223.524 463.497 223.786C462.95 224.048 462.286 224.179 461.503 224.179C460.774 224.179 460.143 224.061 459.609 223.826C459.079 223.591 458.661 223.263 458.356 222.842C458.055 222.421 457.884 221.932 457.844 221.375H459.117C459.15 221.759 459.279 222.078 459.505 222.33C459.733 222.578 460.022 222.764 460.37 222.886C460.721 223.006 461.099 223.065 461.503 223.065C461.974 223.065 462.397 222.989 462.771 222.837C463.146 222.681 463.442 222.465 463.661 222.19C463.88 221.912 463.989 221.587 463.989 221.216C463.989 220.878 463.895 220.603 463.706 220.391C463.517 220.179 463.268 220.006 462.96 219.874C462.652 219.741 462.319 219.625 461.961 219.526L460.708 219.168C459.912 218.939 459.283 218.612 458.819 218.188C458.355 217.764 458.123 217.209 458.123 216.523C458.123 215.953 458.277 215.455 458.585 215.031C458.897 214.604 459.314 214.272 459.838 214.037C460.365 213.798 460.953 213.679 461.603 213.679C462.259 213.679 462.842 213.797 463.353 214.032C463.863 214.264 464.268 214.582 464.566 214.987C464.867 215.391 465.027 215.85 465.043 216.364H463.85ZM469.298 224.179C468.814 224.179 468.375 224.088 467.98 223.906C467.586 223.72 467.272 223.453 467.04 223.105C466.808 222.754 466.692 222.33 466.692 221.832C466.692 221.395 466.779 221.04 466.951 220.768C467.123 220.493 467.354 220.278 467.642 220.122C467.93 219.966 468.249 219.85 468.597 219.774C468.948 219.695 469.301 219.632 469.656 219.585C470.12 219.526 470.496 219.481 470.784 219.451C471.076 219.418 471.288 219.363 471.42 219.287C471.556 219.211 471.624 219.078 471.624 218.889V218.849C471.624 218.359 471.49 217.978 471.222 217.706C470.956 217.434 470.554 217.298 470.013 217.298C469.453 217.298 469.014 217.421 468.696 217.666C468.378 217.911 468.154 218.173 468.025 218.452L466.911 218.054C467.11 217.59 467.375 217.229 467.707 216.97C468.041 216.708 468.406 216.526 468.8 216.423C469.198 216.317 469.589 216.264 469.974 216.264C470.219 216.264 470.501 216.294 470.819 216.354C471.14 216.41 471.45 216.528 471.749 216.707C472.05 216.886 472.3 217.156 472.499 217.517C472.698 217.878 472.798 218.362 472.798 218.969V224H471.624V222.966H471.565C471.485 223.132 471.353 223.309 471.167 223.498C470.981 223.687 470.734 223.848 470.426 223.98C470.118 224.113 469.742 224.179 469.298 224.179ZM469.477 223.125C469.941 223.125 470.332 223.034 470.65 222.852C470.971 222.669 471.213 222.434 471.376 222.146C471.541 221.857 471.624 221.554 471.624 221.236V220.162C471.575 220.222 471.465 220.276 471.296 220.326C471.13 220.372 470.938 220.414 470.719 220.45C470.504 220.483 470.294 220.513 470.088 220.54C469.886 220.563 469.722 220.583 469.596 220.599C469.291 220.639 469.006 220.704 468.741 220.793C468.479 220.879 468.267 221.01 468.104 221.186C467.945 221.358 467.866 221.594 467.866 221.892C467.866 222.3 468.017 222.608 468.318 222.817C468.623 223.022 469.009 223.125 469.477 223.125ZM478.26 216.364V217.358H474.303V216.364H478.26ZM475.456 214.534H476.629V221.812C476.629 222.144 476.677 222.393 476.774 222.558C476.873 222.721 476.999 222.83 477.151 222.886C477.307 222.939 477.471 222.966 477.644 222.966C477.773 222.966 477.879 222.959 477.962 222.946C478.045 222.929 478.111 222.916 478.161 222.906L478.399 223.96C478.32 223.99 478.209 224.02 478.066 224.05C477.924 224.083 477.743 224.099 477.524 224.099C477.193 224.099 476.868 224.028 476.55 223.886C476.235 223.743 475.973 223.526 475.764 223.234C475.559 222.943 475.456 222.575 475.456 222.131V214.534Z" fill="white" fill-opacity="0.5"/>
<path d="M538.175 216.364C538.116 215.86 537.874 215.469 537.449 215.19C537.025 214.912 536.505 214.773 535.888 214.773C535.437 214.773 535.043 214.846 534.705 214.991C534.37 215.137 534.108 215.338 533.919 215.593C533.734 215.848 533.641 216.138 533.641 216.463C533.641 216.735 533.706 216.969 533.835 217.164C533.968 217.356 534.137 217.517 534.342 217.646C534.548 217.772 534.763 217.877 534.988 217.96C535.214 218.039 535.421 218.104 535.61 218.153L536.644 218.432C536.909 218.501 537.204 218.598 537.529 218.72C537.857 218.843 538.17 219.01 538.468 219.222C538.77 219.431 539.019 219.7 539.214 220.028C539.41 220.356 539.508 220.759 539.508 221.236C539.508 221.786 539.363 222.283 539.075 222.727C538.79 223.171 538.372 223.524 537.822 223.786C537.275 224.048 536.611 224.179 535.829 224.179C535.099 224.179 534.468 224.061 533.934 223.826C533.404 223.591 532.986 223.263 532.682 222.842C532.38 222.421 532.209 221.932 532.169 221.375H533.442C533.475 221.759 533.605 222.078 533.83 222.33C534.059 222.578 534.347 222.764 534.695 222.886C535.046 223.006 535.424 223.065 535.829 223.065C536.299 223.065 536.722 222.989 537.096 222.837C537.471 222.681 537.767 222.465 537.986 222.19C538.205 221.912 538.314 221.587 538.314 221.216C538.314 220.878 538.22 220.603 538.031 220.391C537.842 220.179 537.593 220.006 537.285 219.874C536.977 219.741 536.644 219.625 536.286 219.526L535.033 219.168C534.238 218.939 533.608 218.612 533.144 218.188C532.68 217.764 532.448 217.209 532.448 216.523C532.448 215.953 532.602 215.455 532.91 215.031C533.222 214.604 533.639 214.272 534.163 214.037C534.69 213.798 535.278 213.679 535.928 213.679C536.584 213.679 537.168 213.797 537.678 214.032C538.188 214.264 538.593 214.582 538.891 214.987C539.193 215.391 539.352 215.85 539.368 216.364H538.175ZM546.188 220.878V216.364H547.361V224H546.188V222.707H546.109C545.93 223.095 545.651 223.425 545.273 223.697C544.896 223.965 544.418 224.099 543.842 224.099C543.364 224.099 542.94 223.995 542.569 223.786C542.198 223.574 541.906 223.256 541.694 222.832C541.482 222.404 541.376 221.866 541.376 221.216V216.364H542.549V221.136C542.549 221.693 542.705 222.137 543.016 222.469C543.331 222.8 543.732 222.966 544.219 222.966C544.511 222.966 544.808 222.891 545.109 222.742C545.414 222.593 545.669 222.364 545.875 222.056C546.084 221.748 546.188 221.355 546.188 220.878ZM550.684 219.406V224H549.51V216.364H550.644V217.557H550.743C550.922 217.169 551.194 216.857 551.559 216.622C551.923 216.384 552.394 216.264 552.971 216.264C553.488 216.264 553.94 216.37 554.328 216.582C554.716 216.791 555.017 217.109 555.233 217.537C555.448 217.961 555.556 218.498 555.556 219.148V224H554.383V219.227C554.383 218.627 554.227 218.16 553.915 217.825C553.604 217.487 553.176 217.318 552.633 217.318C552.258 217.318 551.923 217.399 551.628 217.562C551.337 217.724 551.106 217.961 550.937 218.273C550.768 218.584 550.684 218.962 550.684 219.406Z" fill="#4B465C"/>
<path d="M538.175 216.364C538.116 215.86 537.874 215.469 537.449 215.19C537.025 214.912 536.505 214.773 535.888 214.773C535.437 214.773 535.043 214.846 534.705 214.991C534.37 215.137 534.108 215.338 533.919 215.593C533.734 215.848 533.641 216.138 533.641 216.463C533.641 216.735 533.706 216.969 533.835 217.164C533.968 217.356 534.137 217.517 534.342 217.646C534.548 217.772 534.763 217.877 534.988 217.96C535.214 218.039 535.421 218.104 535.61 218.153L536.644 218.432C536.909 218.501 537.204 218.598 537.529 218.72C537.857 218.843 538.17 219.01 538.468 219.222C538.77 219.431 539.019 219.7 539.214 220.028C539.41 220.356 539.508 220.759 539.508 221.236C539.508 221.786 539.363 222.283 539.075 222.727C538.79 223.171 538.372 223.524 537.822 223.786C537.275 224.048 536.611 224.179 535.829 224.179C535.099 224.179 534.468 224.061 533.934 223.826C533.404 223.591 532.986 223.263 532.682 222.842C532.38 222.421 532.209 221.932 532.169 221.375H533.442C533.475 221.759 533.605 222.078 533.83 222.33C534.059 222.578 534.347 222.764 534.695 222.886C535.046 223.006 535.424 223.065 535.829 223.065C536.299 223.065 536.722 222.989 537.096 222.837C537.471 222.681 537.767 222.465 537.986 222.19C538.205 221.912 538.314 221.587 538.314 221.216C538.314 220.878 538.22 220.603 538.031 220.391C537.842 220.179 537.593 220.006 537.285 219.874C536.977 219.741 536.644 219.625 536.286 219.526L535.033 219.168C534.238 218.939 533.608 218.612 533.144 218.188C532.68 217.764 532.448 217.209 532.448 216.523C532.448 215.953 532.602 215.455 532.91 215.031C533.222 214.604 533.639 214.272 534.163 214.037C534.69 213.798 535.278 213.679 535.928 213.679C536.584 213.679 537.168 213.797 537.678 214.032C538.188 214.264 538.593 214.582 538.891 214.987C539.193 215.391 539.352 215.85 539.368 216.364H538.175ZM546.188 220.878V216.364H547.361V224H546.188V222.707H546.109C545.93 223.095 545.651 223.425 545.273 223.697C544.896 223.965 544.418 224.099 543.842 224.099C543.364 224.099 542.94 223.995 542.569 223.786C542.198 223.574 541.906 223.256 541.694 222.832C541.482 222.404 541.376 221.866 541.376 221.216V216.364H542.549V221.136C542.549 221.693 542.705 222.137 543.016 222.469C543.331 222.8 543.732 222.966 544.219 222.966C544.511 222.966 544.808 222.891 545.109 222.742C545.414 222.593 545.669 222.364 545.875 222.056C546.084 221.748 546.188 221.355 546.188 220.878ZM550.684 219.406V224H549.51V216.364H550.644V217.557H550.743C550.922 217.169 551.194 216.857 551.559 216.622C551.923 216.384 552.394 216.264 552.971 216.264C553.488 216.264 553.94 216.37 554.328 216.582C554.716 216.791 555.017 217.109 555.233 217.537C555.448 217.961 555.556 218.498 555.556 219.148V224H554.383V219.227C554.383 218.627 554.227 218.16 553.915 217.825C553.604 217.487 553.176 217.318 552.633 217.318C552.258 217.318 551.923 217.399 551.628 217.562C551.337 217.724 551.106 217.961 550.937 218.273C550.768 218.584 550.684 218.962 550.684 219.406Z" fill="white" fill-opacity="0.5"/>
<defs>
<linearGradient id="paint0_linear_1_796" x1="317" y1="41" x2="317" y2="176" gradientUnits="userSpaceOnUse">
<stop stop-color="#FF648A"/>
<stop offset="0.0001" stop-color="#FFE6EC"/>
<stop offset="1" stop-color="#FFFAFB" stop-opacity="0.79"/>
</linearGradient>
</defs>
</svg>
