<svg width="358" height="161" viewBox="0 0 358 161" fill="none" xmlns="http://www.w3.org/2000/svg">
<path d="M0 131H23.5L52.5 1L79 131H114L137.5 47L155.5 131H180L204 23.5" stroke="#D6568A" stroke-width="2"/>
<path d="M0 132H358V130H0V132Z" fill="#DBDADE" mask="url(#path-2-inside-1_1_778)"/>
<path d="M2.60599 156V148.518H0.792488V147.732C1.35582 147.732 1.79349 147.691 2.10549 147.608C2.41749 147.526 2.63849 147.4 2.76849 147.231C2.90282 147.062 2.97649 146.852 2.98949 146.601H3.84749V156H2.60599ZM6.28793 156V155.265V154.882C6.28793 154.401 6.37677 153.985 6.55443 153.634C6.73643 153.283 6.97477 152.977 7.26943 152.718C7.56843 152.453 7.89343 152.217 8.24443 152.009C8.59977 151.801 8.95293 151.602 9.30393 151.411C9.65927 151.216 9.98427 151.014 10.2789 150.806C10.5736 150.594 10.8098 150.356 10.9874 150.091C11.1694 149.823 11.2604 149.506 11.2604 149.142C11.2604 148.666 11.0914 148.278 10.7534 147.979C10.4198 147.68 9.96693 147.53 9.39493 147.53C8.7796 147.53 8.2856 147.704 7.91293 148.05C7.54027 148.397 7.3301 148.859 7.28243 149.435H6.08643C6.09943 148.893 6.23377 148.399 6.48943 147.953C6.7451 147.502 7.11993 147.143 7.61393 146.874C8.10793 146.605 8.71677 146.471 9.44043 146.471C10.0688 146.471 10.6148 146.584 11.0784 146.809C11.5421 147.03 11.8996 147.342 12.1509 147.745C12.4066 148.144 12.5344 148.609 12.5344 149.142C12.5344 149.628 12.4456 150.044 12.2679 150.39C12.0903 150.737 11.8541 151.038 11.5594 151.294C11.2691 151.545 10.9506 151.771 10.6039 151.97C10.2573 152.169 9.90843 152.362 9.55743 152.548C9.20643 152.73 8.88577 152.923 8.59543 153.127C8.3051 153.326 8.0711 153.556 7.89343 153.816C7.71577 154.076 7.62693 154.386 7.62693 154.745V154.934H12.5864V156H6.28793ZM16.0796 156.13C15.6462 156.13 15.2627 156.054 14.9291 155.902C14.5954 155.746 14.3332 155.523 14.1426 155.233C13.9562 154.943 13.8631 154.592 13.8631 154.18C13.8631 153.435 14.1231 152.88 14.6431 152.516C15.1631 152.152 15.9972 151.957 17.1456 151.931L18.3481 151.898V151.372C18.3481 150.96 18.2246 150.635 17.9776 150.397C17.7306 150.154 17.3471 150.033 16.8271 150.033C16.4414 150.037 16.1012 150.128 15.8066 150.306C15.5162 150.484 15.3277 150.774 15.2411 151.177H14.1816C14.2076 150.739 14.3311 150.371 14.5521 150.072C14.7731 149.769 15.0807 149.539 15.4751 149.383C15.8737 149.227 16.3439 149.149 16.8856 149.149C17.4706 149.149 17.9559 149.231 18.3416 149.396C18.7316 149.561 19.0219 149.803 19.2126 150.124C19.4076 150.445 19.5051 150.839 19.5051 151.307V156H18.4781L18.3936 154.739C18.1336 155.263 17.8021 155.627 17.3991 155.831C17.0004 156.03 16.5606 156.13 16.0796 156.13ZM16.4436 155.265C16.6689 155.265 16.8921 155.224 17.1131 155.142C17.3384 155.06 17.5442 154.949 17.7306 154.81C17.9169 154.667 18.0642 154.509 18.1726 154.336C18.2852 154.158 18.3437 153.976 18.3481 153.79V152.639L17.3471 152.659C16.8357 152.668 16.4067 152.72 16.0601 152.815C15.7177 152.91 15.4599 153.06 15.2866 153.263C15.1176 153.467 15.0331 153.734 15.0331 154.063C15.0331 154.44 15.1631 154.735 15.4231 154.947C15.6874 155.159 16.0276 155.265 16.4436 155.265ZM21.5585 156V149.279H22.7155V150.254C22.9018 149.959 23.1575 149.701 23.4825 149.48C23.8075 149.259 24.23 149.149 24.75 149.149C24.9926 149.149 25.2396 149.19 25.491 149.272C25.7466 149.355 25.9806 149.478 26.193 149.643C26.4053 149.808 26.57 150.009 26.687 150.247C26.895 149.918 27.1766 149.654 27.532 149.454C27.8873 149.251 28.2881 149.149 28.7345 149.149C28.9685 149.149 29.2133 149.186 29.469 149.259C29.7246 149.329 29.9608 149.454 30.1775 149.636C30.3985 149.814 30.5783 150.063 30.717 150.384C30.8556 150.7 30.925 151.108 30.925 151.606V156H29.716V151.723C29.716 151.316 29.651 151.001 29.521 150.78C29.391 150.555 29.2198 150.397 29.0075 150.306C28.7995 150.215 28.5763 150.169 28.338 150.169C28.13 150.169 27.909 150.211 27.675 150.293C27.441 150.375 27.2416 150.514 27.077 150.709C26.9123 150.904 26.83 151.17 26.83 151.508V156H25.634V151.372C25.634 151.108 25.5625 150.887 25.4195 150.709C25.2808 150.531 25.1053 150.397 24.893 150.306C24.685 150.215 24.477 150.169 24.269 150.169C24.0393 150.169 23.8075 150.215 23.5735 150.306C23.3438 150.397 23.1488 150.542 22.9885 150.741C22.8325 150.936 22.7545 151.192 22.7545 151.508V156H21.5585Z" fill="#8B909A"/>
<path d="M116.704 146.471C117.306 146.471 117.846 146.571 118.323 146.77C118.799 146.969 119.176 147.26 119.454 147.641C119.731 148.022 119.87 148.486 119.87 149.032C119.87 149.543 119.731 149.972 119.454 150.319C119.181 150.666 118.827 150.93 118.394 151.112C118.71 151.173 119.012 151.32 119.298 151.554C119.588 151.788 119.826 152.072 120.013 152.405C120.199 152.739 120.292 153.088 120.292 153.452C120.292 153.994 120.143 154.466 119.844 154.869C119.549 155.272 119.133 155.586 118.596 155.811C118.058 156.033 117.428 156.143 116.704 156.143C115.985 156.143 115.356 156.033 114.819 155.811C114.282 155.586 113.864 155.272 113.565 154.869C113.27 154.466 113.123 153.994 113.123 153.452C113.123 153.088 113.214 152.739 113.396 152.405C113.582 152.072 113.82 151.788 114.111 151.554C114.401 151.32 114.704 151.173 115.021 151.112C114.592 150.93 114.236 150.666 113.955 150.319C113.677 149.972 113.539 149.543 113.539 149.032C113.539 148.486 113.677 148.022 113.955 147.641C114.232 147.26 114.609 146.969 115.086 146.77C115.567 146.571 116.106 146.471 116.704 146.471ZM116.704 150.605C117.276 150.605 117.74 150.464 118.095 150.182C118.455 149.901 118.635 149.509 118.635 149.006C118.635 148.499 118.455 148.1 118.095 147.81C117.735 147.515 117.272 147.368 116.704 147.368C116.136 147.368 115.673 147.515 115.313 147.81C114.953 148.105 114.774 148.503 114.774 149.006C114.774 149.509 114.953 149.901 115.313 150.182C115.673 150.464 116.136 150.605 116.704 150.605ZM116.704 155.168C117.402 155.168 117.959 155.012 118.375 154.7C118.791 154.384 118.999 153.965 118.999 153.445C118.999 153.103 118.903 152.798 118.713 152.529C118.526 152.26 118.262 152.05 117.92 151.898C117.577 151.742 117.172 151.664 116.704 151.664C116.24 151.664 115.837 151.742 115.495 151.898C115.157 152.05 114.893 152.26 114.702 152.529C114.516 152.798 114.423 153.103 114.423 153.445C114.423 153.965 114.628 154.384 115.04 154.7C115.456 155.012 116.011 155.168 116.704 155.168ZM123.769 156.13C123.336 156.13 122.952 156.054 122.619 155.902C122.285 155.746 122.023 155.523 121.832 155.233C121.646 154.943 121.553 154.592 121.553 154.18C121.553 153.435 121.813 152.88 122.333 152.516C122.853 152.152 123.687 151.957 124.835 151.931L126.038 151.898V151.372C126.038 150.96 125.914 150.635 125.667 150.397C125.42 150.154 125.037 150.033 124.517 150.033C124.131 150.037 123.791 150.128 123.496 150.306C123.206 150.484 123.017 150.774 122.931 151.177H121.871C121.897 150.739 122.021 150.371 122.242 150.072C122.463 149.769 122.77 149.539 123.165 149.383C123.563 149.227 124.033 149.149 124.575 149.149C125.16 149.149 125.645 149.231 126.031 149.396C126.421 149.561 126.711 149.803 126.902 150.124C127.097 150.445 127.195 150.839 127.195 151.307V156H126.168L126.083 154.739C125.823 155.263 125.492 155.627 125.089 155.831C124.69 156.03 124.25 156.13 123.769 156.13ZM124.133 155.265C124.358 155.265 124.582 155.224 124.803 155.142C125.028 155.06 125.234 154.949 125.42 154.81C125.606 154.667 125.754 154.509 125.862 154.336C125.975 154.158 126.033 153.976 126.038 153.79V152.639L125.037 152.659C124.525 152.668 124.096 152.72 123.75 152.815C123.407 152.91 123.149 153.06 122.976 153.263C122.807 153.467 122.723 153.734 122.723 154.063C122.723 154.44 122.853 154.735 123.113 154.947C123.377 155.159 123.717 155.265 124.133 155.265ZM129.248 156V149.279H130.405V150.254C130.591 149.959 130.847 149.701 131.172 149.48C131.497 149.259 131.919 149.149 132.439 149.149C132.682 149.149 132.929 149.19 133.18 149.272C133.436 149.355 133.67 149.478 133.882 149.643C134.095 149.808 134.259 150.009 134.376 150.247C134.584 149.918 134.866 149.654 135.221 149.454C135.577 149.251 135.978 149.149 136.424 149.149C136.658 149.149 136.903 149.186 137.158 149.259C137.414 149.329 137.65 149.454 137.867 149.636C138.088 149.814 138.268 150.063 138.406 150.384C138.545 150.7 138.614 151.108 138.614 151.606V156H137.405V151.723C137.405 151.316 137.34 151.001 137.21 150.78C137.08 150.555 136.909 150.397 136.697 150.306C136.489 150.215 136.266 150.169 136.027 150.169C135.819 150.169 135.598 150.211 135.364 150.293C135.13 150.375 134.931 150.514 134.766 150.709C134.602 150.904 134.519 151.17 134.519 151.508V156H133.323V151.372C133.323 151.108 133.252 150.887 133.109 150.709C132.97 150.531 132.795 150.397 132.582 150.306C132.374 150.215 132.166 150.169 131.958 150.169C131.729 150.169 131.497 150.215 131.263 150.306C131.033 150.397 130.838 150.542 130.678 150.741C130.522 150.936 130.444 151.192 130.444 151.508V156H129.248Z" fill="#8B909A"/>
<path d="M225.414 146.601H226.636V152.542H228.196V153.601H226.636V156H225.46V153.601H221.033V152.503L225.414 146.601ZM222.184 152.542H225.434V148.18L222.184 152.542ZM229.599 158.093V149.279H230.795L230.808 150.449C230.886 150.31 230.986 150.165 231.107 150.013C231.233 149.862 231.384 149.721 231.562 149.591C231.744 149.461 231.954 149.355 232.192 149.272C232.435 149.19 232.71 149.149 233.018 149.149C233.555 149.149 234.028 149.272 234.435 149.519C234.847 149.762 235.167 150.135 235.397 150.637C235.627 151.14 235.741 151.777 235.741 152.548C235.741 153.32 235.629 153.972 235.403 154.505C235.182 155.034 234.862 155.437 234.441 155.714C234.021 155.991 233.514 156.13 232.92 156.13C232.621 156.13 232.355 156.087 232.121 156C231.891 155.918 231.69 155.809 231.516 155.675C231.347 155.536 231.204 155.389 231.087 155.233C230.975 155.077 230.882 154.927 230.808 154.784V158.093H229.599ZM232.693 155.194C233.248 155.194 233.7 154.984 234.051 154.563C234.402 154.139 234.578 153.48 234.578 152.587C234.578 151.82 234.418 151.212 234.097 150.761C233.776 150.31 233.308 150.085 232.693 150.085C232.069 150.085 231.597 150.317 231.276 150.78C230.955 151.24 230.795 151.842 230.795 152.587C230.795 153.068 230.866 153.506 231.009 153.9C231.152 154.295 231.365 154.609 231.646 154.843C231.928 155.077 232.277 155.194 232.693 155.194ZM237.318 156V149.279H238.475V150.254C238.661 149.959 238.917 149.701 239.242 149.48C239.567 149.259 239.989 149.149 240.509 149.149C240.752 149.149 240.999 149.19 241.25 149.272C241.506 149.355 241.74 149.478 241.952 149.643C242.165 149.808 242.329 150.009 242.446 150.247C242.654 149.918 242.936 149.654 243.291 149.454C243.647 149.251 244.047 149.149 244.494 149.149C244.728 149.149 244.973 149.186 245.228 149.259C245.484 149.329 245.72 149.454 245.937 149.636C246.158 149.814 246.338 150.063 246.476 150.384C246.615 150.7 246.684 151.108 246.684 151.606V156H245.475V151.723C245.475 151.316 245.41 151.001 245.28 150.78C245.15 150.555 244.979 150.397 244.767 150.306C244.559 150.215 244.336 150.169 244.097 150.169C243.889 150.169 243.668 150.211 243.434 150.293C243.2 150.375 243.001 150.514 242.836 150.709C242.672 150.904 242.589 151.17 242.589 151.508V156H241.393V151.372C241.393 151.108 241.322 150.887 241.179 150.709C241.04 150.531 240.865 150.397 240.652 150.306C240.444 150.215 240.236 150.169 240.028 150.169C239.799 150.169 239.567 150.215 239.333 150.306C239.103 150.397 238.908 150.542 238.748 150.741C238.592 150.936 238.514 151.192 238.514 151.508V156H237.318Z" fill="#8B909A"/>
<path d="M330.641 156V148.518H328.827V147.732C329.39 147.732 329.828 147.691 330.14 147.608C330.452 147.526 330.673 147.4 330.803 147.231C330.937 147.062 331.011 146.852 331.024 146.601H331.882V156H330.641ZM335.935 156V148.518H334.121V147.732C334.684 147.732 335.122 147.691 335.434 147.608C335.746 147.526 335.967 147.4 336.097 147.231C336.231 147.062 336.305 146.852 336.318 146.601H337.176V156H335.935ZM339.805 158.093V149.279H341.001L341.014 150.449C341.092 150.31 341.192 150.165 341.313 150.013C341.439 149.862 341.59 149.721 341.768 149.591C341.95 149.461 342.16 149.355 342.399 149.272C342.641 149.19 342.916 149.149 343.224 149.149C343.761 149.149 344.234 149.272 344.641 149.519C345.053 149.762 345.373 150.135 345.603 150.637C345.833 151.14 345.948 151.777 345.948 152.548C345.948 153.32 345.835 153.972 345.61 154.505C345.389 155.034 345.068 155.437 344.648 155.714C344.227 155.991 343.72 156.13 343.127 156.13C342.828 156.13 342.561 156.087 342.327 156C342.097 155.918 341.896 155.809 341.723 155.675C341.554 155.536 341.411 155.389 341.294 155.233C341.181 155.077 341.088 154.927 341.014 154.784V158.093H339.805ZM342.899 155.194C343.454 155.194 343.907 154.984 344.258 154.563C344.609 154.139 344.784 153.48 344.784 152.587C344.784 151.82 344.624 151.212 344.303 150.761C343.982 150.31 343.514 150.085 342.899 150.085C342.275 150.085 341.803 150.317 341.482 150.78C341.161 151.24 341.001 151.842 341.001 152.587C341.001 153.068 341.073 153.506 341.216 153.9C341.359 154.295 341.571 154.609 341.853 154.843C342.134 155.077 342.483 155.194 342.899 155.194ZM347.524 156V149.279H348.681V150.254C348.867 149.959 349.123 149.701 349.448 149.48C349.773 149.259 350.195 149.149 350.715 149.149C350.958 149.149 351.205 149.19 351.456 149.272C351.712 149.355 351.946 149.478 352.158 149.643C352.371 149.808 352.535 150.009 352.652 150.247C352.86 149.918 353.142 149.654 353.497 149.454C353.853 149.251 354.253 149.149 354.7 149.149C354.934 149.149 355.179 149.186 355.434 149.259C355.69 149.329 355.926 149.454 356.143 149.636C356.364 149.814 356.544 150.063 356.682 150.384C356.821 150.7 356.89 151.108 356.89 151.606V156H355.681V151.723C355.681 151.316 355.616 151.001 355.486 150.78C355.356 150.555 355.185 150.397 354.973 150.306C354.765 150.215 354.542 150.169 354.303 150.169C354.095 150.169 353.874 150.211 353.64 150.293C353.406 150.375 353.207 150.514 353.042 150.709C352.878 150.904 352.795 151.17 352.795 151.508V156H351.599V151.372C351.599 151.108 351.528 150.887 351.385 150.709C351.246 150.531 351.071 150.397 350.858 150.306C350.65 150.215 350.442 150.169 350.234 150.169C350.005 150.169 349.773 150.215 349.539 150.306C349.309 150.397 349.114 150.542 348.954 150.741C348.798 150.936 348.72 151.192 348.72 151.508V156H347.524Z" fill="#8B909A"/>
<path d="M24.5 131L52.5 6.5L78 131H115L137.5 51L154.5 131H181L205 24L207 131H181H154.5H115H78H24.5Z" fill="url(#paint0_linear_1_778)"/>
<defs>
<linearGradient id="paint0_linear_1_778" x1="103.5" y1="6.5" x2="103.5" y2="131" gradientUnits="userSpaceOnUse">
<stop stop-color="#FF648A"/>
<stop offset="0.0001" stop-color="#FFE6EC"/>
<stop offset="1" stop-color="#FFFAFB" stop-opacity="0.79"/>
</linearGradient>
</defs>
</svg>
