<svg width="60" height="60" viewBox="0 0 60 60" fill="none" xmlns="http://www.w3.org/2000/svg">
<g id="Flower">
<path id="Vector" d="M30 36.5625C33.6244 36.5625 36.5625 33.6244 36.5625 30C36.5625 26.3756 33.6244 23.4375 30 23.4375C26.3756 23.4375 23.4375 26.3756 23.4375 30C23.4375 33.6244 26.3756 36.5625 30 36.5625Z" stroke="#828282" stroke-width="1.5" stroke-linecap="round" stroke-linejoin="round"/>
<path id="Vector_2" d="M26.9531 24.1875C25.2422 20.5781 23.4375 16.0781 23.4375 13.125C23.4375 11.3845 24.1289 9.71532 25.3596 8.48461C26.5903 7.2539 28.2595 6.5625 30 6.5625C31.7405 6.5625 33.4097 7.2539 34.6404 8.48461C35.8711 9.71532 36.5625 11.3845 36.5625 13.125C36.5625 16.0781 34.7578 20.5781 33.0469 24.1875" stroke="#828282" stroke-width="1.5" stroke-linecap="round" stroke-linejoin="round"/>
<path id="Vector_3" d="M23.4374 29.7188C19.453 29.4141 14.6483 28.7109 12.0936 27.2344C10.6893 26.3156 9.69037 24.8938 9.3021 23.2611C8.91383 21.6285 9.16577 19.9092 10.0061 18.4566C10.8465 17.004 12.2113 15.9285 13.8202 15.4513C15.4291 14.974 17.1596 15.1313 18.6561 15.8906C21.2108 17.3438 24.2108 21.1641 26.4843 24.4688" stroke="#828282" stroke-width="1.5" stroke-linecap="round" stroke-linejoin="round"/>
<path id="Vector_4" d="M26.4845 35.5313C24.2111 38.8359 21.2111 42.6563 18.6564 44.1094C17.9098 44.5978 17.0716 44.9289 16.1928 45.0824C15.3139 45.2359 14.4131 45.2086 13.5451 45.0022C12.6772 44.7958 11.8605 44.4146 11.1449 43.8819C10.4293 43.3492 9.82978 42.6762 9.38305 41.904C8.93631 41.1318 8.65172 40.2766 8.54665 39.3907C8.44158 38.5048 8.51825 37.6067 8.77196 36.7515C9.02567 35.8962 9.45111 35.1016 10.0223 34.4163C10.5934 33.731 11.2983 33.1693 12.0939 32.7656C14.6486 31.2891 19.4533 30.5859 23.4376 30.2812" stroke="#828282" stroke-width="1.5" stroke-linecap="round" stroke-linejoin="round"/>
<path id="Vector_5" d="M33.0469 35.8125C34.7578 39.4219 36.5625 43.9219 36.5625 46.875C36.5625 48.6155 35.8711 50.2847 34.6404 51.5154C33.4097 52.7461 31.7405 53.4375 30 53.4375C28.2595 53.4375 26.5903 52.7461 25.3596 51.5154C24.1289 50.2847 23.4375 48.6155 23.4375 46.875C23.4375 43.9219 25.2422 39.4219 26.9531 35.8125" stroke="#828282" stroke-width="1.5" stroke-linecap="round" stroke-linejoin="round"/>
<path id="Vector_6" d="M36.5625 30.2812C40.5469 30.5859 45.3516 31.2891 47.9062 32.7656C49.3105 33.6844 50.3095 35.1062 50.6978 36.7389C51.086 38.3715 50.8341 40.0908 49.9938 41.5434C49.1534 42.996 47.7885 44.0715 46.1797 44.5487C44.5708 45.026 42.8403 44.8688 41.3437 44.1094C38.7891 42.6562 35.7891 38.8359 33.5156 35.5313" stroke="#828282" stroke-width="1.5" stroke-linecap="round" stroke-linejoin="round"/>
<path id="Vector_7" d="M33.5156 24.4688C35.7891 21.1641 38.7891 17.3438 41.3437 15.8906C42.8403 15.1313 44.5708 14.974 46.1797 15.4513C47.7885 15.9285 49.1534 17.004 49.9938 18.4566C50.8341 19.9092 51.086 21.6285 50.6978 23.2611C50.3095 24.8938 49.3105 26.3156 47.9062 27.2344C45.3516 28.7109 40.5469 29.4141 36.5625 29.7188" stroke="#828282" stroke-width="1.5" stroke-linecap="round" stroke-linejoin="round"/>
</g>
</svg>
