<svg width="32" height="32" viewBox="0 0 32 32" fill="none" xmlns="http://www.w3.org/2000/svg">
<circle cx="16" cy="16" r="16" fill="#FF517C"/>
<mask id="path-2-inside-1_511_3596" fill="white">
<path d="M12.5815 17.6499C16.244 19.7999 17.9576 20.6749 19.0766 19.5579C19.4112 19.224 19.4269 18.815 19.4014 18.5706C19.3868 18.4305 19.4052 18.2946 19.4778 18.1738L19.5238 18.0973C19.5832 17.9984 19.674 17.9222 19.7817 17.8808L19.9015 17.8348C20.0504 17.7777 20.142 17.6272 20.1244 17.4686L20.1173 17.4045C20.1145 17.3791 20.1191 17.3533 20.1305 17.3305C20.2274 17.1368 20.3752 16.9732 20.5579 16.8571L20.6322 16.8099C20.6933 16.7711 20.7221 16.6977 20.707 16.6269C20.6376 16.302 20.6015 15.8616 20.8588 15.421C21.1632 14.9955 21.2958 14.3624 21.103 13.8761C21.0237 13.6762 20.9551 13.4475 20.9001 13.187C20.7758 12.3598 20.9831 11.615 21.273 10.7465C21.5633 9.83639 21.8945 8.80223 21.8945 7.43705C21.8945 5.49282 20.8585 4.54146 20.3197 4.21045C19.3669 7.43705 17.1701 8.67805 13.7304 12.1529C12.0312 13.849 10.8709 15.9586 10.3737 18.2338C9.91783 20.3849 10.0421 22.4945 10.7466 24.2319C11.5754 26.2174 13.026 27.4585 14.9322 27.7894C13.9375 26.8793 12.4872 25.1419 12.4872 22.6598C12.4872 20.0537 13.026 18.8954 13.4403 18.4404C13.1917 18.1922 12.8714 17.8981 12.5815 17.6499Z"/>
</mask>
<path d="M12.5815 17.6499C16.244 19.7999 17.9576 20.6749 19.0766 19.5579C19.4112 19.224 19.4269 18.815 19.4014 18.5706C19.3868 18.4305 19.4052 18.2946 19.4778 18.1738L19.5238 18.0973C19.5832 17.9984 19.674 17.9222 19.7817 17.8808L19.9015 17.8348C20.0504 17.7777 20.142 17.6272 20.1244 17.4686L20.1173 17.4045C20.1145 17.3791 20.1191 17.3533 20.1305 17.3305C20.2274 17.1368 20.3752 16.9732 20.5579 16.8571L20.6322 16.8099C20.6933 16.7711 20.7221 16.6977 20.707 16.6269C20.6376 16.302 20.6015 15.8616 20.8588 15.421C21.1632 14.9955 21.2958 14.3624 21.103 13.8761C21.0237 13.6762 20.9551 13.4475 20.9001 13.187C20.7758 12.3598 20.9831 11.615 21.273 10.7465C21.5633 9.83639 21.8945 8.80223 21.8945 7.43705C21.8945 5.49282 20.8585 4.54146 20.3197 4.21045C19.3669 7.43705 17.1701 8.67805 13.7304 12.1529C12.0312 13.849 10.8709 15.9586 10.3737 18.2338C9.91783 20.3849 10.0421 22.4945 10.7466 24.2319C11.5754 26.2174 13.026 27.4585 14.9322 27.7894C13.9375 26.8793 12.4872 25.1419 12.4872 22.6598C12.4872 20.0537 13.026 18.8954 13.4403 18.4404C13.1917 18.1922 12.8714 17.8981 12.5815 17.6499Z" fill="white"/>
<path d="M12.5815 17.6499L-138.272 193.909L130.031 -182.424L12.5815 17.6499ZM19.0766 19.5579L182.976 183.756L182.976 183.756L19.0766 19.5579ZM20.9001 13.187L-206.095 61.118L-207.508 54.425L-208.524 47.6603L20.9001 13.187ZM21.273 10.7465L242.305 81.2371L241.83 82.7263L241.335 84.2091L21.273 10.7465ZM20.3197 4.21045L-202.183 -61.4916L-116.385 -352.05L141.757 -193.468L20.3197 4.21045ZM13.7304 12.1529L178.61 175.366L178.121 175.86L177.63 176.351L13.7304 12.1529ZM10.3737 18.2338L-216.586 -29.8643L-216.434 -30.5791L-216.278 -31.2929L10.3737 18.2338ZM10.7466 24.2319L-203.351 113.597L-203.806 112.507L-204.25 111.413L10.7466 24.2319ZM14.9322 27.7894L171.539 -143.378L756.746 392.046L-24.7518 256.37L14.9322 27.7894ZM13.4403 18.4404L177.34 -145.758L334.159 10.7765L184.995 174.622L13.4403 18.4404ZM21.103 13.8761L236.771 -71.6299L21.103 13.8761ZM20.6322 16.8099L-103.802 -178.997L20.6322 16.8099ZM20.707 16.6269L-206.179 65.0679L20.707 16.6269ZM20.5579 16.8571L144.992 212.664L20.5579 16.8571ZM20.1173 17.4045L-210.465 43.0119L20.1173 17.4045ZM19.9015 17.8348L-63.2568 -198.749L19.9015 17.8348ZM20.1244 17.4686L250.707 -8.13879L20.1244 17.4686ZM19.5238 18.0973L-179.344 -101.383L19.5238 18.0973ZM19.7817 17.8808L102.94 234.465L19.7817 17.8808ZM19.4014 18.5706L-211.345 42.6585L19.4014 18.5706ZM130.031 -182.424C138.194 -177.632 117.428 -191.02 91.2719 -199.888C75.479 -205.242 39.3566 -215.725 -7.3683 -210.564C-61.7585 -204.556 -109.597 -179.802 -144.823 -144.64L182.976 183.756C147.191 219.476 98.7184 244.54 43.5778 250.631C-3.89764 255.875 -40.8871 245.248 -57.7062 239.546C-75.486 233.518 -88.7263 226.613 -93.5528 224.058C-99.1749 221.082 -103.829 218.334 -104.868 217.724L130.031 -182.424ZM-144.823 -144.64C-216.085 -73.5078 -214.58 11.6687 -211.345 42.6585L250.148 -5.51723C253.434 25.9613 254.907 111.956 182.976 183.756L-144.823 -144.64ZM-179.39 -101.307L-179.344 -101.383L218.392 137.578L218.345 137.655L-179.39 -101.307ZM-63.3766 -198.703L-63.2568 -198.749L103.06 234.419L102.94 234.465L-63.3766 -198.703ZM-210.458 43.0759L-210.465 43.0119L250.7 -8.20287L250.707 -8.13879L-210.458 43.0759ZM-103.876 -178.95L-103.802 -178.997L145.066 212.616L144.992 212.664L-103.876 -178.95ZM-206.179 65.0679C-211.462 40.3279 -222.03 -28.6956 -179.494 -101.552L221.212 132.394C263.234 60.4189 252.737 -7.7239 247.593 -31.8142L-206.179 65.0679ZM-194.565 99.3822C-200.045 85.5605 -203.672 72.5917 -206.095 61.118L247.895 -34.744C245.582 -45.6966 242.092 -58.2081 236.771 -71.6299L-194.565 99.3822ZM-208.524 47.6603C-217.648 -13.0568 -199.417 -60.8336 -198.789 -62.7161L241.335 84.2091C241.383 84.0637 259.199 37.7764 250.325 -21.2863L-208.524 47.6603ZM-199.759 -59.7441C-199.725 -59.85 -210.105 -30.5711 -210.105 7.43705H253.895C253.895 48.1755 242.852 79.5228 242.305 81.2371L-199.759 -59.7441ZM-210.105 7.43705C-210.105 102.588 -153.974 169.419 -101.118 201.889L141.757 -193.468C195.691 -160.336 253.895 -91.6023 253.895 7.43705H-210.105ZM242.822 69.9125C236.573 91.0733 227.45 111.297 215.62 130.06C204.319 147.984 192.847 160.888 185.594 168.47C182.017 172.208 178.993 175.134 177.246 176.801C175.639 178.335 174.115 179.747 174.096 179.765C173.409 180.404 175.764 178.242 178.61 175.366L-151.149 -151.061C-146.583 -155.674 -142.663 -159.294 -141.941 -159.965C-139.783 -161.973 -144.597 -157.604 -149.679 -152.293C-155.833 -145.859 -166.362 -134.088 -176.877 -117.412C-187.919 -99.8978 -196.41 -81.0391 -202.183 -61.4916L242.822 69.9125ZM177.63 176.351C206.655 147.378 227.804 109.96 237.026 67.7604L-216.278 -31.2929C-206.063 -78.0427 -182.593 -119.681 -150.169 -152.045L177.63 176.351ZM237.333 66.3318C244.585 32.1103 245.562 -14.0728 225.743 -62.9491L-204.25 111.413C-225.478 59.0618 -224.75 8.65952 -216.586 -29.8643L237.333 66.3318ZM224.844 -65.1334C213.309 -92.7685 193.84 -123.618 162.833 -150.017C131.133 -177.006 93.4893 -194.043 54.6162 -200.791L-24.7518 256.37C-115.45 240.624 -176.414 178.132 -203.351 113.597L224.844 -65.1334ZM-141.674 198.957C-162.644 179.771 -219.513 120.445 -219.513 22.6598H244.487C244.487 -70.1615 190.519 -126.012 171.539 -143.378L-141.674 198.957ZM-219.513 22.6598C-219.513 -0.884534 -216.606 -73.493 -158.115 -137.742L184.995 174.622C215.834 140.749 229.833 105.309 236.365 81.7637C243.16 57.2686 244.487 36.4429 244.487 22.6598H-219.513ZM-150.459 182.638C-147.938 185.155 -145.741 187.226 -144.039 188.792C-142.288 190.403 -140.369 192.114 -138.272 193.909L163.435 -158.609C167.619 -155.028 172.368 -150.72 177.34 -145.758L-150.459 182.638ZM-167.824 -119.571C-188.981 -89.9993 -201.826 -57.307 -207.436 -24.8799C-212.978 7.15213 -213.503 51.6147 -194.565 99.3822L236.771 -71.6299C272.167 17.6472 245.119 100.686 209.541 150.413L-167.824 -119.571ZM-103.802 -178.997C-189.665 -124.431 -225.38 -24.8615 -206.179 65.0679L247.593 -31.8142C266.824 58.2568 231.051 157.973 145.066 212.616L-103.802 -178.997ZM-187.337 -86.5028C-168.412 -124.315 -139.563 -156.271 -103.876 -178.95L144.992 212.664C180.313 190.217 208.867 158.589 227.598 121.164L-187.337 -86.5028ZM-210.465 43.0119C-215.407 -1.48674 -207.375 -46.465 -187.337 -86.5028L227.598 121.164C247.613 81.1717 255.636 36.2449 250.7 -8.20287L-210.465 43.0119ZM-63.2568 -198.749C-161.603 -160.989 -222.086 -61.6261 -210.458 43.0759L250.707 -8.13879C262.37 96.8804 201.704 196.544 103.06 234.419L-63.2568 -198.749ZM-179.344 -101.383C-152.627 -145.852 -111.807 -180.108 -63.3766 -198.703L102.94 234.465C151.155 215.953 191.794 181.849 218.392 137.578L-179.344 -101.383ZM-211.345 42.6585C-215.057 7.0985 -212.047 -46.9517 -179.39 -101.307L218.345 137.655C250.857 83.5409 253.83 29.7625 250.148 -5.51723L-211.345 42.6585Z" fill="white" mask="url(#path-2-inside-1_511_3596)"/>
</svg>
