<svg width="58" height="58" viewBox="0 0 58 58" fill="none" xmlns="http://www.w3.org/2000/svg">
<rect x="0.65332" y="0.458008" width="57" height="57" rx="28.5" fill="url(#paint0_linear_2291_13)"/>
<rect x="1.65332" y="1.45801" width="55" height="55" rx="27.5" stroke="#FF97C2" stroke-opacity="0.15" stroke-width="2"/>
<path d="M33.1109 33.5341L30.1202 41.7583C30.047 41.9556 29.9151 42.1258 29.7423 42.246C29.5694 42.3662 29.364 42.4307 29.1534 42.4307C28.9429 42.4307 28.7375 42.3662 28.5646 42.246C28.3918 42.1258 28.2599 41.9556 28.1866 41.7583L25.196 33.5341C25.1438 33.3923 25.0614 33.2636 24.9546 33.1567C24.8478 33.0499 24.719 32.9675 24.5773 32.9153L16.3531 29.9247C16.1557 29.8514 15.9855 29.7195 15.8653 29.5467C15.7451 29.3739 15.6807 29.1684 15.6807 28.9579C15.6807 28.7474 15.7451 28.5419 15.8653 28.3691C15.9855 28.1962 16.1557 28.0643 16.3531 27.9911L24.5773 25.0005C24.719 24.9482 24.8478 24.8659 24.9546 24.759C25.0614 24.6522 25.1438 24.5235 25.196 24.3817L28.1866 16.1575C28.2599 15.9601 28.3918 15.7899 28.5646 15.6697C28.7375 15.5495 28.9429 15.4851 29.1534 15.4851C29.364 15.4851 29.5694 15.5495 29.7423 15.6697C29.9151 15.7899 30.047 15.9601 30.1202 16.1575L33.1109 24.3817C33.1631 24.5235 33.2455 24.6522 33.3523 24.759C33.4591 24.8659 33.5879 24.9482 33.7296 25.0005L41.9538 27.9911C42.1512 28.0643 42.3214 28.1962 42.4416 28.3691C42.5618 28.5419 42.6262 28.7474 42.6262 28.9579C42.6262 29.1684 42.5618 29.3739 42.4416 29.5467C42.3214 29.7195 42.1512 29.8514 41.9538 29.9247L33.7296 32.9153C33.5879 32.9675 33.4591 33.0499 33.3523 33.1567C33.2455 33.2636 33.1631 33.3923 33.1109 33.5341V33.5341Z" stroke="#FF517C" stroke-width="2" stroke-linecap="round" stroke-linejoin="round"/>
<defs>
<linearGradient id="paint0_linear_2291_13" x1="29.1533" y1="0.458008" x2="29.1533" y2="57.458" gradientUnits="userSpaceOnUse">
<stop stop-color="#FF648A"/>
<stop offset="0.0001" stop-color="#FFE6EC"/>
<stop offset="1" stop-color="#FFFAFB" stop-opacity="0.79"/>
</linearGradient>
</defs>
</svg>
