<svg width="58" height="57" viewBox="0 0 58 57" fill="none" xmlns="http://www.w3.org/2000/svg">
<rect x="0.981567" width="57" height="57" rx="28.5" fill="url(#paint0_linear_2261_78)"/>
<rect x="1.98157" y="1" width="55" height="55" rx="27.5" stroke="#FF97C2" stroke-opacity="0.15" stroke-width="2"/>
<path d="M33.439 33.0761L30.4484 41.3003C30.3751 41.4976 30.2432 41.6678 30.0704 41.788C29.8976 41.9082 29.6921 41.9727 29.4816 41.9727C29.2711 41.9727 29.0656 41.9082 28.8928 41.788C28.7199 41.6678 28.588 41.4976 28.5148 41.3003L25.5241 33.0761C25.4719 32.9343 25.3895 32.8056 25.2827 32.6987C25.1759 32.5919 25.0472 32.5095 24.9054 32.4573L16.6812 29.4667C16.4838 29.3934 16.3136 29.2615 16.1934 29.0887C16.0732 28.9159 16.0088 28.7104 16.0088 28.4999C16.0088 28.2894 16.0732 28.0839 16.1934 27.9111C16.3136 27.7382 16.4838 27.6063 16.6812 27.5331L24.9054 24.5425C25.0472 24.4902 25.1759 24.4079 25.2827 24.301C25.3895 24.1942 25.4719 24.0655 25.5241 23.9237L28.5148 15.6995C28.588 15.5021 28.7199 15.3319 28.8928 15.2117C29.0656 15.0915 29.2711 15.0271 29.4816 15.0271C29.6921 15.0271 29.8976 15.0915 30.0704 15.2117C30.2432 15.3319 30.3751 15.5021 30.4484 15.6995L33.439 23.9237C33.4912 24.0655 33.5736 24.1942 33.6804 24.301C33.7872 24.4079 33.916 24.4902 34.0577 24.5425L42.282 27.5331C42.4793 27.6063 42.6495 27.7382 42.7697 27.9111C42.8899 28.0839 42.9543 28.2894 42.9543 28.4999C42.9543 28.7104 42.8899 28.9159 42.7697 29.0887C42.6495 29.2615 42.4793 29.3934 42.282 29.4667L34.0577 32.4573C33.916 32.5095 33.7872 32.5919 33.6804 32.6987C33.5736 32.8056 33.4912 32.9343 33.439 33.0761V33.0761Z" stroke="#FF517C" stroke-width="2" stroke-linecap="round" stroke-linejoin="round"/>
<defs>
<linearGradient id="paint0_linear_2261_78" x1="29.4816" y1="0" x2="29.4816" y2="57" gradientUnits="userSpaceOnUse">
<stop stop-color="#FF648A"/>
<stop offset="0.0001" stop-color="#FFE6EC"/>
<stop offset="1" stop-color="#FFFAFB" stop-opacity="0.79"/>
</linearGradient>
</defs>
</svg>
