<svg width="33" height="32" viewBox="0 0 33 32" fill="none" xmlns="http://www.w3.org/2000/svg">
<circle cx="16.5" cy="16" r="15.25" stroke="#555555" stroke-width="1.5"/>
<mask id="path-2-inside-1_1569_5922" fill="white">
<path d="M13.0815 17.6499C16.744 19.7999 18.4576 20.6749 19.5766 19.5579C19.9112 19.224 19.9269 18.815 19.9014 18.5706C19.8868 18.4305 19.9052 18.2946 19.9778 18.1738L20.0238 18.0973C20.0832 17.9984 20.174 17.9222 20.2817 17.8808L20.4015 17.8348C20.5504 17.7777 20.642 17.6272 20.6244 17.4686L20.6173 17.4045C20.6145 17.3791 20.6191 17.3533 20.6305 17.3305C20.7274 17.1368 20.8752 16.9732 21.0579 16.8571L21.1322 16.8099C21.1933 16.7711 21.2221 16.6977 21.207 16.6269C21.1376 16.302 21.1015 15.8616 21.3588 15.421C21.6632 14.9955 21.7958 14.3624 21.603 13.8761C21.5237 13.6762 21.4551 13.4475 21.4001 13.187C21.2758 12.3598 21.4831 11.615 21.773 10.7465C22.0633 9.83639 22.3945 8.80223 22.3945 7.43705C22.3945 5.49282 21.3585 4.54146 20.8197 4.21045C19.8669 7.43705 17.6701 8.67805 14.2304 12.1529C12.5312 13.849 11.3709 15.9586 10.8737 18.2338C10.4178 20.3849 10.5421 22.4945 11.2466 24.2319C12.0754 26.2174 13.526 27.4585 15.4322 27.7894C14.4375 26.8793 12.9872 25.1419 12.9872 22.6598C12.9872 20.0537 13.526 18.8954 13.9403 18.4404C13.6917 18.1922 13.3714 17.8981 13.0815 17.6499Z"/>
</mask>
<path d="M13.0815 17.6499C16.744 19.7999 18.4576 20.6749 19.5766 19.5579C19.9112 19.224 19.9269 18.815 19.9014 18.5706C19.8868 18.4305 19.9052 18.2946 19.9778 18.1738L20.0238 18.0973C20.0832 17.9984 20.174 17.9222 20.2817 17.8808L20.4015 17.8348C20.5504 17.7777 20.642 17.6272 20.6244 17.4686L20.6173 17.4045C20.6145 17.3791 20.6191 17.3533 20.6305 17.3305C20.7274 17.1368 20.8752 16.9732 21.0579 16.8571L21.1322 16.8099C21.1933 16.7711 21.2221 16.6977 21.207 16.6269C21.1376 16.302 21.1015 15.8616 21.3588 15.421C21.6632 14.9955 21.7958 14.3624 21.603 13.8761C21.5237 13.6762 21.4551 13.4475 21.4001 13.187C21.2758 12.3598 21.4831 11.615 21.773 10.7465C22.0633 9.83639 22.3945 8.80223 22.3945 7.43705C22.3945 5.49282 21.3585 4.54146 20.8197 4.21045C19.8669 7.43705 17.6701 8.67805 14.2304 12.1529C12.5312 13.849 11.3709 15.9586 10.8737 18.2338C10.4178 20.3849 10.5421 22.4945 11.2466 24.2319C12.0754 26.2174 13.526 27.4585 15.4322 27.7894C14.4375 26.8793 12.9872 25.1419 12.9872 22.6598C12.9872 20.0537 13.526 18.8954 13.9403 18.4404C13.6917 18.1922 13.3714 17.8981 13.0815 17.6499Z" fill="#555555"/>
<path d="M13.0815 17.6499L-137.772 193.909L130.531 -182.424L13.0815 17.6499ZM19.5766 19.5579L183.476 183.756L183.476 183.756L19.5766 19.5579ZM21.4001 13.187L-205.595 61.118L-207.008 54.425L-208.024 47.6603L21.4001 13.187ZM21.773 10.7465L242.805 81.2371L242.33 82.7263L241.835 84.2091L21.773 10.7465ZM20.8197 4.21045L-201.683 -61.4916L-115.885 -352.05L142.257 -193.468L20.8197 4.21045ZM14.2304 12.1529L179.11 175.366L178.621 175.86L178.13 176.351L14.2304 12.1529ZM10.8737 18.2338L-216.086 -29.8643L-215.934 -30.5791L-215.778 -31.2929L10.8737 18.2338ZM11.2466 24.2319L-202.851 113.597L-203.306 112.507L-203.75 111.413L11.2466 24.2319ZM15.4322 27.7894L172.039 -143.378L757.246 392.046L-24.2518 256.37L15.4322 27.7894ZM13.9403 18.4404L177.84 -145.758L334.659 10.7765L185.495 174.622L13.9403 18.4404ZM21.603 13.8761L237.271 -71.6299L21.603 13.8761ZM21.1322 16.8099L-103.302 -178.997L21.1322 16.8099ZM21.207 16.6269L-205.679 65.0679L21.207 16.6269ZM21.0579 16.8571L145.492 212.664L21.0579 16.8571ZM20.6173 17.4045L-209.965 43.0119L20.6173 17.4045ZM20.6305 17.3305L-186.837 -86.5028L20.6305 17.3305ZM20.4015 17.8348L-62.7568 -198.749L20.4015 17.8348ZM20.6244 17.4686L251.207 -8.13879L20.6244 17.4686ZM20.0238 18.0973L-178.844 -101.383L20.0238 18.0973ZM20.2817 17.8808L103.44 234.465L20.2817 17.8808ZM19.9014 18.5706L-210.845 42.6585L19.9014 18.5706ZM130.531 -182.424C138.694 -177.632 117.928 -191.02 91.7719 -199.888C75.979 -205.242 39.8566 -215.725 -6.8683 -210.564C-61.2585 -204.556 -109.097 -179.802 -144.323 -144.64L183.476 183.756C147.691 219.476 99.2184 244.54 44.0778 250.631C-3.39764 255.875 -40.3871 245.248 -57.2062 239.546C-74.986 233.518 -88.2263 226.613 -93.0528 224.058C-98.6749 221.082 -103.329 218.334 -104.368 217.724L130.531 -182.424ZM-144.323 -144.64C-215.585 -73.5078 -214.08 11.6687 -210.845 42.6585L250.648 -5.51723C253.934 25.9613 255.407 111.956 183.476 183.756L-144.323 -144.64ZM-178.89 -101.307L-178.844 -101.383L218.892 137.578L218.845 137.655L-178.89 -101.307ZM-62.8766 -198.703L-62.7568 -198.749L103.56 234.419L103.44 234.465L-62.8766 -198.703ZM-209.958 43.0759L-209.965 43.0119L251.2 -8.20287L251.207 -8.13879L-209.958 43.0759ZM-103.376 -178.95L-103.302 -178.997L145.566 212.616L145.492 212.664L-103.376 -178.95ZM-205.679 65.0679C-210.962 40.3279 -221.53 -28.6956 -178.994 -101.552L221.712 132.394C263.734 60.4189 253.237 -7.7239 248.093 -31.8142L-205.679 65.0679ZM-194.065 99.3822C-199.545 85.5605 -203.172 72.5917 -205.595 61.118L248.395 -34.744C246.082 -45.6966 242.592 -58.2081 237.271 -71.6299L-194.065 99.3822ZM-208.024 47.6603C-217.148 -13.0568 -198.917 -60.8336 -198.289 -62.7161L241.835 84.2091C241.883 84.0637 259.699 37.7764 250.825 -21.2863L-208.024 47.6603ZM-199.259 -59.7441C-199.225 -59.85 -209.605 -30.5711 -209.605 7.43705H254.395C254.395 48.1755 243.352 79.5228 242.805 81.2371L-199.259 -59.7441ZM-209.605 7.43705C-209.605 102.588 -153.474 169.419 -100.618 201.889L142.257 -193.468C196.191 -160.336 254.395 -91.6023 254.395 7.43705H-209.605ZM243.322 69.9125C237.073 91.0733 227.95 111.297 216.12 130.06C204.819 147.984 193.347 160.888 186.094 168.47C182.517 172.208 179.493 175.134 177.746 176.801C176.139 178.335 174.615 179.747 174.596 179.765C173.909 180.404 176.264 178.242 179.11 175.366L-150.649 -151.061C-146.083 -155.674 -142.163 -159.294 -141.441 -159.965C-139.283 -161.973 -144.097 -157.604 -149.179 -152.293C-155.333 -145.859 -165.862 -134.088 -176.377 -117.412C-187.419 -99.8978 -195.91 -81.0391 -201.683 -61.4916L243.322 69.9125ZM178.13 176.351C207.155 147.378 228.304 109.96 237.526 67.7604L-215.778 -31.2929C-205.563 -78.0427 -182.093 -119.681 -149.669 -152.045L178.13 176.351ZM237.833 66.3318C245.085 32.1103 246.062 -14.0728 226.243 -62.9491L-203.75 111.413C-224.978 59.0618 -224.25 8.65952 -216.086 -29.8643L237.833 66.3318ZM225.344 -65.1334C213.809 -92.7685 194.34 -123.618 163.333 -150.017C131.633 -177.006 93.9893 -194.043 55.1162 -200.791L-24.2518 256.37C-114.95 240.624 -175.914 178.132 -202.851 113.597L225.344 -65.1334ZM-141.174 198.957C-162.144 179.771 -219.013 120.445 -219.013 22.6598H244.987C244.987 -70.1615 191.019 -126.012 172.039 -143.378L-141.174 198.957ZM-219.013 22.6598C-219.013 -0.884534 -216.106 -73.493 -157.615 -137.742L185.495 174.622C216.334 140.749 230.333 105.309 236.865 81.7637C243.66 57.2686 244.987 36.4429 244.987 22.6598H-219.013ZM-149.959 182.638C-147.438 185.155 -145.241 187.226 -143.539 188.792C-141.788 190.403 -139.869 192.114 -137.772 193.909L163.935 -158.609C168.119 -155.028 172.868 -150.72 177.84 -145.758L-149.959 182.638ZM-167.324 -119.571C-188.481 -89.9993 -201.326 -57.307 -206.936 -24.8799C-212.478 7.15213 -213.003 51.6147 -194.065 99.3822L237.271 -71.6299C272.667 17.6472 245.619 100.686 210.041 150.413L-167.324 -119.571ZM-103.302 -178.997C-189.165 -124.431 -224.88 -24.8615 -205.679 65.0679L248.093 -31.8142C267.324 58.2568 231.551 157.973 145.566 212.616L-103.302 -178.997ZM-186.837 -86.5028C-167.912 -124.315 -139.063 -156.271 -103.376 -178.95L145.492 212.664C180.813 190.217 209.367 158.589 228.098 121.164L-186.837 -86.5028ZM-209.965 43.0119C-214.907 -1.48674 -206.875 -46.465 -186.837 -86.5028L228.098 121.164C248.113 81.1717 256.136 36.2449 251.2 -8.20287L-209.965 43.0119ZM-62.7568 -198.749C-161.103 -160.989 -221.586 -61.6261 -209.958 43.0759L251.207 -8.13879C262.87 96.8804 202.204 196.544 103.56 234.419L-62.7568 -198.749ZM-178.844 -101.383C-152.127 -145.852 -111.307 -180.108 -62.8766 -198.703L103.44 234.465C151.655 215.953 192.294 181.849 218.892 137.578L-178.844 -101.383ZM-210.845 42.6585C-214.557 7.0985 -211.547 -46.9517 -178.89 -101.307L218.845 137.655C251.357 83.5409 254.33 29.7625 250.648 -5.51723L-210.845 42.6585Z" fill="#555555" mask="url(#path-2-inside-1_1569_5922)"/>
</svg>
