<svg width="2079" height="328" viewBox="0 0 2079 328" fill="none" xmlns="http://www.w3.org/2000/svg">
<rect width="328" height="328" rx="164" fill="#FF517C"/>
<path fill-rule="evenodd" clip-rule="evenodd" d="M102.209 225.552C102.183 225.322 102.157 225.092 102.131 224.862C101.988 223.563 101.87 222.254 101.776 220.937C101.576 218.143 101.484 215.31 101.502 212.447C101.509 211.382 101.53 210.313 101.567 209.24C101.702 205.293 102.041 201.293 102.584 197.263C102.768 195.897 102.975 194.527 103.206 193.154C103.368 192.192 103.541 191.229 103.726 190.265C103.921 189.248 104.128 188.23 104.348 187.211C105.387 182.552 106.699 177.959 108.275 173.453C109.198 170.812 110.211 168.201 111.313 165.623L113 162.5L145.838 119.354C147.848 116.713 150.063 114.235 152.486 111.968V111.968C156.998 107.745 161.269 103.852 165.297 100.18C165.419 100.069 165.541 99.9577 165.662 99.8469C166.285 99.2793 166.902 98.7168 167.513 98.1591C168.218 97.5155 168.916 96.8783 169.605 96.2469C170.477 95.4495 171.335 94.6613 172.182 93.8812C172.374 93.704 172.565 93.5272 172.756 93.3508C173.025 93.1024 173.293 92.8549 173.559 92.608C176.001 90.3451 178.337 88.1449 180.566 85.9757C182.141 84.4433 183.662 82.9263 185.131 81.4136C185.716 80.8113 186.292 80.2097 186.86 79.6081C187.281 79.1623 187.697 78.7164 188.108 78.2703C189.103 77.1921 190.071 76.1122 191.011 75.0264C195.184 70.21 198.826 65.2786 201.937 59.878C205.112 54.3662 207.733 48.3657 209.802 41.5C214.439 44.2914 222.548 51.3288 225.439 64.6815C225.627 65.5492 225.793 66.4435 225.934 67.3651C226.298 69.7355 226.5 72.286 226.5 75.0264C226.5 85.6886 224.516 94.4075 222.223 102.096C221.476 104.603 220.696 106.999 219.941 109.318L219.91 109.413C216.836 118.438 214.638 126.176 215.956 134.772C217.37 141.333 219.632 145.951 222.289 149.075C223.191 150.134 223.014 151.821 221.832 152.553C219.481 154.011 217.141 155.762 215.519 157.984C212.649 162.8 213.222 167.613 214.026 171.03C214.126 171.454 213.949 171.897 213.579 172.127L211.488 173.43C210.1 174.294 208.974 175.52 208.231 176.976L207.748 177.921C207.659 178.096 207.623 178.294 207.645 178.489L207.961 181.283C208.013 181.738 207.749 182.17 207.32 182.332L202.657 184.086C202.449 184.164 202.273 184.31 202.157 184.499L199.848 188.266C199.751 188.423 199.711 188.603 199.749 188.783L199.763 188.851C200.082 190.376 201.335 196.361 196.623 200.97C194.291 203.251 191.716 204.732 188.788 205.471C188.36 205.579 187.925 205.671 187.481 205.747C182.064 206.681 175.472 205.271 167.084 201.841C166.063 201.423 165.015 200.975 163.939 200.498C163.489 200.298 163.033 200.094 162.573 199.884C162.461 199.832 162.348 199.781 162.236 199.729C160.765 199.054 159.245 198.327 157.672 197.55C152.755 195.122 147.322 192.204 141.292 188.838C141.005 188.678 140.717 188.517 140.427 188.355C139.876 188.046 139.32 187.734 138.76 187.418C138.212 187.11 137.659 186.798 137.102 186.483C134.339 184.919 131.457 183.272 128.451 181.544V181.544C128.376 181.501 128.303 181.605 128.369 181.661C129.424 182.555 130.509 183.498 131.58 184.451C132.465 185.238 133.341 186.033 134.184 186.813C135.078 187.642 135.935 188.454 136.727 189.226C136.767 189.265 136.807 189.303 136.846 189.342V189.342C136.855 189.351 136.856 189.365 136.847 189.374C135.89 190.407 134.871 191.787 133.862 193.593C133.83 193.652 133.797 193.711 133.765 193.77C132.451 196.16 131.158 199.28 130.049 203.306C128.271 209.752 126.961 218.521 126.779 230.339C126.764 231.274 126.757 232.228 126.757 233.201C126.757 236.044 126.944 238.793 127.291 241.447C127.3 241.52 127.31 241.593 127.32 241.666C130.179 262.971 143.329 278.115 152.681 286.5C132.47 283.061 117.089 270.166 108.302 249.535C107.947 248.676 107.605 247.808 107.278 246.931C105.639 242.549 104.349 237.957 103.408 233.201C102.911 230.694 102.512 228.142 102.209 225.552Z" fill="white"/>
<g clip-path="url(#clip0_187_575)">
<path d="M605.708 157.939C634.041 174.328 648.304 198.96 648.304 231.931C648.304 259.375 638.601 281.873 619.195 299.425C599.789 316.978 575.823 325.802 547.491 325.802H410V2.19824H537.691C565.441 2.19824 588.825 10.732 607.746 27.7995C626.666 44.867 636.175 66.6863 636.175 93.2573C636.175 119.828 625.987 141.648 605.611 157.939H605.708ZM537.691 61.7406H473.845V132.92H537.691C547.588 132.92 555.835 129.526 562.433 122.738C569.031 115.949 572.33 107.513 572.33 97.3303C572.33 87.1479 569.128 78.7112 562.627 71.9229C556.126 65.1347 547.782 61.7406 537.691 61.7406ZM547.393 266.066C558.164 266.066 567.09 262.478 574.271 255.205C581.354 247.932 584.944 238.816 584.944 227.664C584.944 216.512 581.354 207.881 574.271 200.608C567.187 193.335 558.261 189.747 547.393 189.747H473.845V266.066H547.393Z" fill="#FF517C"/>
<path d="M734.17 228.245C742.224 257.24 763.958 271.689 799.374 271.689C822.176 271.689 839.447 264.028 851.188 248.609L899.314 276.344C876.512 309.315 842.843 325.801 798.501 325.801C760.271 325.801 729.61 314.261 706.42 291.084C683.327 268.004 671.683 238.815 671.683 203.71C671.683 168.605 683.133 139.804 705.935 116.53C728.737 93.2561 758.039 81.6191 793.843 81.6191C827.804 81.6191 855.748 93.3531 877.774 116.724C899.799 140.095 910.861 169.09 910.861 203.613C910.861 211.274 910.084 219.517 908.532 228.148H734.17V228.245ZM733.2 181.988H851.188C847.792 166.278 840.805 154.544 830.132 146.883C819.459 139.222 807.427 135.343 793.843 135.343C777.833 135.343 764.54 139.416 754.061 147.562C743.582 155.708 736.596 167.248 733.2 181.988Z" fill="#FF517C"/>
<path d="M1005.17 153.866C1005.17 160.072 1009.24 165.018 1017.39 168.897C1025.54 172.776 1035.54 176.17 1047.18 179.079C1058.92 181.988 1070.66 185.77 1082.31 190.134C1094.05 194.595 1103.94 202.062 1112.09 212.535C1120.24 223.008 1124.32 236.1 1124.32 251.81C1124.32 275.569 1115.49 293.8 1097.73 306.6C1079.98 319.401 1057.85 325.801 1031.37 325.801C983.821 325.801 951.51 307.473 934.239 270.817L986.053 241.725C992.845 261.798 1007.98 271.787 1031.37 271.787C1052.61 271.787 1063.29 265.192 1063.29 251.907C1063.29 245.7 1059.21 240.755 1051.06 236.876C1042.91 232.997 1032.92 229.603 1021.27 226.499C1009.53 223.396 997.793 219.614 986.15 214.96C974.409 210.305 964.512 203.032 956.265 193.043C948.114 183.055 944.039 170.448 944.039 155.32C944.039 132.531 952.481 114.591 969.267 101.499C986.053 88.4077 1007.01 81.8135 1031.95 81.8135C1050.77 81.8135 1067.85 86.0804 1083.28 94.5171C1098.7 102.954 1110.83 115.076 1119.86 130.786L1069.01 158.52C1061.64 142.81 1049.32 134.956 1032.04 134.956C1024.38 134.956 1017.98 136.701 1012.83 140.095C1007.79 143.489 1005.17 148.144 1005.17 153.963V153.866Z" fill="#FF517C"/>
<path d="M1210.19 228.245C1218.24 257.24 1239.97 271.689 1275.39 271.689C1298.19 271.689 1315.46 264.028 1327.2 248.609L1375.33 276.344C1352.53 309.315 1318.86 325.801 1274.52 325.801C1236.29 325.801 1205.62 314.261 1182.43 291.084C1159.34 268.004 1147.7 238.815 1147.7 203.71C1147.7 168.605 1159.15 139.804 1181.95 116.53C1204.75 93.2561 1234.05 81.6191 1269.86 81.6191C1303.82 81.6191 1331.76 93.3531 1353.79 116.724C1375.81 140.095 1386.88 169.09 1386.88 203.613C1386.88 211.274 1386.1 219.517 1384.55 228.148H1210.19V228.245ZM1209.22 181.988H1327.2C1323.81 166.278 1316.82 154.544 1306.15 146.883C1295.47 139.222 1283.44 135.343 1269.86 135.343C1253.85 135.343 1240.56 139.416 1230.08 147.562C1219.6 155.708 1212.61 167.248 1209.22 181.988Z" fill="#FF517C"/>
<path d="M1469.93 134.374C1475.46 119.537 1484.68 108.482 1497.48 101.112C1510.29 93.7417 1524.56 90.0566 1540.27 90.0566V156.678C1522.03 154.545 1505.83 158.23 1491.47 167.733C1477.11 177.237 1469.93 193.141 1469.93 215.348V325.802H1410.26V94.6144H1469.93V134.374Z" fill="#FF517C"/>
<path d="M1741.8 94.6143H1807.49L1719.58 325.802H1651.56L1563.65 94.6143H1629.34L1685.42 256.368L1741.8 94.6143Z" fill="#FF517C"/>
<path d="M2018.72 88.1164H2078.39V319.304H2018.72V292.054C2000.86 314.552 1975.73 325.801 1943.32 325.801C1910.92 325.801 1886.08 314.067 1863.95 290.405C1841.93 266.84 1830.87 237.942 1830.87 203.71C1830.87 169.478 1841.93 140.58 1863.95 117.015C1885.98 93.45 1912.47 81.6191 1943.32 81.6191C1975.73 81.6191 2000.86 92.8682 2018.72 115.366V88.1164ZM1908.59 250.646C1920.62 262.865 1935.85 268.877 1954.39 268.877C1972.92 268.877 1988.25 262.768 2000.38 250.646C2012.51 238.524 2018.62 222.814 2018.62 203.71C2018.62 184.606 2012.51 168.993 2000.38 156.774C1988.25 144.556 1972.82 138.543 1954.39 138.543C1935.95 138.543 1920.62 144.653 1908.59 156.774C1896.56 168.993 1890.54 184.606 1890.54 203.71C1890.54 222.814 1896.56 238.427 1908.59 250.646Z" fill="#FF517C"/>
</g>
<defs>
<clipPath id="clip0_187_575">
<rect width="1668.39" height="323.604" fill="white" transform="translate(410 2.19824)"/>
</clipPath>
</defs>
</svg>
