<svg width="200" height="33" viewBox="0 0 200 33" fill="none" xmlns="http://www.w3.org/2000/svg">
<path d="M15.9502 0C24.7618 0 31.9005 7.13871 31.9005 15.9502C31.9005 24.7618 24.7618 31.9005 15.9502 31.9005C7.13871 31.9005 0 24.7618 0 15.9502C0 7.13871 7.13871 0 15.9502 0Z" fill="#FF517C"/>
<path fill-rule="evenodd" clip-rule="evenodd" d="M9.94011 21.9413C9.94011 21.9219 9.93038 21.8927 9.93038 21.8733C9.92066 21.7468 9.90121 21.6204 9.89148 21.4939C9.87203 21.2216 9.8623 20.9493 9.8623 20.6673C9.8623 20.5603 9.8623 20.463 9.87203 20.356C9.88176 19.9767 9.92066 19.5877 9.96929 19.1889C9.98874 19.0528 10.0082 18.9263 10.0276 18.7902C10.0471 18.6929 10.0568 18.6054 10.0763 18.5081C10.0957 18.4109 10.1152 18.3136 10.1346 18.2066C10.2319 17.7495 10.368 17.3021 10.5139 16.8645C10.6015 16.6116 10.6987 16.349 10.8057 16.1059L10.971 15.8044L14.1611 11.6126C14.3556 11.3597 14.5696 11.1166 14.803 10.8929C15.2406 10.4844 15.6589 10.1051 16.0479 9.74523C16.0576 9.73551 16.0673 9.72578 16.0868 9.71606C16.1451 9.6577 16.2035 9.60907 16.2716 9.55072C16.3397 9.49236 16.4077 9.42428 16.4758 9.36593C16.5634 9.28812 16.6412 9.21032 16.7287 9.13251C16.7481 9.11306 16.7676 9.09361 16.787 9.08388C16.8162 9.06443 16.8357 9.03525 16.8648 9.0158C17.0983 8.79211 17.3317 8.57814 17.5457 8.3739C17.7013 8.22801 17.8472 8.08213 17.993 7.92652C18.0514 7.86816 18.1097 7.80981 18.1584 7.75145C18.1973 7.71255 18.2362 7.66392 18.2751 7.62502C18.3723 7.51803 18.4696 7.41105 18.5571 7.31379C18.9656 6.84696 19.3157 6.37039 19.6172 5.8452C19.9285 5.31029 20.1813 4.72674 20.3856 4.05566C20.833 4.32799 21.6207 5.00879 21.9028 6.31204C21.9222 6.39957 21.9417 6.4871 21.9514 6.57464C21.9903 6.80805 22.0098 7.0512 22.0098 7.32352C22.0098 8.36418 21.8153 9.21032 21.5916 9.9592C21.5235 10.2023 21.4457 10.4358 21.3679 10.6595V10.6692C21.0664 11.5445 20.8524 12.3031 20.9788 13.1395C21.115 13.7814 21.3387 14.2288 21.5916 14.5303C21.6791 14.6373 21.6596 14.7929 21.5429 14.8707C21.3095 15.0166 21.0858 15.1819 20.9302 15.3959C20.6482 15.8627 20.7065 16.3296 20.7843 16.6602C20.7941 16.6992 20.7746 16.7478 20.7454 16.7672L20.5412 16.8937C20.405 16.9812 20.298 17.0979 20.2202 17.2341L20.1716 17.3216C20.1619 17.3411 20.1619 17.3605 20.1619 17.38L20.1911 17.6523C20.2008 17.7009 20.1716 17.7398 20.1327 17.7495L19.6756 17.9246C19.6561 17.9343 19.6367 17.944 19.627 17.9635L19.4033 18.3331C19.3935 18.3525 19.3935 18.3623 19.3935 18.3817V18.3914C19.4227 18.5373 19.5492 19.1209 19.092 19.5682C18.8684 19.7919 18.6155 19.9378 18.3334 20.0059C18.2945 20.0156 18.2459 20.0254 18.207 20.0351C17.6818 20.1226 17.0399 19.9865 16.223 19.6558C16.1257 19.6169 16.0187 19.5682 15.9215 19.5293C15.8825 19.5099 15.8339 19.4904 15.7853 19.471C15.7756 19.4613 15.7658 19.4613 15.7561 19.4515C15.6102 19.3835 15.4643 19.3154 15.3087 19.2376C14.8322 19.0042 14.307 18.7221 13.7137 18.3914C13.6845 18.372 13.6554 18.3623 13.6262 18.3428C13.5678 18.3136 13.5192 18.2844 13.4608 18.2553C13.4122 18.2261 13.3539 18.1969 13.2955 18.1677C13.0232 18.0121 12.7509 17.8565 12.4494 17.6912C12.4396 17.6912 12.4396 17.7009 12.4396 17.7009C12.5466 17.7884 12.6439 17.876 12.7509 17.9732C12.8384 18.051 12.9259 18.1288 13.0037 18.2066C13.0913 18.2844 13.1788 18.3623 13.2469 18.4401L13.2566 18.4498C13.1593 18.547 13.0621 18.6832 12.9648 18.8583C12.9648 18.868 12.9551 18.868 12.9551 18.8777C12.8287 19.1111 12.7022 19.4126 12.5952 19.8017C12.4202 20.4241 12.2937 21.28 12.2743 22.4276C12.2743 22.5152 12.2743 22.6124 12.2743 22.7097C12.2743 22.982 12.2937 23.2543 12.3229 23.5072C12.3229 23.5169 12.3229 23.5169 12.3229 23.5266C12.605 25.5982 13.879 27.0668 14.7933 27.8838C12.8287 27.5531 11.3309 26.2985 10.475 24.2852C10.4361 24.1977 10.4069 24.1199 10.3778 24.0324C10.2222 23.6044 10.0957 23.1571 9.99847 22.6999C10.0082 22.4373 9.96929 22.1845 9.94011 21.9413Z" fill="white"/>
<path d="M58.9093 15.3569C61.6617 16.9519 63.0525 19.3444 63.0525 22.5539C63.0525 25.2188 62.1091 27.4071 60.2223 29.1188C58.3355 30.8306 56.0013 31.6864 53.2489 31.6864H39.876V0.213867H52.2958C54.9995 0.213867 57.2656 1.04056 59.1135 2.70366C60.9517 4.36677 61.8756 6.48698 61.8756 9.07403C61.8756 11.6514 60.8836 13.7716 58.9093 15.3569ZM52.2958 6.00069H46.0907V12.9254H52.2958C53.2586 12.9254 54.0561 12.5948 54.698 11.9334C55.3399 11.2721 55.6609 10.4551 55.6609 9.46306C55.6609 8.47104 55.3497 7.65407 54.7175 6.99272C54.0853 6.33137 53.2781 6.00069 52.2958 6.00069ZM53.2392 25.8801C54.2896 25.8801 55.1551 25.53 55.8554 24.82C56.5459 24.1101 56.8961 23.225 56.8961 22.1455C56.8961 21.0562 56.5459 20.2198 55.8554 19.5098C55.1649 18.7998 54.2993 18.4497 53.2392 18.4497H46.0907V25.8704H53.2392V25.8801Z" fill="white"/>
<path d="M71.4067 22.8265C72.1945 25.647 74.305 27.0475 77.7479 27.0475C79.9654 27.0475 81.6479 26.2986 82.7859 24.8009L87.4639 27.4949C85.2465 30.7044 81.9689 32.3091 77.6604 32.3091C73.9451 32.3091 70.9593 31.1907 68.703 28.9343C66.4563 26.6877 65.3281 23.8477 65.3281 20.434C65.3281 17.0202 66.4466 14.2192 68.6641 11.9531C70.8815 9.68703 73.7312 8.55884 77.213 8.55884C80.5198 8.55884 83.2332 9.69675 85.3729 11.9726C87.5126 14.2484 88.5921 17.0689 88.5921 20.4243C88.5921 21.1731 88.5143 21.9707 88.3684 22.8071L71.4067 22.8265ZM71.3095 18.3332H82.7859C82.4552 16.8063 81.7744 15.6684 80.7337 14.9195C79.6931 14.1706 78.526 13.801 77.2033 13.801C75.6472 13.801 74.3536 14.1998 73.3324 14.9876C72.3112 15.7754 71.6401 16.8938 71.3095 18.3332Z" fill="white"/>
<path d="M97.7627 15.3668C97.7627 15.9698 98.1615 16.4561 98.9493 16.8257C99.737 17.1953 100.719 17.5357 101.848 17.8177C102.985 18.0998 104.133 18.4694 105.261 18.8973C106.399 19.335 107.362 20.0547 108.16 21.0759C108.957 22.0971 109.346 23.3711 109.346 24.8981C109.346 27.2128 108.49 28.9829 106.759 30.2278C105.028 31.4727 102.878 32.0951 100.301 32.0951C95.6814 32.0951 92.5303 30.3153 90.8574 26.746L95.8954 23.9158C96.5567 25.8707 98.0253 26.8432 100.301 26.8432C102.363 26.8432 103.404 26.2013 103.404 24.9078C103.404 24.3048 103.005 23.8185 102.217 23.4489C101.42 23.0696 100.457 22.739 99.3188 22.4375C98.1809 22.136 97.0333 21.7664 95.9051 21.319C94.7672 20.8619 93.8043 20.1616 92.9971 19.1891C92.1996 18.2165 91.8105 16.991 91.8105 15.5225C91.8105 13.305 92.6275 11.5641 94.2614 10.29C95.8954 9.01592 97.928 8.37402 100.359 8.37402C102.188 8.37402 103.851 8.79223 105.349 9.6092C106.847 10.4262 108.023 11.6127 108.908 13.1396L103.968 15.8337C103.248 14.3067 102.052 13.5384 100.369 13.5384C99.6203 13.5384 98.9979 13.7037 98.5019 14.0344C98.0156 14.3554 97.7627 14.8125 97.7627 15.3668Z" fill="white"/>
<path d="M117.702 22.8265C118.489 25.647 120.6 27.0475 124.043 27.0475C126.26 27.0475 127.943 26.2986 129.081 24.8009L133.759 27.4949C131.541 30.7044 128.264 32.3091 123.955 32.3091C120.24 32.3091 117.254 31.1907 114.998 28.9343C112.751 26.6877 111.623 23.8477 111.623 20.434C111.623 17.0202 112.742 14.2192 114.949 11.9531C117.167 9.68703 120.016 8.55884 123.498 8.55884C126.805 8.55884 129.518 9.69675 131.658 11.9726C133.798 14.2484 134.877 17.0689 134.877 20.4243C134.877 21.1731 134.8 21.9707 134.654 22.8071L117.702 22.8265ZM117.604 18.3332H129.081C128.75 16.8063 128.069 15.6684 127.038 14.9195C125.998 14.1706 124.831 13.801 123.508 13.801C121.952 13.801 120.658 14.1998 119.637 14.9876C118.616 15.7754 117.935 16.8938 117.604 18.3332Z" fill="white"/>
<path d="M143.445 13.0714C143.98 11.632 144.884 10.5524 146.12 9.83273C147.364 9.11303 148.755 8.75317 150.282 8.75317V15.2305C148.512 15.0263 146.937 15.3861 145.536 16.3101C144.135 17.234 143.445 18.7804 143.445 20.9395V31.6865H137.639V9.20056H143.445V13.0714Z" fill="white"/>
<path d="M169.89 9.20068H176.28L167.731 31.6866H161.117L152.568 9.20068H158.958L164.414 24.937L169.89 9.20068Z" fill="white"/>
<path d="M194.195 9.20078H200.001V31.6867H194.195V29.0413C192.454 31.2296 190.013 32.3189 186.861 32.3189C183.71 32.3189 181.298 31.181 179.139 28.876C176.999 26.5807 175.92 23.77 175.92 20.4438C175.92 17.1175 176.999 14.3068 179.139 12.0115C181.279 9.71624 183.856 8.5686 186.861 8.5686C190.013 8.5686 192.454 9.65789 194.195 11.8462V9.20078ZM183.487 25.0051C184.654 26.1917 186.142 26.7752 187.941 26.7752C189.74 26.7752 191.238 26.182 192.415 25.0051C193.592 23.8283 194.185 22.3014 194.185 20.4438C194.185 18.5861 193.592 17.0689 192.415 15.8824C191.238 14.6958 189.73 14.1123 187.941 14.1123C186.151 14.1123 184.654 14.7056 183.487 15.8824C182.319 17.0689 181.736 18.5861 181.736 20.4438C181.736 22.3014 182.319 23.8186 183.487 25.0051Z" fill="white"/>
</svg>
