<svg width="32" height="32" viewBox="0 0 32 32" fill="none" xmlns="http://www.w3.org/2000/svg">
<path d="M7.20019 25.6002C7.81509 24.9115 10.6949 21.7424 11.5389 21.7424H20.4621C21.685 21.7424 24.1815 24.3694 24.8002 25.2954M28.8002 16.0002C28.8002 23.0694 23.0694 28.8002 16.0002 28.8002C8.93095 28.8002 3.2002 23.0694 3.2002 16.0002C3.2002 8.93095 8.93095 3.2002 16.0002 3.2002C23.0694 3.2002 28.8002 8.93095 28.8002 16.0002ZM20.5853 11.6375C20.5853 9.19546 18.5238 7.20019 16.0006 7.20019C13.4774 7.20019 11.4158 9.19546 11.4158 11.6375C11.4158 14.0795 13.4774 16.0747 16.0006 16.0747C18.5237 16.0747 20.5853 14.0795 20.5853 11.6375Z" stroke="#404243" stroke-width="2"/>
</svg>
