<svg width="33" height="33" viewBox="0 0 33 33" fill="none" xmlns="http://www.w3.org/2000/svg">
<path d="M7.64453 25.6875C6.49453 24.5375 7.25703 22.125 6.66953 20.7125C6.08203 19.3 3.83203 18.0625 3.83203 16.5C3.83203 14.9375 6.05703 13.75 6.66953 12.2875C7.28203 10.825 6.49453 8.4625 7.64453 7.3125C8.79453 6.1625 11.207 6.925 12.6195 6.3375C14.032 5.75 15.2695 3.5 16.832 3.5C18.3945 3.5 19.582 5.725 21.0445 6.3375C22.507 6.95 24.8695 6.1625 26.0195 7.3125C27.1695 8.4625 26.407 10.875 26.9945 12.2875C27.582 13.7 29.832 14.9375 29.832 16.5C29.832 18.0625 27.607 19.25 26.9945 20.7125C26.382 22.175 27.1695 24.5375 26.0195 25.6875C24.8695 26.8375 22.457 26.075 21.0445 26.6625C19.632 27.25 18.3945 29.5 16.832 29.5C15.2695 29.5 14.082 27.275 12.6195 26.6625C11.157 26.05 8.79453 26.8375 7.64453 25.6875Z" stroke="#555555" stroke-width="2" stroke-linecap="round" stroke-linejoin="round"/>
<path d="M17.832 22.5C17.832 23.0523 17.3843 23.5 16.832 23.5C16.2797 23.5 15.832 23.0523 15.832 22.5C15.832 21.9477 16.2797 21.5 16.832 21.5C17.3843 21.5 17.832 21.9477 17.832 22.5Z" fill="#555555" stroke="#555555" stroke-width="2"/>
<path d="M16.832 17.5C17.5243 17.5 18.201 17.2947 18.7765 16.9101C19.3521 16.5256 19.8007 15.9789 20.0656 15.3394C20.3305 14.6999 20.3998 13.9961 20.2648 13.3172C20.1297 12.6383 19.7964 12.0146 19.3069 11.5251C18.8174 11.0356 18.1938 10.7023 17.5148 10.5673C16.8359 10.4322 16.1322 10.5015 15.4926 10.7664C14.8531 11.0313 14.3065 11.4799 13.9219 12.0555C13.5373 12.6311 13.332 13.3078 13.332 14" stroke="#555555" stroke-width="2" stroke-linecap="round" stroke-linejoin="round"/>
</svg>
