<svg width="32" height="32" viewBox="0 0 32 32" fill="none" xmlns="http://www.w3.org/2000/svg">
<path d="M19.525 27.475C18.3822 27.8223 17.1944 27.9992 16 28C13.6266 28 11.3066 27.2962 9.33316 25.9776C7.35977 24.6591 5.8217 22.7849 4.91345 20.5922C4.0052 18.3995 3.76756 15.9867 4.23058 13.6589C4.6936 11.3312 5.83649 9.19295 7.51472 7.51472C9.19295 5.83649 11.3312 4.6936 13.6589 4.23058C15.9867 3.76756 18.3995 4.0052 20.5922 4.91345C22.7849 5.8217 24.6591 7.35977 25.9776 9.33316C27.2962 11.3066 28 13.6266 28 16C27.9992 17.1944 27.8223 18.3822 27.475 19.525L19.525 27.475Z" stroke="#404243" stroke-width="2" stroke-linecap="round" stroke-linejoin="round"/>
<path d="M12.9375 13.5C12.9375 14.2939 12.2939 14.9375 11.5 14.9375C10.7061 14.9375 10.0625 14.2939 10.0625 13.5C10.0625 12.7061 10.7061 12.0625 11.5 12.0625C12.2939 12.0625 12.9375 12.7061 12.9375 13.5Z" fill="#404243" stroke="#404243" stroke-width="0.125"/>
<path d="M21.9375 13.5C21.9375 14.2939 21.2939 14.9375 20.5 14.9375C19.7061 14.9375 19.0625 14.2939 19.0625 13.5C19.0625 12.7061 19.7061 12.0625 20.5 12.0625C21.2939 12.0625 21.9375 12.7061 21.9375 13.5Z" fill="#404243" stroke="#404243" stroke-width="0.125"/>
<path d="M21.1998 19C20.6712 19.9107 19.9126 20.6667 19 21.1922C18.0874 21.7176 17.0529 21.9942 15.9998 21.9942C14.9468 21.9942 13.9122 21.7176 12.9996 21.1922C12.087 20.6667 11.3284 19.9107 10.7998 19" stroke="#404243" stroke-width="2" stroke-linecap="round" stroke-linejoin="round"/>
</svg>
