<svg width="108" height="21" viewBox="0 0 108 21" fill="none" xmlns="http://www.w3.org/2000/svg">
<path d="M10.3439 15.3985L14.2814 17.8985C14.7892 18.2188 15.4142 17.7422 15.2657 17.1563L14.1251 12.6719C14.0943 12.5476 14.0992 12.4171 14.1393 12.2955C14.1793 12.1738 14.253 12.066 14.3517 11.9844L17.8829 9.03908C18.3439 8.65627 18.1095 7.88283 17.5079 7.84377L12.8986 7.54689C12.7728 7.53958 12.6519 7.49578 12.5506 7.42086C12.4493 7.34594 12.372 7.24314 12.3282 7.12502L10.6095 2.79689C10.564 2.67182 10.4811 2.56377 10.3721 2.48742C10.2631 2.41107 10.1332 2.37012 10.0001 2.37012C9.86702 2.37012 9.73715 2.41107 9.62814 2.48742C9.51912 2.56377 9.43624 2.67182 9.39074 2.79689L7.67199 7.12502C7.62819 7.24314 7.55092 7.34594 7.44964 7.42086C7.34836 7.49578 7.22745 7.53958 7.10168 7.54689L2.49231 7.84377C1.89074 7.88283 1.65637 8.65627 2.11731 9.03908L5.64856 11.9844C5.74726 12.066 5.82089 12.1738 5.86097 12.2955C5.90106 12.4171 5.90596 12.5476 5.87512 12.6719L4.82043 16.8281C4.64074 17.5313 5.39074 18.1016 5.99231 17.7188L9.65637 15.3985C9.75912 15.3331 9.87836 15.2984 10.0001 15.2984C10.1219 15.2984 10.2411 15.3331 10.3439 15.3985Z" fill="#FF97C2" stroke="#FF517C" stroke-width="1.5" stroke-linecap="round" stroke-linejoin="round"/>
<path d="M32.3439 15.3985L36.2814 17.8985C36.7892 18.2188 37.4142 17.7422 37.2657 17.1563L36.1251 12.6719C36.0943 12.5476 36.0992 12.4171 36.1393 12.2955C36.1793 12.1738 36.253 12.066 36.3517 11.9844L39.8829 9.03908C40.3439 8.65627 40.1095 7.88283 39.5079 7.84377L34.8986 7.54689C34.7728 7.53958 34.6519 7.49578 34.5506 7.42086C34.4493 7.34594 34.372 7.24314 34.3282 7.12502L32.6095 2.79689C32.564 2.67182 32.4811 2.56377 32.3721 2.48742C32.2631 2.41107 32.1332 2.37012 32.0001 2.37012C31.867 2.37012 31.7372 2.41107 31.6281 2.48742C31.5191 2.56377 31.4362 2.67182 31.3907 2.79689L29.672 7.12502C29.6282 7.24314 29.5509 7.34594 29.4496 7.42086C29.3484 7.49578 29.2274 7.53958 29.1017 7.54689L24.4923 7.84377C23.8907 7.88283 23.6564 8.65627 24.1173 9.03908L27.6486 11.9844C27.7473 12.066 27.8209 12.1738 27.861 12.2955C27.9011 12.4171 27.906 12.5476 27.8751 12.6719L26.8204 16.8281C26.6407 17.5313 27.3907 18.1016 27.9923 17.7188L31.6564 15.3985C31.7591 15.3331 31.8784 15.2984 32.0001 15.2984C32.1219 15.2984 32.2411 15.3331 32.3439 15.3985Z" fill="#FF97C2" stroke="#FF517C" stroke-width="1.5" stroke-linecap="round" stroke-linejoin="round"/>
<path d="M54.3439 15.3985L58.2814 17.8985C58.7892 18.2188 59.4142 17.7422 59.2657 17.1563L58.1251 12.6719C58.0943 12.5476 58.0992 12.4171 58.1393 12.2955C58.1793 12.1738 58.253 12.066 58.3517 11.9844L61.8829 9.03908C62.3439 8.65627 62.1095 7.88283 61.5079 7.84377L56.8986 7.54689C56.7728 7.53958 56.6519 7.49578 56.5506 7.42086C56.4493 7.34594 56.372 7.24314 56.3282 7.12502L54.6095 2.79689C54.564 2.67182 54.4811 2.56377 54.3721 2.48742C54.2631 2.41107 54.1332 2.37012 54.0001 2.37012C53.867 2.37012 53.7372 2.41107 53.6281 2.48742C53.5191 2.56377 53.4362 2.67182 53.3907 2.79689L51.672 7.12502C51.6282 7.24314 51.5509 7.34594 51.4496 7.42086C51.3484 7.49578 51.2274 7.53958 51.1017 7.54689L46.4923 7.84377C45.8907 7.88283 45.6564 8.65627 46.1173 9.03908L49.6486 11.9844C49.7473 12.066 49.8209 12.1738 49.861 12.2955C49.9011 12.4171 49.906 12.5476 49.8751 12.6719L48.8204 16.8281C48.6407 17.5313 49.3907 18.1016 49.9923 17.7188L53.6564 15.3985C53.7591 15.3331 53.8784 15.2984 54.0001 15.2984C54.1219 15.2984 54.2411 15.3331 54.3439 15.3985Z" fill="#FF97C2" stroke="#FF517C" stroke-width="1.5" stroke-linecap="round" stroke-linejoin="round"/>
<path d="M76.3439 15.3985L80.2814 17.8985C80.7892 18.2188 81.4142 17.7422 81.2657 17.1563L80.1251 12.6719C80.0943 12.5476 80.0992 12.4171 80.1393 12.2955C80.1793 12.1738 80.253 12.066 80.3517 11.9844L83.8829 9.03908C84.3439 8.65627 84.1095 7.88283 83.5079 7.84377L78.8986 7.54689C78.7728 7.53958 78.6519 7.49578 78.5506 7.42086C78.4493 7.34594 78.372 7.24314 78.3282 7.12502L76.6095 2.79689C76.564 2.67182 76.4811 2.56377 76.3721 2.48742C76.2631 2.41107 76.1332 2.37012 76.0001 2.37012C75.867 2.37012 75.7372 2.41107 75.6281 2.48742C75.5191 2.56377 75.4362 2.67182 75.3907 2.79689L73.672 7.12502C73.6282 7.24314 73.5509 7.34594 73.4496 7.42086C73.3484 7.49578 73.2274 7.53958 73.1017 7.54689L68.4923 7.84377C67.8907 7.88283 67.6564 8.65627 68.1173 9.03908L71.6486 11.9844C71.7473 12.066 71.8209 12.1738 71.861 12.2955C71.9011 12.4171 71.906 12.5476 71.8751 12.6719L70.8204 16.8281C70.6407 17.5313 71.3907 18.1016 71.9923 17.7188L75.6564 15.3985C75.7591 15.3331 75.8784 15.2984 76.0001 15.2984C76.1219 15.2984 76.2411 15.3331 76.3439 15.3985Z" fill="#FF97C2" stroke="#FF517C" stroke-width="1.5" stroke-linecap="round" stroke-linejoin="round"/>
<path d="M98.3439 15.3985L102.281 17.8985C102.789 18.2188 103.414 17.7422 103.266 17.1563L102.125 12.6719C102.094 12.5476 102.099 12.4171 102.139 12.2955C102.179 12.1738 102.253 12.066 102.352 11.9844L105.883 9.03908C106.344 8.65627 106.109 7.88283 105.508 7.84377L100.899 7.54689C100.773 7.53958 100.652 7.49578 100.551 7.42086C100.449 7.34594 100.372 7.24314 100.328 7.12502L98.6095 2.79689C98.564 2.67182 98.4811 2.56377 98.3721 2.48742C98.2631 2.41107 98.1332 2.37012 98.0001 2.37012C97.867 2.37012 97.7372 2.41107 97.6281 2.48742C97.5191 2.56377 97.4362 2.67182 97.3907 2.79689L95.672 7.12502C95.6282 7.24314 95.5509 7.34594 95.4496 7.42086C95.3484 7.49578 95.2274 7.53958 95.1017 7.54689L90.4923 7.84377C89.8907 7.88283 89.6564 8.65627 90.1173 9.03908L93.6486 11.9844C93.7473 12.066 93.8209 12.1738 93.861 12.2955C93.9011 12.4171 93.906 12.5476 93.8751 12.6719L92.8204 16.8281C92.6407 17.5313 93.3907 18.1016 93.9923 17.7188L97.6564 15.3985C97.7591 15.3331 97.8784 15.2984 98.0001 15.2984C98.1219 15.2984 98.2411 15.3331 98.3439 15.3985Z" fill="#DEDEDE" stroke="#A9A9A9" stroke-width="1.5" stroke-linecap="round" stroke-linejoin="round"/>
</svg>
