<svg width="32" height="32" viewBox="0 0 32 32" fill="none" xmlns="http://www.w3.org/2000/svg">
<path d="M7.19995 25.6C7.81484 24.9113 10.6947 21.7422 11.5386 21.7422H20.4618C21.6848 21.7422 24.1812 24.3692 24.7999 25.2952M28.7999 16C28.7999 23.0693 23.0692 28.8 15.9999 28.8C8.93071 28.8 3.19995 23.0693 3.19995 16C3.19995 8.93077 8.93071 3.20001 15.9999 3.20001C23.0692 3.20001 28.7999 8.93077 28.7999 16ZM20.5851 11.6373C20.5851 9.19527 18.5236 7.20001 16.0003 7.20001C13.4772 7.20001 11.4156 9.19527 11.4156 11.6373C11.4156 14.0793 13.4772 16.0746 16.0003 16.0746C18.5235 16.0746 20.5851 14.0793 20.5851 11.6373Z" stroke="#FF517C" stroke-width="2"/>
</svg>
