<svg width="33" height="32" viewBox="0 0 33 32" fill="none" xmlns="http://www.w3.org/2000/svg">
<rect width="32" height="32" transform="translate(0.5)" fill="white"/>
<path d="M16.5 28C23.1274 28 28.5 22.6274 28.5 16C28.5 9.37258 23.1274 4 16.5 4C9.87258 4 4.5 9.37258 4.5 16C4.5 22.6274 9.87258 28 16.5 28Z" stroke="#555555" stroke-width="2" stroke-linecap="round" stroke-linejoin="round"/>
<path d="M16.5 20C19.2614 20 21.5 17.7614 21.5 15C21.5 12.2386 19.2614 10 16.5 10C13.7386 10 11.5 12.2386 11.5 15C11.5 17.7614 13.7386 20 16.5 20Z" stroke="#555555" stroke-width="2" stroke-linecap="round" stroke-linejoin="round"/>
<path d="M8.47461 24.925C9.227 23.4431 10.3751 22.1984 11.7915 21.3289C13.208 20.4595 14.8376 19.9993 16.4996 19.9993C18.1616 19.9993 19.7912 20.4595 21.2077 21.3289C22.6242 22.1984 23.7722 23.4431 24.5246 24.925" stroke="#555555" stroke-width="2" stroke-linecap="round" stroke-linejoin="round"/>
</svg>
