<svg width="27" height="27" viewBox="0 0 27 27" fill="none" xmlns="http://www.w3.org/2000/svg">
<g id="Drop">
<path id="Vector" d="M21.9375 15.1875C21.9375 7.59375 13.5 1.6875 13.5 1.6875C13.5 1.6875 5.0625 7.59375 5.0625 15.1875C5.0625 17.4253 5.95145 19.5714 7.53379 21.1537C9.11612 22.7361 11.2622 23.625 13.5 23.625C15.7378 23.625 17.8839 22.7361 19.4662 21.1537C21.0486 19.5714 21.9375 17.4253 21.9375 15.1875Z" stroke="#828282" stroke-width="2" stroke-linecap="round" stroke-linejoin="round"/>
<g id="Vector_2">
<path d="M14.3535 20.1656C15.3848 19.9908 16.3363 19.5002 17.0769 18.7616C17.8174 18.0229 18.3104 17.0726 18.4879 16.0418" fill="#828282"/>
<path d="M14.3535 20.1656C15.3848 19.9908 16.3363 19.5002 17.0769 18.7616C17.8174 18.0229 18.3104 17.0726 18.4879 16.0418" stroke="#828282" stroke-width="2" stroke-linecap="round" stroke-linejoin="round"/>
</g>
</g>
</svg>
